<svg xmlns="http://www.w3.org/2000/svg" width="48" height="47" viewBox="0 0 48 47">
  <metadata><?xpacket begin="﻿" id="W5M0MpCehiHzreSzNTczkc9d"?>
<x:xmpmeta xmlns:x="adobe:ns:meta/" x:xmptk="Adobe XMP Core 5.6-c138 79.159824, 2016/09/14-01:09:01        ">
   <rdf:RDF xmlns:rdf="http://www.w3.org/1999/02/22-rdf-syntax-ns#">
      <rdf:Description rdf:about=""/>
   </rdf:RDF>
</x:xmpmeta>
                                                                                                    
                                                                                                    
                                                                                                    
                                                                                                    
                                                                                                    
                                                                                                    
                                                                                                    
                                                                                                    
                                                                                                    
                                                                                                    
                                                                                                    
                                                                                                    
                                                                                                    
                                                                                                    
                                                                                                    
                                                                                                    
                                                                                                    
                                                                                                    
                                                                                                    
                                                                                                    
                           
<?xpacket end="w"?></metadata>
<defs>
    <style>
      .cls-1 {
        fill: #8f939f;
        fill-rule: evenodd;
      }
    </style>
  </defs>
  <path id="discover_icon" class="cls-1" d="M6981.69,1919.69a0.984,0.984,0,0,1-1.4,0l-8.94-8.94a22.227,22.227,0,1,1,1.35-1.45l8.99,8.99A0.984,0.984,0,0,1,6981.69,1919.69ZM6976,1895a20,20,0,1,0-20,20A19.994,19.994,0,0,0,6976,1895Zm-19,9h-2l-6-10h0.32a6.988,6.988,0,1,1,13.68-2,6.652,6.652,0,0,1-.33,2H6963Zm4-12a5,5,0,0,0-10,0,5.468,5.468,0,0,0,.1,1H6951l0.26,0.52a5.05,5.05,0,0,0,.71,1.41L6955,1901h2l3.04-6.07a5.308,5.308,0,0,0,.7-1.41l0.26-.52h-0.1A4.712,4.712,0,0,0,6961,1892Zm-5,2a2,2,0,1,1,2-2A2,2,0,0,1,6956,1894Z" transform="translate(-6934 -1873)"/>
</svg>
