<svg xmlns="http://www.w3.org/2000/svg" width="32" height="28" viewBox="0 0 32 28">
  <metadata><?xpacket begin="﻿" id="W5M0MpCehiHzreSzNTczkc9d"?>
<x:xmpmeta xmlns:x="adobe:ns:meta/" x:xmptk="Adobe XMP Core 5.6-c138 79.159824, 2016/09/14-01:09:01        ">
   <rdf:RDF xmlns:rdf="http://www.w3.org/1999/02/22-rdf-syntax-ns#">
      <rdf:Description rdf:about=""/>
   </rdf:RDF>
</x:xmpmeta>
                                                                                                    
                                                                                                    
                                                                                                    
                                                                                                    
                                                                                                    
                                                                                                    
                                                                                                    
                                                                                                    
                                                                                                    
                                                                                                    
                                                                                                    
                                                                                                    
                                                                                                    
                                                                                                    
                                                                                                    
                                                                                                    
                                                                                                    
                                                                                                    
                                                                                                    
                                                                                                    
                           
<?xpacket end="w"?></metadata>
<defs>
    <style>
      .cls-1 {
        fill: #868a96;
        fill-rule: evenodd;
      }
    </style>
  </defs>
  <path id="likes_icon" class="cls-1" d="M6864.39,588.607a8.9,8.9,0,0,0-12.58,0l-0.83.827-0.82-.827a8.892,8.892,0,1,0-12.58,12.569l12.43,12.418a1.327,1.327,0,0,0,.72.376,1.207,1.207,0,0,0,.26.026,1.356,1.356,0,0,0,.97-0.4l12.43-12.418A8.889,8.889,0,0,0,6864.39,588.607Zm-1.94,10.628-11.47,11.454-11.46-11.454a6.144,6.144,0,0,1,8.69-8.687l1.8,1.8a1.424,1.424,0,0,0,1.95,0l1.8-1.8a6.149,6.149,0,0,1,8.69,0A6.159,6.159,0,0,1,6862.45,599.235Z" transform="translate(-6835 -586)"/>
</svg>
