<svg xmlns="http://www.w3.org/2000/svg" width="48" height="44" viewBox="0 0 48 44">
  <metadata><?xpacket begin="﻿" id="W5M0MpCehiHzreSzNTczkc9d"?>
<x:xmpmeta xmlns:x="adobe:ns:meta/" x:xmptk="Adobe XMP Core 5.6-c138 79.159824, 2016/09/14-01:09:01        ">
   <rdf:RDF xmlns:rdf="http://www.w3.org/1999/02/22-rdf-syntax-ns#">
      <rdf:Description rdf:about=""/>
   </rdf:RDF>
</x:xmpmeta>
                                                                                                    
                                                                                                    
                                                                                                    
                                                                                                    
                                                                                                    
                                                                                                    
                                                                                                    
                                                                                                    
                                                                                                    
                                                                                                    
                                                                                                    
                                                                                                    
                                                                                                    
                                                                                                    
                                                                                                    
                                                                                                    
                                                                                                    
                                                                                                    
                                                                                                    
                                                                                                    
                           
<?xpacket end="w"?></metadata>
<defs>
    <style>
      .cls-1 {
        fill: #8f939f;
        fill-rule: evenodd;
      }
    </style>
  </defs>
  <path id="list_toolbar_icon" class="cls-1" d="M2036,1231h30a1,1,0,0,1,0,2h-30A1,1,0,0,1,2036,1231Zm-11-5a6,6,0,1,1-6,6A6,6,0,0,1,2025,1226Zm0,2a4,4,0,1,1-4,4A4,4,0,0,1,2025,1228Zm11,19h30a1,1,0,0,1,0,2h-30A1,1,0,0,1,2036,1247Zm-11-5a6,6,0,1,1-6,6A6,6,0,0,1,2025,1242Zm0,2a4,4,0,1,1-4,4A4,4,0,0,1,2025,1244Zm11,19h30a1,1,0,0,1,0,2h-30A1,1,0,0,1,2036,1263Zm-11-5a6,6,0,1,1-6,6A6,6,0,0,1,2025,1258Zm0,2a4,4,0,1,1-4,4A4,4,0,0,1,2025,1260Z" transform="translate(-2019 -1226)"/>
</svg>
