<svg xmlns="http://www.w3.org/2000/svg" width="32" height="31.344" viewBox="0 0 32 31.344">
  <metadata><?xpacket begin="﻿" id="W5M0MpCehiHzreSzNTczkc9d"?>
<x:xmpmeta xmlns:x="adobe:ns:meta/" x:xmptk="Adobe XMP Core 5.6-c138 79.159824, 2016/09/14-01:09:01        ">
   <rdf:RDF xmlns:rdf="http://www.w3.org/1999/02/22-rdf-syntax-ns#">
      <rdf:Description rdf:about=""/>
   </rdf:RDF>
</x:xmpmeta>
                                                                                                    
                                                                                                    
                                                                                                    
                                                                                                    
                                                                                                    
                                                                                                    
                                                                                                    
                                                                                                    
                                                                                                    
                                                                                                    
                                                                                                    
                                                                                                    
                                                                                                    
                                                                                                    
                                                                                                    
                                                                                                    
                                                                                                    
                                                                                                    
                                                                                                    
                                                                                                    
                           
<?xpacket end="w"?></metadata>
<defs>
    <style>
      .cls-1 {
        fill: #868a96;
        fill-rule: evenodd;
      }
    </style>
  </defs>
  <path id="shares_icon" class="cls-1" d="M6974.6,602.528a4.169,4.169,0,0,0,.06-0.5,0.311,0.311,0,0,0,.01-0.1c0.01-.077.01-0.154,0.02-0.231a0.483,0.483,0,0,0,.01-0.122c0-.071.01-0.142,0.01-0.212,0-.039.01-0.084,0.01-0.123v-0.225a0.4,0.4,0,0,1,.01-0.109c0-.109.01-0.218,0.01-0.328a13.6,13.6,0,0,0-5.23-10.742,1.16,1.16,0,0,0-1.44,1.819,11.3,11.3,0,0,1,4.34,8.93v0.366c0,0.064-.01.122-0.01,0.187,0,0.031-.01.07-0.01,0.1a1.142,1.142,0,0,1-.01.181c0,0.032-.01.064-0.01,0.1a1.251,1.251,0,0,1-.02.192v0.065c-0.16-.013-0.31-0.019-0.47-0.019a5.119,5.119,0,0,0-5.12,5.1,1.16,1.16,0,0,0,2.32,0,2.8,2.8,0,1,1,2.8,2.79,1.157,1.157,0,1,0,0,2.314A5.107,5.107,0,0,0,6974.6,602.528Zm-9.4-17.216a5.046,5.046,0,0,0-3.15-2.315,5.1,5.1,0,0,0-3.88.586,5.108,5.108,0,0,0-2.47,4.294,14.355,14.355,0,0,0-1.73.88,13.617,13.617,0,0,0-6.53,10.01,1.176,1.176,0,0,0,1.02,1.292,0.938,0.938,0,0,0,.14.007,1.157,1.157,0,0,0,1.15-1.01,11.306,11.306,0,0,1,5.43-8.319c0.34-.2.69-0.392,1.04-0.558,0.07,0.135.14,0.269,0.22,0.4a5.132,5.132,0,0,0,7.03,1.736,1.158,1.158,0,1,0-1.2-1.98,2.791,2.791,0,1,1-2.89-4.776,2.787,2.787,0,0,1,3.83.945,1.174,1.174,0,0,0,1.6.392A1.153,1.153,0,0,0,6965.2,585.312Zm1.6,26.306a1.155,1.155,0,0,0-1.51-.63,11.419,11.419,0,0,1-9.95-.585,0.008,0.008,0,0,0-.01-0.007c-0.08-.045-0.15-0.083-0.22-0.129a0.575,0.575,0,0,1-.08-0.044c-0.05-.032-0.1-0.064-0.16-0.1a0.706,0.706,0,0,1-.09-0.057c-0.05-.032-0.09-0.065-0.14-0.1l-0.09-.058c-0.05-.032-0.1-0.07-0.15-0.109l-0.06-.038c0.09-.13.17-0.258,0.25-0.393a5.089,5.089,0,0,0-1.97-6.942,1.156,1.156,0,1,0-1.13,2.018,2.79,2.79,0,1,1-3.81,1.073,1.148,1.148,0,0,0-.44-1.575,1.17,1.17,0,0,0-1.59.444,5.107,5.107,0,0,0,1.96,6.962,5.044,5.044,0,0,0,2.49.649,5.227,5.227,0,0,0,2.48-.63c0.04,0.032.08,0.064,0.13,0.1a0.039,0.039,0,0,0,.02.013c0.08,0.058.16,0.122,0.25,0.18,0.02,0.019.06,0.038,0.08,0.058,0.07,0.044.12,0.083,0.19,0.128a0.753,0.753,0,0,0,.1.064l0.18,0.116c0.03,0.019.07,0.045,0.11,0.065,0.06,0.038.12,0.077,0.19,0.115a0.694,0.694,0,0,0,.09.052l0.29,0.167a13.719,13.719,0,0,0,11.96.7A1.152,1.152,0,0,0,6966.8,611.618Z" transform="translate(-6945 -582.844)"/>
</svg>
