<svg id="do_icon" xmlns="http://www.w3.org/2000/svg" xmlns:xlink="http://www.w3.org/1999/xlink" width="155" height="155" viewBox="0 0 155 155">
  <metadata><?xpacket begin="﻿" id="W5M0MpCehiHzreSzNTczkc9d"?>
<x:xmpmeta xmlns:x="adobe:ns:meta/" x:xmptk="Adobe XMP Core 5.6-c138 79.159824, 2016/09/14-01:09:01        ">
   <rdf:RDF xmlns:rdf="http://www.w3.org/1999/02/22-rdf-syntax-ns#">
      <rdf:Description rdf:about=""/>
   </rdf:RDF>
</x:xmpmeta>
                                                                                                    
                                                                                                    
                                                                                                    
                                                                                                    
                                                                                                    
                                                                                                    
                                                                                                    
                                                                                                    
                                                                                                    
                                                                                                    
                                                                                                    
                                                                                                    
                                                                                                    
                                                                                                    
                                                                                                    
                                                                                                    
                                                                                                    
                                                                                                    
                                                                                                    
                                                                                                    
                           
<?xpacket end="w"?></metadata>
<defs>
    <style>
      .cls-1 {
        fill: #d22734;
        filter: url(#filter);
      }

      .cls-1, .cls-2 {
        fill-rule: evenodd;
      }

      .cls-2 {
        fill: #fff;
        filter: url(#filter-2);
      }
    </style>
    <filter id="filter" x="1878" y="807" width="155" height="155" filterUnits="userSpaceOnUse">
      <feGaussianBlur result="blur" stdDeviation="2.667" in="SourceAlpha"/>
      <feComposite result="composite"/>
      <feComposite result="composite-2"/>
      <feComposite result="composite-3"/>
      <feFlood result="flood" flood-color="#d12734" flood-opacity="0.4"/>
      <feComposite result="composite-4" operator="in" in2="composite-3"/>
      <feBlend result="blend" in2="SourceGraphic"/>
      <feBlend result="blend-2" in="SourceGraphic"/>
    </filter>
    <filter id="filter-2" x="1916" y="845" width="79" height="79" filterUnits="userSpaceOnUse">
      <feGaussianBlur result="blur" stdDeviation="2.667" in="SourceAlpha"/>
      <feComposite result="composite"/>
      <feComposite result="composite-2"/>
      <feComposite result="composite-3"/>
      <feFlood result="flood" flood-color="#fff" flood-opacity="0.4"/>
      <feComposite result="composite-4" operator="in" in2="composite-3"/>
      <feBlend result="blend" in2="SourceGraphic"/>
      <feBlend result="blend-2" in="SourceGraphic"/>
    </filter>
  </defs>
  <path id="Ellipse_2_copy_8" data-name="Ellipse 2 copy 8" class="cls-1" d="M1955,954a70,70,0,1,1,70-70A70,70,0,0,1,1955,954Zm0-137a67,67,0,1,0,67,67A67,67,0,0,0,1955,817Z" transform="translate(-1878 -807)"/>
  <path id="Ellipse_2_copy_12" data-name="Ellipse 2 copy 12" class="cls-2" d="M1943.76,865.884a1.348,1.348,0,0,1,1.48-1.183,1.329,1.329,0,0,1,1.18,1.481c-0.06.531,0.56,2.2,3.22,5.111a61.274,61.274,0,0,0,9.65,8.207,69.182,69.182,0,0,0,7.68,4.707,1.337,1.337,0,0,1,.57,1.806,1.32,1.32,0,0,1-1.18.724,1.344,1.344,0,0,1-.62-0.151,71.79,71.79,0,0,1-7.99-4.89C1950.48,876.6,1943.33,869.731,1943.76,865.884Zm-12.91-.279a1.338,1.338,0,0,0-1.64.944,14.741,14.741,0,0,0,.67,9.61,14.424,14.424,0,0,0,1.44,2.59l3.8,5.433a14.464,14.464,0,0,0,7.12,5.391,1.339,1.339,0,1,0,.88-2.53,11.814,11.814,0,0,1-5.81-4.4l-3.8-5.434a12.192,12.192,0,0,1-1.17-2.112,12.018,12.018,0,0,1-.55-7.851A1.343,1.343,0,0,0,1930.85,865.605Zm37.75,15.885a1.341,1.341,0,0,0,.67-2.5c-1.72-.989-3.46-2.1-5.18-3.313a61.619,61.619,0,0,1-8.37-6.94,1.338,1.338,0,1,0-1.9,1.885,64.248,64.248,0,0,0,8.73,7.251c1.79,1.255,3.6,2.412,5.38,3.439A1.336,1.336,0,0,0,1968.6,881.49Zm-18.92-13.878a1.333,1.333,0,0,0,1.86-.329l4.12-5.9a15.815,15.815,0,0,1,21.97-3.878,15.936,15.936,0,0,1,5.13,19.851,1.34,1.34,0,1,0,2.41,1.172,18.553,18.553,0,0,0-6.01-23.219,18.48,18.48,0,0,0-25.69,4.537l-4.12,5.9A1.34,1.34,0,0,0,1949.68,867.612Zm25.3,41.023a2.134,2.134,0,0,1,.36,1.626,2.173,2.173,0,0,1-.89,1.405l-5.64,3.954a2.155,2.155,0,0,1-1.24.392,2.187,2.187,0,0,1-1.79-.927l-3.53-5.053s0-.007-0.01-0.01v-0.009l-3.97-5.675c-0.01-.008-0.01-0.016-0.02-0.024s-0.01-.016-0.01-0.024l-1.57-2.248a1.338,1.338,0,1,1,2.19-1.537l0.82,1.174,5.91-4.144a1.332,1.332,0,0,1,1.86.329l3.97,5.681a0.048,0.048,0,0,1,.02.027,0.048,0.048,0,0,1,.02.027Zm-11.31-1.248,4.81-3.376-2.45-3.513-4.82,3.376Zm8.83,2.372-2.48-3.552-4.82,3.376,2.49,3.552Zm13.64-22.063a7.9,7.9,0,1,1-7.9-7.909A7.911,7.911,0,0,1,1986.14,887.7Zm-2.68,0a5.217,5.217,0,1,0-5.22,5.229A5.229,5.229,0,0,0,1983.46,887.7Zm-42.79,7.252a1.341,1.341,0,0,0,.44-2.606,15.543,15.543,0,0,1-7.69-5.824l-4.91-7.017a15.864,15.864,0,0,1,3.87-21.994,15.85,15.85,0,0,1,18.01-.048,1.341,1.341,0,0,0,1.52-2.209,18.415,18.415,0,0,0-28.63,11.989,18.334,18.334,0,0,0,3.04,13.8l4.9,7.017a18.271,18.271,0,0,0,9.01,6.818A1.288,1.288,0,0,0,1940.67,894.948Zm17.53,0.147-2.45,3.51h0l-11.53,16.479a2.167,2.167,0,0,1-3.02.535l-5.64-3.955a2.182,2.182,0,0,1-.53-3.031l3.52-5.045a0.162,0.162,0,0,0,.02-0.018,0.017,0.017,0,0,1,.01-0.018l3.96-5.668c0.01-.007.01-0.015,0.02-0.022s0.01-.014.01-0.021l3.96-5.663c0.01-.009.01-0.016,0.02-0.024s0.01-.016.01-0.024l2.44-3.486a18.554,18.554,0,0,1-3.73-12.212,1.342,1.342,0,0,1,2.68.143,15.818,15.818,0,0,0,3.74,11.145,1.335,1.335,0,0,1,.08,1.638l-2.26,3.235,4.81,3.377,2.26-3.236a1.347,1.347,0,0,1,1.57-.487,15.916,15.916,0,0,0,9.81.389,1.341,1.341,0,0,1,.73,2.581A18.685,18.685,0,0,1,1958.2,895.1Zm-13.4,14.487-4.81-3.376-2.48,3.553,4.81,3.376Zm4-5.708-4.82-3.375-2.46,3.512,4.82,3.376Zm3.99-5.708-4.82-3.376-2.45,3.513,4.81,3.376Z" transform="translate(-1878 -807)"/>
</svg>
