<svg id="drink_go_out_icon" xmlns="http://www.w3.org/2000/svg" xmlns:xlink="http://www.w3.org/1999/xlink" width="155" height="155" viewBox="0 0 155 155">
  <metadata><?xpacket begin="﻿" id="W5M0MpCehiHzreSzNTczkc9d"?>
<x:xmpmeta xmlns:x="adobe:ns:meta/" x:xmptk="Adobe XMP Core 5.6-c138 79.159824, 2016/09/14-01:09:01        ">
   <rdf:RDF xmlns:rdf="http://www.w3.org/1999/02/22-rdf-syntax-ns#">
      <rdf:Description rdf:about=""/>
   </rdf:RDF>
</x:xmpmeta>
                                                                                                    
                                                                                                    
                                                                                                    
                                                                                                    
                                                                                                    
                                                                                                    
                                                                                                    
                                                                                                    
                                                                                                    
                                                                                                    
                                                                                                    
                                                                                                    
                                                                                                    
                                                                                                    
                                                                                                    
                                                                                                    
                                                                                                    
                                                                                                    
                                                                                                    
                                                                                                    
                           
<?xpacket end="w"?></metadata>
<defs>
    <style>
      .cls-1 {
        fill: #d22734;
        filter: url(#filter);
      }

      .cls-1, .cls-2 {
        fill-rule: evenodd;
      }

      .cls-2 {
        fill: #fff;
        filter: url(#filter-2);
      }
    </style>
    <filter id="filter" x="1878" y="557" width="155" height="155" filterUnits="userSpaceOnUse">
      <feGaussianBlur result="blur" stdDeviation="2.667" in="SourceAlpha"/>
      <feComposite result="composite"/>
      <feComposite result="composite-2"/>
      <feComposite result="composite-3"/>
      <feFlood result="flood" flood-color="#d12734" flood-opacity="0.4"/>
      <feComposite result="composite-4" operator="in" in2="composite-3"/>
      <feBlend result="blend" in2="SourceGraphic"/>
      <feBlend result="blend-2" in="SourceGraphic"/>
    </filter>
    <filter id="filter-2" x="1920" y="595" width="73" height="79" filterUnits="userSpaceOnUse">
      <feGaussianBlur result="blur" stdDeviation="2.667" in="SourceAlpha"/>
      <feComposite result="composite"/>
      <feComposite result="composite-2"/>
      <feComposite result="composite-3"/>
      <feFlood result="flood" flood-color="#fff" flood-opacity="0.4"/>
      <feComposite result="composite-4" operator="in" in2="composite-3"/>
      <feBlend result="blend" in2="SourceGraphic"/>
      <feBlend result="blend-2" in="SourceGraphic"/>
    </filter>
  </defs>
  <path id="Ellipse_2_copy_8" data-name="Ellipse 2 copy 8" class="cls-1" d="M1955,704a70,70,0,1,1,70-70A70,70,0,0,1,1955,704Zm0-137a67,67,0,1,0,67,67A67,67,0,0,0,1955,567Z" transform="translate(-1878 -557)"/>
  <path id="Ellipse_2_copy_14" data-name="Ellipse 2 copy 14" class="cls-2" d="M1984.89,602.7a1.083,1.083,0,0,0-1.42-.588l-11.35,4.778a1.133,1.133,0,0,0-.46.368l-6.09,8.482h-18.71a9.94,9.94,0,0,0-18.21-4.432,0.054,0.054,0,0,1-.02.029q-0.045.071-.09,0.144a10.041,10.041,0,0,0,8.42,15.384,9.559,9.559,0,0,0,5.1-1.4l1.56,1.82a1.079,1.079,0,0,0,1.53.115,1.1,1.1,0,0,0,.12-1.544l-2.88-3.358a9.083,9.083,0,0,1,5.23-1.058,9.52,9.52,0,0,1,4.53,2.081,17.746,17.746,0,0,0,3.57,2.069,12.241,12.241,0,0,0,4.69.9,15.162,15.162,0,0,0,2.64-.239l-8.72,10.2-6.13-7.164a1.079,1.079,0,0,0-1.53-.115,1.1,1.1,0,0,0-.12,1.544l6.54,7.639a1.853,1.853,0,0,0,.15.146v20.134l-10.57,5.3a1.093,1.093,0,0,0-.57,1.231,1.078,1.078,0,0,0,1.05.844h22.36a1.078,1.078,0,0,0,1.05-.844,1.093,1.093,0,0,0-.57-1.231l-10.57-5.3V638.492a1.853,1.853,0,0,0,.15-0.146l17.8-20.8a1.108,1.108,0,0,0,.16-1.17,1.088,1.088,0,0,0-.99-0.639h-4.29l4.99-6.949,11.07-4.66A1.1,1.1,0,0,0,1984.89,602.7Zm-24.01,61.115h-13.1l6.55-3.285Zm-16.21-48.075h-6.59l3.31-5.348A7.88,7.88,0,0,1,1944.67,615.736Zm-7.71-6.746a7.7,7.7,0,0,1,2.48.41l-3.63,5.854-4.77-3.507A7.747,7.747,0,0,1,1936.96,608.99Zm-7.79,7.841a7.771,7.771,0,0,1,.7-3.233l4.79,3.515-3.26,5.2A7.874,7.874,0,0,1,1929.17,616.831Zm7.79,7.841a7.673,7.673,0,0,1-3.82-1.015l3.11-4.99,4.37,5.1A7.512,7.512,0,0,1,1936.96,624.672Zm33.21-6.746-4.59,5.368c-3.4,1.236-6.44,1.327-9.05.261a16.117,16.117,0,0,1-3.14-1.842,11.577,11.577,0,0,0-5.51-2.453,11.367,11.367,0,0,0-6.94,1.529l-2.45-2.863h31.68Z" transform="translate(-1878 -557)"/>
</svg>
