<svg id="eat_icon" xmlns="http://www.w3.org/2000/svg" xmlns:xlink="http://www.w3.org/1999/xlink" width="155" height="155" viewBox="0 0 155 155">
  <metadata><?xpacket begin="﻿" id="W5M0MpCehiHzreSzNTczkc9d"?>
<x:xmpmeta xmlns:x="adobe:ns:meta/" x:xmptk="Adobe XMP Core 5.6-c138 79.159824, 2016/09/14-01:09:01        ">
   <rdf:RDF xmlns:rdf="http://www.w3.org/1999/02/22-rdf-syntax-ns#">
      <rdf:Description rdf:about=""/>
   </rdf:RDF>
</x:xmpmeta>
                                                                                                    
                                                                                                    
                                                                                                    
                                                                                                    
                                                                                                    
                                                                                                    
                                                                                                    
                                                                                                    
                                                                                                    
                                                                                                    
                                                                                                    
                                                                                                    
                                                                                                    
                                                                                                    
                                                                                                    
                                                                                                    
                                                                                                    
                                                                                                    
                                                                                                    
                                                                                                    
                           
<?xpacket end="w"?></metadata>
<defs>
    <style>
      .cls-1 {
        fill: #d22734;
        filter: url(#filter);
      }

      .cls-1, .cls-2 {
        fill-rule: evenodd;
      }

      .cls-2 {
        fill: #fff;
        filter: url(#filter-2);
      }
    </style>
    <filter id="filter" x="1655" y="557" width="155" height="155" filterUnits="userSpaceOnUse">
      <feGaussianBlur result="blur" stdDeviation="2.667" in="SourceAlpha"/>
      <feComposite result="composite"/>
      <feComposite result="composite-2"/>
      <feComposite result="composite-3"/>
      <feFlood result="flood" flood-color="#d12734" flood-opacity="0.4"/>
      <feComposite result="composite-4" operator="in" in2="composite-3"/>
      <feBlend result="blend" in2="SourceGraphic"/>
      <feBlend result="blend-2" in="SourceGraphic"/>
    </filter>
    <filter id="filter-2" x="1692" y="596" width="79" height="76" filterUnits="userSpaceOnUse">
      <feGaussianBlur result="blur" stdDeviation="2.667" in="SourceAlpha"/>
      <feComposite result="composite"/>
      <feComposite result="composite-2"/>
      <feComposite result="composite-3"/>
      <feFlood result="flood" flood-color="#fff" flood-opacity="0.4"/>
      <feComposite result="composite-4" operator="in" in2="composite-3"/>
      <feBlend result="blend" in2="SourceGraphic"/>
      <feBlend result="blend-2" in="SourceGraphic"/>
    </filter>
  </defs>
  <path id="Ellipse_2_copy_7" data-name="Ellipse 2 copy 7" class="cls-1" d="M1732,704a70,70,0,1,1,70-70A70,70,0,0,1,1732,704Zm0-137a67,67,0,1,0,67,67A67,67,0,0,0,1732,567Z" transform="translate(-1655 -557)"/>
  <path id="Ellipse_2_copy_15" data-name="Ellipse 2 copy 15" class="cls-2" d="M1742.31,620.33a1.135,1.135,0,0,0,.81.339,1.118,1.118,0,0,0,.81-0.339l11.91-12a1.16,1.16,0,0,0,0-1.636,1.138,1.138,0,0,0-1.62,0l-11.91,12A1.16,1.16,0,0,0,1742.31,620.33Zm3.24,3.213a1.14,1.14,0,0,0,1.62,0l11.91-12a1.161,1.161,0,0,0,0-1.637,1.137,1.137,0,0,0-1.62,0l-11.91,12A1.161,1.161,0,0,0,1745.55,623.543Zm2.3,6.627,14.78-14.9a1.16,1.16,0,0,0,0-1.636,1.137,1.137,0,0,0-1.62,0l-14.79,14.9a6.064,6.064,0,0,1-6.93,1.2,1.136,1.136,0,0,0-1.35.275l-5.03,5.7v0.007s-0.01,0-.01.006l-21.71,24.647c-0.01.007-.01,0.013-0.02,0.019-0.07.085-.14,0.159-0.2,0.229a3.691,3.691,0,0,1-5.2-5.24,3.019,3.019,0,0,1,.22-0.208,0.035,0.035,0,0,0,.02-0.017l13.58-12.139a1.167,1.167,0,0,0,.09-1.633,1.139,1.139,0,0,0-1.62-.1l-13.56,12.131c-0.13.112-.25,0.219-0.36,0.328a6.017,6.017,0,0,0,4.23,10.273,5.917,5.917,0,0,0,4.22-1.76c0.11-.111.22-0.227,0.33-0.357l16.54-18.782,16.55,18.782c0.11,0.13.21,0.246,0.32,0.356a5.949,5.949,0,0,0,8.45,0,6.055,6.055,0,0,0,0-8.511c-0.11-.111-0.22-0.219-0.35-0.329l-19.04-17.026,3.72-4.229A8.37,8.37,0,0,0,1747.85,630.17Zm5.06,24.983a0.035,0.035,0,0,1,.02.017,2.864,2.864,0,0,1,.23.209,3.735,3.735,0,0,1,0,5.239,3.663,3.663,0,0,1-5.2,0,2.954,2.954,0,0,1-.21-0.228,0.041,0.041,0,0,0-.02-0.019l-16.73-19,2.86-3.253Zm-32.94-22.816s4.27,4.854,4.33,4.916a1.141,1.141,0,0,0,1.62.1l10.23-9.147a1.167,1.167,0,0,0,.27-1.364,6.181,6.181,0,0,1,1.19-6.982l14.79-14.9a1.179,1.179,0,0,0,0-1.636,1.149,1.149,0,0,0-1.63,0l-14.78,14.9a8.512,8.512,0,0,0-1.98,8.8l-4.55,4.068-4.37-3.91a11.7,11.7,0,0,0-2.15-13.541,26.162,26.162,0,0,0-11.62-7.113c-4.11-1.041-7.62-.346-9.91,1.957s-2.98,5.848-1.94,9.981a26.326,26.326,0,0,0,7.06,11.709A11.491,11.491,0,0,0,1719.97,632.337Zm-16.94-22.22c1.7-1.7,4.44-2.183,7.73-1.349a23.788,23.788,0,0,1,10.55,6.5,9.382,9.382,0,0,1,1.35,11.543,1.176,1.176,0,0,0,.21,1.474l4.86,4.345-2.48,2.216-4.18-4.746a1.14,1.14,0,0,0-1.46-.218,9.221,9.221,0,0,1-11.46-1.354,24.077,24.077,0,0,1-6.45-10.637C1700.87,614.584,1701.34,611.82,1703.03,610.117Z" transform="translate(-1655 -557)"/>
</svg>
