<svg xmlns="http://www.w3.org/2000/svg" width="48" height="43" viewBox="0 0 48 43">
  <metadata><?xpacket begin="﻿" id="W5M0MpCehiHzreSzNTczkc9d"?>
<x:xmpmeta xmlns:x="adobe:ns:meta/" x:xmptk="Adobe XMP Core 5.6-c138 79.159824, 2016/09/14-01:09:01        ">
   <rdf:RDF xmlns:rdf="http://www.w3.org/1999/02/22-rdf-syntax-ns#">
      <rdf:Description rdf:about=""/>
   </rdf:RDF>
</x:xmpmeta>
                                                                                                    
                                                                                                    
                                                                                                    
                                                                                                    
                                                                                                    
                                                                                                    
                                                                                                    
                                                                                                    
                                                                                                    
                                                                                                    
                                                                                                    
                                                                                                    
                                                                                                    
                                                                                                    
                                                                                                    
                                                                                                    
                                                                                                    
                                                                                                    
                                                                                                    
                                                                                                    
                           
<?xpacket end="w"?></metadata>
<defs>
    <style>
      .cls-1 {
        fill: #8f939f;
        fill-rule: evenodd;
      }
    </style>
  </defs>
  <path id="experience_toolbar_icon" class="cls-1" d="M2242.01,1248.5a2.671,2.671,0,0,0-1.47-2.4l-3.58-1.8,3.58-1.79h0a2.694,2.694,0,0,0,0-4.8l-20.19-10.15a5.253,5.253,0,0,0-4.7,0l-20.19,10.15a2.694,2.694,0,0,0,0,4.8l3.58,1.79-3.58,1.8a2.694,2.694,0,0,0,0,4.8l3.58,1.8-3.58,1.79a2.694,2.694,0,0,0,0,4.8l20.19,10.15a5.211,5.211,0,0,0,4.7,0l20.19-10.15a2.694,2.694,0,0,0,0-4.8l-3.58-1.79,3.58-1.8A2.671,2.671,0,0,0,2242.01,1248.5Zm-45.56-7.98a0.442,0.442,0,0,1-.25-0.41,0.433,0.433,0,0,1,.25-0.41l20.18-10.15a3.009,3.009,0,0,1,2.74,0l20.18,10.15a0.433,0.433,0,0,1,.25.41,0.442,0.442,0,0,1-.25.41l-20.18,10.15a3.071,3.071,0,0,1-2.74,0Zm43.1,15.96a0.461,0.461,0,0,1,0,.82l-20.18,10.16a3.137,3.137,0,0,1-2.74,0l-20.18-10.16a0.461,0.461,0,0,1,0-.82l5.05-2.54,14.15,7.11a5.211,5.211,0,0,0,4.7,0l14.15-7.11Zm0-7.57-20.18,10.15a3.071,3.071,0,0,1-2.74,0l-20.18-10.15a0.461,0.461,0,0,1,0-.82l5.05-2.54,14.15,7.11a5.211,5.211,0,0,0,4.7,0l14.15-7.11,5.05,2.54A0.461,0.461,0,0,1,2239.55,1248.91Z" transform="translate(-2194 -1227)"/>
</svg>
