<svg id="listen_icon" xmlns="http://www.w3.org/2000/svg" xmlns:xlink="http://www.w3.org/1999/xlink" width="155" height="155" viewBox="0 0 155 155">
  <metadata><?xpacket begin="﻿" id="W5M0MpCehiHzreSzNTczkc9d"?>
<x:xmpmeta xmlns:x="adobe:ns:meta/" x:xmptk="Adobe XMP Core 5.6-c138 79.159824, 2016/09/14-01:09:01        ">
   <rdf:RDF xmlns:rdf="http://www.w3.org/1999/02/22-rdf-syntax-ns#">
      <rdf:Description rdf:about=""/>
   </rdf:RDF>
</x:xmpmeta>
                                                                                                    
                                                                                                    
                                                                                                    
                                                                                                    
                                                                                                    
                                                                                                    
                                                                                                    
                                                                                                    
                                                                                                    
                                                                                                    
                                                                                                    
                                                                                                    
                                                                                                    
                                                                                                    
                                                                                                    
                                                                                                    
                                                                                                    
                                                                                                    
                                                                                                    
                                                                                                    
                           
<?xpacket end="w"?></metadata>
<defs>
    <style>
      .cls-1 {
        fill: #d22734;
        filter: url(#filter);
      }

      .cls-1, .cls-2 {
        fill-rule: evenodd;
      }

      .cls-2 {
        fill: #fff;
        filter: url(#filter-2);
      }
    </style>
    <filter id="filter" x="2102" y="557" width="155" height="155" filterUnits="userSpaceOnUse">
      <feGaussianBlur result="blur" stdDeviation="2.667" in="SourceAlpha"/>
      <feComposite result="composite"/>
      <feComposite result="composite-2"/>
      <feComposite result="composite-3"/>
      <feFlood result="flood" flood-color="#d12734" flood-opacity="0.4"/>
      <feComposite result="composite-4" operator="in" in2="composite-3"/>
      <feBlend result="blend" in2="SourceGraphic"/>
      <feBlend result="blend-2" in="SourceGraphic"/>
    </filter>
    <filter id="filter-2" x="2139" y="595" width="74" height="79" filterUnits="userSpaceOnUse">
      <feGaussianBlur result="blur" stdDeviation="2.667" in="SourceAlpha"/>
      <feComposite result="composite"/>
      <feComposite result="composite-2"/>
      <feComposite result="composite-3"/>
      <feFlood result="flood" flood-color="#fff" flood-opacity="0.4"/>
      <feComposite result="composite-4" operator="in" in2="composite-3"/>
      <feBlend result="blend" in2="SourceGraphic"/>
      <feBlend result="blend-2" in="SourceGraphic"/>
    </filter>
  </defs>
  <path id="Ellipse_2_copy_9" data-name="Ellipse 2 copy 9" class="cls-1" d="M2179,704a70,70,0,1,1,70-70A70,70,0,0,1,2179,704Zm0-137a67,67,0,1,0,67,67A67,67,0,0,0,2179,567Z" transform="translate(-2102 -557)"/>
  <path id="Ellipse_2_copy_11" data-name="Ellipse 2 copy 11" class="cls-2" d="M2203.79,602.827a3.442,3.442,0,0,0-2.79-.787l-37.26,5.976a4.561,4.561,0,0,0-3.85,4.526v8.44a1.14,1.14,0,1,0,2.28,0v-8.44a2.281,2.281,0,0,1,1.93-2.265l37.26-5.976a1.19,1.19,0,0,1,1.37,1.17v41.974a0.09,0.09,0,0,1-.01.05,8.532,8.532,0,0,1-8.51,8.482,8.521,8.521,0,0,1-8.5-8.923,7.678,7.678,0,0,1,.24-1.653,1.144,1.144,0,0,0-2.22-.553,11.451,11.451,0,0,0-.31,2.1,10.8,10.8,0,1,0,21.59.616v-42.1A3.456,3.456,0,0,0,2203.79,602.827Zm-5.42,14.612a3.454,3.454,0,0,0-2.8-.787l-26.41,4.236a4.562,4.562,0,0,0-3.85,4.526v29.568a1.045,1.045,0,0,0-.01.177v0.04a8.535,8.535,0,0,1-8.51,8.515,8.535,8.535,0,0,1-8.52-8.646,8.516,8.516,0,0,1,12.26-7.545,1.136,1.136,0,0,0,1.64-1.028V628.156a1.14,1.14,0,1,0-2.28,0v16.666a10.8,10.8,0,0,0-13.9,10.216,10.8,10.8,0,1,0,21.59.283,0.963,0.963,0,0,0,.02-0.169V625.414a2.281,2.281,0,0,1,1.92-2.264l26.41-4.236a1.171,1.171,0,0,1,.96.268,1.157,1.157,0,0,1,.41.9v17a10.862,10.862,0,0,0-3.63-.439,10.643,10.643,0,0,0-3.37.725,1.144,1.144,0,0,0,.83,2.132,8.381,8.381,0,0,1,2.65-.57,8.581,8.581,0,0,1,4.17.852,1.142,1.142,0,0,0,1.64-1.029V620.084A3.458,3.458,0,0,0,2198.37,617.439Z" transform="translate(-2102 -557)"/>
</svg>
