<svg id="spec_events_icon" xmlns="http://www.w3.org/2000/svg" xmlns:xlink="http://www.w3.org/1999/xlink" width="155" height="155" viewBox="0 0 155 155">
  <metadata><?xpacket begin="﻿" id="W5M0MpCehiHzreSzNTczkc9d"?>
<x:xmpmeta xmlns:x="adobe:ns:meta/" x:xmptk="Adobe XMP Core 5.6-c138 79.159824, 2016/09/14-01:09:01        ">
   <rdf:RDF xmlns:rdf="http://www.w3.org/1999/02/22-rdf-syntax-ns#">
      <rdf:Description rdf:about=""/>
   </rdf:RDF>
</x:xmpmeta>
                                                                                                    
                                                                                                    
                                                                                                    
                                                                                                    
                                                                                                    
                                                                                                    
                                                                                                    
                                                                                                    
                                                                                                    
                                                                                                    
                                                                                                    
                                                                                                    
                                                                                                    
                                                                                                    
                                                                                                    
                                                                                                    
                                                                                                    
                                                                                                    
                                                                                                    
                                                                                                    
                           
<?xpacket end="w"?></metadata>
<defs>
    <style>
      .cls-1 {
        fill: #d22734;
        filter: url(#filter);
      }

      .cls-1, .cls-2 {
        fill-rule: evenodd;
      }

      .cls-2 {
        fill: #fff;
        filter: url(#filter-2);
      }
    </style>
    <filter id="filter" x="2102" y="807" width="155" height="155" filterUnits="userSpaceOnUse">
      <feGaussianBlur result="blur" stdDeviation="2.667" in="SourceAlpha"/>
      <feComposite result="composite"/>
      <feComposite result="composite-2"/>
      <feComposite result="composite-3"/>
      <feFlood result="flood" flood-color="#d12734" flood-opacity="0.4"/>
      <feComposite result="composite-4" operator="in" in2="composite-3"/>
      <feBlend result="blend" in2="SourceGraphic"/>
      <feBlend result="blend-2" in="SourceGraphic"/>
    </filter>
    <filter id="filter-2" x="2140" y="845" width="79" height="79" filterUnits="userSpaceOnUse">
      <feGaussianBlur result="blur" stdDeviation="2.667" in="SourceAlpha"/>
      <feComposite result="composite"/>
      <feComposite result="composite-2"/>
      <feComposite result="composite-3"/>
      <feFlood result="flood" flood-color="#fff" flood-opacity="0.4"/>
      <feComposite result="composite-4" operator="in" in2="composite-3"/>
      <feBlend result="blend" in2="SourceGraphic"/>
      <feBlend result="blend-2" in="SourceGraphic"/>
    </filter>
  </defs>
  <path id="Ellipse_2_copy_9" data-name="Ellipse 2 copy 9" class="cls-1" d="M2179,954a70,70,0,1,1,70-70A70,70,0,0,1,2179,954Zm0-137a67,67,0,1,0,67,67A67,67,0,0,0,2179,817Z" transform="translate(-2102 -807)"/>
  <path id="Ellipse_2_copy_10" data-name="Ellipse 2 copy 10" class="cls-2" d="M2210.94,859.613a4.015,4.015,0,0,0-2.54-3.147l-10.99-4.261a2.87,2.87,0,0,0-3.69,1.626,222.942,222.942,0,0,0-7.53,22.921c-3.87,14.271-5.01,37.747-5.03,37.982a1.2,1.2,0,0,0,.96,1.229,1.274,1.274,0,0,0,.23.022,1.194,1.194,0,0,0,1.12-.8,83.785,83.785,0,0,1,23.91-35.542,4.076,4.076,0,0,0-1.21-6.854l-5.44-2.111,8.79-7.276A4.053,4.053,0,0,0,2210.94,859.613Zm-2.93,1.945-10.36,8.578a1.185,1.185,0,0,0-.42,1.113,1.2,1.2,0,0,0,.74.924l7.35,2.847a1.685,1.685,0,0,1,.5,2.826,86.148,86.148,0,0,0-21.78,29.5c0.65-8.059,1.99-20.92,4.43-29.96a224.423,224.423,0,0,1,7.45-22.666,0.505,0.505,0,0,1,.46-0.314,0.5,0.5,0,0,1,.18.033l10.99,4.261A1.68,1.68,0,0,1,2208.01,861.558Zm-31.21,53.176c-0.01-.235-1.15-23.711-5.02-37.981a222.547,222.547,0,0,0-7.53-22.922,2.871,2.871,0,0,0-3.69-1.626l-10.99,4.261a4.08,4.08,0,0,0-1.12,6.937l8.79,7.277-5.44,2.111a4.076,4.076,0,0,0-1.21,6.854c1.28,1.121,2.54,2.3,3.74,3.491a1.182,1.182,0,0,0,1.68-.012,1.2,1.2,0,0,0-.01-1.688c-1.24-1.231-2.54-2.438-3.85-3.591a1.685,1.685,0,0,1,.5-2.826l7.34-2.846a1.195,1.195,0,0,0,.33-2.037l-10.36-8.578a1.681,1.681,0,0,1,.46-2.863l10.99-4.261a0.5,0.5,0,0,1,.64.282,222.15,222.15,0,0,1,7.44,22.666c2.44,9.009,3.78,21.821,4.43,29.886A74.6,74.6,0,0,0,2161.2,887.1a1.173,1.173,0,0,0-1.67-.063,1.2,1.2,0,0,0-.06,1.688c8.42,9.143,13.32,21.555,15.03,26.466a1.184,1.184,0,0,0,1.12.8,1.279,1.279,0,0,0,.23-0.023A1.191,1.191,0,0,0,2176.8,914.734Zm10.04-62.4a2.109,2.109,0,0,0-2.1-.054l-5.95,3.2-5.98-3.2a2.09,2.09,0,0,0-2.09.054,2.116,2.116,0,0,0-1.03,1.835v5.509a2.117,2.117,0,0,0,1.05,1.846,2.079,2.079,0,0,0,1.07.3,2.105,2.105,0,0,0,1.04-.277l5.92-3.339,5.93,3.347a2.128,2.128,0,0,0,3.17-1.866v-5.51A2.137,2.137,0,0,0,2186.84,852.335Zm-14.78,6.912v-4.671l4.24,2.277Zm13.44,0.008-4.25-2.394,4.25-2.277v4.671Z" transform="translate(-2102 -807)"/>
</svg>
