<svg id="watch_icon" xmlns="http://www.w3.org/2000/svg" xmlns:xlink="http://www.w3.org/1999/xlink" width="155" height="155" viewBox="0 0 155 155">
  <metadata><?xpacket begin="﻿" id="W5M0MpCehiHzreSzNTczkc9d"?>
<x:xmpmeta xmlns:x="adobe:ns:meta/" x:xmptk="Adobe XMP Core 5.6-c138 79.159824, 2016/09/14-01:09:01        ">
   <rdf:RDF xmlns:rdf="http://www.w3.org/1999/02/22-rdf-syntax-ns#">
      <rdf:Description rdf:about=""/>
   </rdf:RDF>
</x:xmpmeta>
                                                                                                    
                                                                                                    
                                                                                                    
                                                                                                    
                                                                                                    
                                                                                                    
                                                                                                    
                                                                                                    
                                                                                                    
                                                                                                    
                                                                                                    
                                                                                                    
                                                                                                    
                                                                                                    
                                                                                                    
                                                                                                    
                                                                                                    
                                                                                                    
                                                                                                    
                                                                                                    
                           
<?xpacket end="w"?></metadata>
<defs>
    <style>
      .cls-1 {
        fill: #d22734;
        filter: url(#filter);
      }

      .cls-1, .cls-2 {
        fill-rule: evenodd;
      }

      .cls-2 {
        fill: #fff;
        filter: url(#filter-2);
      }
    </style>
    <filter id="filter" x="1655" y="807" width="155" height="155" filterUnits="userSpaceOnUse">
      <feGaussianBlur result="blur" stdDeviation="2.667" in="SourceAlpha"/>
      <feComposite result="composite"/>
      <feComposite result="composite-2"/>
      <feComposite result="composite-3"/>
      <feFlood result="flood" flood-color="#d12734" flood-opacity="0.4"/>
      <feComposite result="composite-4" operator="in" in2="composite-3"/>
      <feBlend result="blend" in2="SourceGraphic"/>
      <feBlend result="blend-2" in="SourceGraphic"/>
    </filter>
    <filter id="filter-2" x="1692" y="848" width="79" height="73" filterUnits="userSpaceOnUse">
      <feGaussianBlur result="blur" stdDeviation="2.667" in="SourceAlpha"/>
      <feComposite result="composite"/>
      <feComposite result="composite-2"/>
      <feComposite result="composite-3"/>
      <feFlood result="flood" flood-color="#fff" flood-opacity="0.4"/>
      <feComposite result="composite-4" operator="in" in2="composite-3"/>
      <feBlend result="blend" in2="SourceGraphic"/>
      <feBlend result="blend-2" in="SourceGraphic"/>
    </filter>
  </defs>
  <path id="Ellipse_2_copy_7" data-name="Ellipse 2 copy 7" class="cls-1" d="M1732,954a70,70,0,1,1,70-70A70,70,0,0,1,1732,954Zm0-137a67,67,0,1,0,67,67A67,67,0,0,0,1732,817Z" transform="translate(-1655 -807)"/>
  <path id="Ellipse_2_copy_13" data-name="Ellipse 2 copy 13" class="cls-2" d="M1761.87,855h-61.74a1.132,1.132,0,0,0-1.13,1.13v38.415a1.132,1.132,0,0,0,1.13,1.13h61.74a1.133,1.133,0,0,0,1.13-1.13V856.13A1.132,1.132,0,0,0,1761.87,855Zm-1.14,38.416h-59.46V857.26h59.46v36.156h0Zm-23.81-19.057-8.11-4.661a1.153,1.153,0,0,0-1.14,0,1.125,1.125,0,0,0-.56.979V880a1.126,1.126,0,0,0,.56.979,1.186,1.186,0,0,0,.57.151,1.158,1.158,0,0,0,.57-0.151l8.11-4.661A1.136,1.136,0,0,0,1736.92,874.359Zm-7.54,3.683v-5.409l4.7,2.7Zm32.49,32.7h-2.16v-6.47a3.481,3.481,0,0,0-1.5-2.853,4.77,4.77,0,0,0-9.48,0,3.456,3.456,0,0,0-1.5,2.853v6.47h-2.5v-6.47a3.481,3.481,0,0,0-1.5-2.853,4.77,4.77,0,0,0-9.48,0,3.456,3.456,0,0,0-1.5,2.853v6.47h-2.5v-6.47a3.456,3.456,0,0,0-1.5-2.853,4.77,4.77,0,0,0-9.48,0,3.481,3.481,0,0,0-1.5,2.853v6.47h-2.5v-6.47a3.456,3.456,0,0,0-1.5-2.853,4.77,4.77,0,0,0-9.48,0,3.481,3.481,0,0,0-1.5,2.853v6.47h-2.16a1.13,1.13,0,0,0,0,2.26h61.74A1.13,1.13,0,1,0,1761.87,910.74Zm-53.34-11.3a2.489,2.489,0,0,1,2.22,1.356h-4.44A2.5,2.5,0,0,1,1708.53,899.442Zm3.97,11.3h-7.94v-6.47a1.219,1.219,0,0,1,1.22-1.212h5.51a1.21,1.21,0,0,1,1.21,1.212v6.47Zm11.01-11.3a2.489,2.489,0,0,1,2.22,1.356h-4.44A2.489,2.489,0,0,1,1723.51,899.442Zm3.97,11.3h-7.94v-6.47a1.219,1.219,0,0,1,1.22-1.212h5.5a1.212,1.212,0,0,1,1.22,1.212v6.47h0Zm11.01-11.3a2.489,2.489,0,0,1,2.22,1.356h-4.44A2.489,2.489,0,0,1,1738.49,899.442Zm3.97,11.3h-7.94v-6.47a1.212,1.212,0,0,1,1.22-1.212h5.5a1.212,1.212,0,0,1,1.22,1.212v6.47h0Zm11.01-11.3a2.5,2.5,0,0,1,2.22,1.356h-4.44A2.489,2.489,0,0,1,1753.47,899.442Zm3.97,11.3h-7.94v-6.47a1.21,1.21,0,0,1,1.21-1.212h5.51a1.219,1.219,0,0,1,1.22,1.212v6.47h0ZM1731,863.135a12.2,12.2,0,1,0,12.26,12.2A12.245,12.245,0,0,0,1731,863.135Zm0,22.146a9.944,9.944,0,1,1,9.99-9.943A9.977,9.977,0,0,1,1731,885.281Zm0,3.349a1.125,1.125,0,0,0-1.13,1.129v1.4a1.135,1.135,0,0,0,2.27,0v-1.4A1.14,1.14,0,0,0,1731,888.63Zm0-30.24a1.126,1.126,0,0,0-1.13,1.13v1.4a1.135,1.135,0,0,0,2.27,0v-1.4A1.135,1.135,0,0,0,1731,858.39Zm-14.49,15.817h-10.93a1.13,1.13,0,1,0,0,2.26h10.93A1.13,1.13,0,1,0,1716.51,874.207Zm39.91,0h-10.94a1.13,1.13,0,0,0,0,2.26h10.94A1.13,1.13,0,0,0,1756.42,874.207Z" transform="translate(-1655 -807)"/>
</svg>
