<?xml version="1.0" encoding="iso-8859-1"?>
<!-- Generator: Adobe Illustrator 19.0.0, SVG Export Plug-In . SVG Version: 6.00 Build 0)  -->
<svg xmlns="http://www.w3.org/2000/svg" xmlns:xlink="http://www.w3.org/1999/xlink" version="1.1" id="Capa_1" x="0px" y="0px" viewBox="0 0 490 490" style="enable-background:new 0 0 490 490;" xml:space="preserve" width="512px" height="512px">
<g>
	<g>
		<g>
			<path d="M411.8,0H0v55.2h411.8V0z M276.1,37.3H37.3c-5.4,0-9.7-4.3-9.7-9.7s4.3-9.7,9.7-9.7h238.8c5.4,0,9.7,4.3,9.7,9.7     S281.6,37.3,276.1,37.3z M325.1,37.3h-15.2c-5.4,0-9.7-4.3-9.7-9.7s4.3-9.7,9.7-9.7h15.2c5.4,0,9.7,4.3,9.7,9.7     S330.6,37.3,325.1,37.3z M374.9,37.3h-15.2c-5.4,0-9.7-4.3-9.7-9.7s4.3-9.7,9.7-9.7h15.2c5.4,0,9.7,4.3,9.7,9.7     S380.3,37.3,374.9,37.3z" fill="#FFFFFF"/>
			<g>
				<path d="M377.6,265.2c-61.8,0-112.4,50.6-112.4,112.4S315.8,490,377.6,490S490,439.4,490,377.6S439.4,265.2,377.6,265.2z       M445.5,445.8L445.5,445.8c-3.8,3.7-9.9,3.7-13.7-0.1l-54.6-54.5l-54.7,54.5c-3.8,3.8-9.9,3.8-13.7,0.1l0,0      c-3.9-3.8-3.9-10.1-0.1-13.9l54.5-54.3l-54.4-54.4c-3.9-3.9-3.9-10.1,0-13.6c3.9-3.9,10.1-3.9,13.6,0l54.4,54.4l54.4-54.4      c3.9-3.9,10.1-3.9,13.6,0c3.9,3.9,3.9,10.1,0,13.6l-54.4,54.4l55.1,54.3C449.4,435.7,449.4,442,445.5,445.8z" fill="#FFFFFF"/>
				<path d="M284.4,284.4c34.4-34.4,83.4-45.7,127.4-34V74.7H0v337.2h250.4C238.7,367.8,250,318.8,284.4,284.4z M49,140.4h314.2      c5.4,0,9.7,4.3,9.7,9.7s-4.3,9.7-9.7,9.7H49c-5.4,0-9.7-4.3-9.7-9.7S43.6,140.4,49,140.4z M49,237.6h206.9      c5.4,0,9.7,4.3,9.7,9.7c0,5.4-4.3,9.7-9.7,9.7H49c-5.4,0-9.7-4.3-9.7-9.7C39.3,242.3,43.6,237.6,49,237.6z M206.1,354.7H49      c-5.4,0-9.7-4.3-9.7-9.7s4.3-9.7,9.7-9.7h157.1c5.4,0,9.7,4.3,9.7,9.7S211.6,354.7,206.1,354.7z" fill="#FFFFFF"/>
			</g>
		</g>
	</g>
</g>
<g>
</g>
<g>
</g>
<g>
</g>
<g>
</g>
<g>
</g>
<g>
</g>
<g>
</g>
<g>
</g>
<g>
</g>
<g>
</g>
<g>
</g>
<g>
</g>
<g>
</g>
<g>
</g>
<g>
</g>
</svg>
