<?xml version="1.0" encoding="iso-8859-1"?>
<!-- Generator: Adobe Illustrator 19.1.0, SVG Export Plug-In . SVG Version: 6.00 Build 0)  -->
<svg xmlns="http://www.w3.org/2000/svg" xmlns:xlink="http://www.w3.org/1999/xlink" version="1.1" id="Capa_1" x="0px" y="0px" viewBox="0 0 60.043 60.043" style="enable-background:new 0 0 60.043 60.043;" xml:space="preserve" width="512px" height="512px">
<g>
	<g id="group-40svg">
		<path id="path-1_32_" d="M29.095,57.041c-15.163,0-27.5-12.346-27.5-27.52s12.337-27.519,27.5-27.519s27.5,12.345,27.5,27.519    S44.257,57.041,29.095,57.041z M29.095,5.004c-13.51,0-24.5,10.998-24.5,24.517s10.99,24.517,24.5,24.517s24.5-10.998,24.5-24.517    S42.604,5.004,29.095,5.004z" fill="#FFFFFF"/>
		<path id="path-2_31_" d="M60.021,32.023c0,1.105-0.896,2.001-2,2.001h-4c-1.105,0-2-0.896-2-2.001V28.02    c0-1.105,0.895-2.001,2-2.001h4c1.104,0,2,0.896,2,2.001V32.023z" fill="#FFFFFF"/>
		<path id="path-3_30_" d="M8.022,32.023c0,1.105-0.896,2.001-2,2.001h-4c-1.105,0-2-0.896-2-2.001V28.02    c0-1.105,0.895-2.001,2-2.001h4c1.104,0,2,0.896,2,2.001V32.023z" fill="#FFFFFF"/>
		<path id="path-4_22_" d="M34.021,58.041c0,1.106-0.896,2.002-2,2.002h-4c-1.105,0-2-0.896-2-2.002v-4.003    c0-1.105,0.895-2.001,2-2.001h4c1.104,0,2,0.896,2,2.001V58.041z" fill="#FFFFFF"/>
		<path id="path-5_17_" d="M34.021,6.004c0,1.106-0.896,2.002-2,2.002h-4c-1.105,0-2-0.896-2-2.002V2.002    c0-1.106,0.895-2.002,2-2.002h4c1.104,0,2,0.896,2,2.002V6.004z" fill="#FFFFFF"/>
	</g>
</g>
<g>
</g>
<g>
</g>
<g>
</g>
<g>
</g>
<g>
</g>
<g>
</g>
<g>
</g>
<g>
</g>
<g>
</g>
<g>
</g>
<g>
</g>
<g>
</g>
<g>
</g>
<g>
</g>
<g>
</g>
</svg>
