<?xml version="1.0" encoding="iso-8859-1"?>
<!-- Generator: Adobe Illustrator 18.0.0, SVG Export Plug-In . SVG Version: 6.00 Build 0)  -->
<!DOCTYPE svg PUBLIC "-//W3C//DTD SVG 1.1//EN" "http://www.w3.org/Graphics/SVG/1.1/DTD/svg11.dtd">
<svg xmlns="http://www.w3.org/2000/svg" xmlns:xlink="http://www.w3.org/1999/xlink" version="1.1" id="Capa_1" x="0px" y="0px" viewBox="0 0 454.756 454.756" style="enable-background:new 0 0 454.756 454.756;" xml:space="preserve" width="512px" height="512px">
<g>
	<path d="M227.386,294.423c37.024,0,67.045-30.021,67.045-67.045s-30.021-67.046-67.045-67.046   c-37.039,0-67.061,30.021-67.061,67.046S190.347,294.423,227.386,294.423z" fill="#FFFFFF"/>
	<path d="M242.831,7.416C239.074,2.724,233.387,0,227.386,0c-6.002,0-11.689,2.724-15.444,7.416L149.671,85.1   c-4.773,5.942-5.702,14.092-2.409,20.953c3.291,6.862,10.235,11.231,17.854,11.231h124.527c7.618,0,14.561-4.361,17.853-11.231   c3.293-6.861,2.364-15.003-2.395-20.944L242.831,7.416z" fill="#FFFFFF"/>
	<path d="M289.642,337.472H165.115c-7.618,0-14.563,4.369-17.854,11.231c-3.293,6.862-2.364,15.01,2.409,20.951l62.271,77.686   c3.756,4.692,9.442,7.416,15.444,7.416c6.001,0,11.688-2.724,15.444-7.416l62.271-77.692c4.759-5.941,5.688-14.082,2.395-20.944   C304.204,341.834,297.26,337.472,289.642,337.472z" fill="#FFFFFF"/>
	<path d="M447.333,211.941l-77.685-62.271c-5.941-4.759-14.082-5.695-20.952-2.402c-6.854,3.299-11.224,10.236-11.224,17.846V289.65   c0,7.61,4.369,14.554,11.224,17.846c6.87,3.293,15.011,2.364,20.952-2.401l77.685-62.264c4.685-3.756,7.423-9.435,7.423-15.444   S452.017,215.697,447.333,211.941z" fill="#FFFFFF"/>
	<path d="M106.061,147.276c-6.868-3.294-15.011-2.365-20.952,2.4L7.423,211.941c-4.684,3.756-7.423,9.436-7.423,15.444   s2.739,11.688,7.423,15.444l77.686,62.264c5.941,4.766,14.084,5.694,20.952,2.401c6.855-3.292,11.224-10.235,11.224-17.846V165.121   C117.285,157.511,112.916,150.567,106.061,147.276z" fill="#FFFFFF"/>
</g>
<g>
</g>
<g>
</g>
<g>
</g>
<g>
</g>
<g>
</g>
<g>
</g>
<g>
</g>
<g>
</g>
<g>
</g>
<g>
</g>
<g>
</g>
<g>
</g>
<g>
</g>
<g>
</g>
<g>
</g>
</svg>
