<?xml version="1.0" encoding="iso-8859-1"?>
<!-- Generator: Adobe Illustrator 16.0.0, SVG Export Plug-In . SVG Version: 6.00 Build 0)  -->
<!DOCTYPE svg PUBLIC "-//W3C//DTD SVG 1.1//EN" "http://www.w3.org/Graphics/SVG/1.1/DTD/svg11.dtd">
<svg xmlns="http://www.w3.org/2000/svg" xmlns:xlink="http://www.w3.org/1999/xlink" version="1.1" id="Capa_1" x="0px" y="0px" width="512px" height="512px" viewBox="0 0 26.177 26.177" style="enable-background:new 0 0 26.177 26.177;" xml:space="preserve">
<g>
	<path d="M14.302,22.214v-7.446L26.177,0.516H0l11.875,14.252v7.446c-3.444,0.28-6.073,1.71-6.073,3.447h14.576   C20.378,23.924,17.749,22.492,14.302,22.214z M13.568,8.833c-0.683,0-1.236-0.553-1.236-1.238c0-0.683,0.554-1.238,1.236-1.238   c0.684,0,1.239,0.555,1.239,1.238C14.809,8.279,14.252,8.833,13.568,8.833z M21.572,2.674L20.508,3.95L7.479,6.121L4.605,2.674   H21.572z" fill="#FFFFFF"/>
</g>
<g>
</g>
<g>
</g>
<g>
</g>
<g>
</g>
<g>
</g>
<g>
</g>
<g>
</g>
<g>
</g>
<g>
</g>
<g>
</g>
<g>
</g>
<g>
</g>
<g>
</g>
<g>
</g>
<g>
</g>
</svg>
