<?xml version="1.0" encoding="iso-8859-1"?>
<!-- Generator: Adobe Illustrator 19.0.0, SVG Export Plug-In . SVG Version: 6.00 Build 0)  -->
<svg xmlns="http://www.w3.org/2000/svg" xmlns:xlink="http://www.w3.org/1999/xlink" version="1.1" id="Capa_1" x="0px" y="0px" viewBox="0 0 502.707 502.707" style="enable-background:new 0 0 502.707 502.707;" xml:space="preserve" width="512px" height="512px">
<g>
	<g>
		<g>
			<path d="M251.375,0C112.546,0,0.032,112.556,0.032,251.343c0,138.851,112.513,251.364,251.321,251.364     c138.851,0,251.321-112.556,251.321-251.364C502.675,112.556,390.161,0,251.375,0z M272.946,461.054v-54.38h-43.249v54.38     c-100.908-10.332-180.591-91.848-188.291-193.49h86.973v-43.293H42.462c12.382-96.594,89.95-172.696,187.256-182.64v38.633     h43.249V41.653c97.414,9.944,174.896,86.046,187.278,182.64H374.35v43.293h87.017     C453.536,369.227,373.854,450.786,272.946,461.054z" fill="#FFFFFF"/>
			<path d="M251.31,223.775c35.074,0,63.375-28.301,63.375-63.246c0-34.988-28.301-63.332-63.375-63.332     c-34.88,0-63.159,28.301-63.159,63.332C188.13,195.453,216.409,223.775,251.31,223.775z" fill="#FFFFFF"/>
			<path d="M302.045,234.065H200.641c-18.119,0-32.96,16.631-32.96,37.059v101.879     c0,1.1,0.539,2.157,0.604,3.279h166.073c0.108-1.165,0.626-2.222,0.626-3.279V271.123     C335.005,250.717,320.207,234.065,302.045,234.065z" fill="#FFFFFF"/>
		</g>
	</g>
	<g>
	</g>
	<g>
	</g>
	<g>
	</g>
	<g>
	</g>
	<g>
	</g>
	<g>
	</g>
	<g>
	</g>
	<g>
	</g>
	<g>
	</g>
	<g>
	</g>
	<g>
	</g>
	<g>
	</g>
	<g>
	</g>
	<g>
	</g>
	<g>
	</g>
</g>
<g>
</g>
<g>
</g>
<g>
</g>
<g>
</g>
<g>
</g>
<g>
</g>
<g>
</g>
<g>
</g>
<g>
</g>
<g>
</g>
<g>
</g>
<g>
</g>
<g>
</g>
<g>
</g>
<g>
</g>
</svg>
