<svg xmlns="http://www.w3.org/2000/svg" width="40" height="40" viewBox="0 0 40 40">
  <metadata><?xpacket begin="﻿" id="W5M0MpCehiHzreSzNTczkc9d"?>
<x:xmpmeta xmlns:x="adobe:ns:meta/" x:xmptk="Adobe XMP Core 5.6-c138 79.159824, 2016/09/14-01:09:01        ">
   <rdf:RDF xmlns:rdf="http://www.w3.org/1999/02/22-rdf-syntax-ns#">
      <rdf:Description rdf:about=""/>
   </rdf:RDF>
</x:xmpmeta>
                                                                                                    
                                                                                                    
                                                                                                    
                                                                                                    
                                                                                                    
                                                                                                    
                                                                                                    
                                                                                                    
                                                                                                    
                                                                                                    
                                                                                                    
                                                                                                    
                                                                                                    
                                                                                                    
                                                                                                    
                                                                                                    
                                                                                                    
                                                                                                    
                                                                                                    
                                                                                                    
                           
<?xpacket end="w"?></metadata>
<defs>
    <style>
      .cls-1 {
        fill: #2c81a1;
        fill-rule: evenodd;
      }
    </style>
  </defs>
  <path id="shift_position_icon" class="cls-1" d="M419.711,1420.72l-4.994,4.99a1,1,0,0,1-1.427,0,1.013,1.013,0,0,1,0-1.43l3.284-3.28H407a1,1,0,0,1,0-2h9.574l-3.284-3.28a1.013,1.013,0,0,1,0-1.43,1,1,0,0,1,1.427,0l4.994,4.99A1.026,1.026,0,0,1,419.711,1420.72Zm-15.427-14.01L401,1403.43V1413a1,1,0,0,1-2,0v-9.57l-3.284,3.28a1.01,1.01,0,0,1-1.427-1.43l4.993-4.99a1.009,1.009,0,0,1,1.436,0l4.993,4.99A1.01,1.01,0,0,1,404.284,1406.71ZM393,1421h-9.574l3.284,3.28a1.013,1.013,0,0,1,0,1.43,1,1,0,0,1-1.427,0l-4.994-4.99a1.026,1.026,0,0,1,0-1.44l4.994-4.99a1,1,0,0,1,1.427,0,1.013,1.013,0,0,1,0,1.43l-3.284,3.28H393A1,1,0,0,1,393,1421Zm2.716,12.29,3.284,3.28V1427a1,1,0,0,1,2,0v9.57l3.284-3.28a1.01,1.01,0,0,1,1.427,1.43l-4.993,4.99a1.009,1.009,0,0,1-1.436,0l-4.993-4.99A1.01,1.01,0,0,1,395.716,1433.29Z" transform="translate(-380 -1400)"/>
</svg>
