<svg xmlns="http://www.w3.org/2000/svg" width="86.25" height="96" viewBox="0 0 86.25 96">
  <metadata><?xpacket begin="﻿" id="W5M0MpCehiHzreSzNTczkc9d"?>
<x:xmpmeta xmlns:x="adobe:ns:meta/" x:xmptk="Adobe XMP Core 5.6-c138 79.159824, 2016/09/14-01:09:01        ">
   <rdf:RDF xmlns:rdf="http://www.w3.org/1999/02/22-rdf-syntax-ns#">
      <rdf:Description rdf:about=""/>
   </rdf:RDF>
</x:xmpmeta>
                                                                                                    
                                                                                                    
                                                                                                    
                                                                                                    
                                                                                                    
                                                                                                    
                                                                                                    
                                                                                                    
                                                                                                    
                                                                                                    
                                                                                                    
                                                                                                    
                                                                                                    
                                                                                                    
                                                                                                    
                                                                                                    
                                                                                                    
                                                                                                    
                                                                                                    
                                                                                                    
                           
<?xpacket end="w"?></metadata>
<defs>
    <style>
      .cls-1 {
        fill: #fff;
        fill-rule: evenodd;
      }
    </style>
  </defs>
  <path id="deals_big_icon" class="cls-1" d="M200.627,1033.27a5.7,5.7,0,1,0-5.7-5.7A5.706,5.706,0,0,0,200.627,1033.27Zm0-8.14a2.445,2.445,0,1,1-2.441,2.44A2.447,2.447,0,0,1,200.627,1025.13Zm-34.171,8.14a5.7,5.7,0,1,0-5.7-5.7A5.706,5.706,0,0,0,166.456,1033.27Zm0-8.14a2.445,2.445,0,1,1-2.441,2.44A2.447,2.447,0,0,1,166.456,1025.13Zm0,69.97a5.7,5.7,0,1,0,5.7,5.7A5.706,5.706,0,0,0,166.456,1095.1Zm0,8.14a2.44,2.44,0,1,1,2.441-2.44A2.447,2.447,0,0,1,166.456,1103.24Zm59.392-58.55V1017H155.879v94.38H195a24.242,24.242,0,0,0,8.886,1.62,23.126,23.126,0,0,0,10.615-2.41,23.208,23.208,0,0,0,10.539,2.41c9.581,0,17.086-5,17.086-11.39v-45.56C242.121,1049.85,235.034,1044.96,225.848,1044.69Zm13.018,11.36c0,4.41-6.334,8.14-13.831,8.14s-13.831-3.73-13.831-8.14a4.619,4.619,0,0,1,.072-0.81c0.013-.07.04-0.15,0.058-0.22a5.217,5.217,0,0,1,.151-0.57c0.03-.08.073-0.16,0.108-0.24a4.855,4.855,0,0,1,.234-0.52,3.223,3.223,0,0,1,.173-0.28,5.259,5.259,0,0,1,.293-0.46c0.087-.12.192-0.24,0.291-0.36s0.182-.23.286-0.34c0.16-.17.339-0.34,0.521-0.5a1.91,1.91,0,0,1,.166-0.16,11.8,11.8,0,0,1,1.736-1.25,16.748,16.748,0,0,1,2.041-1c0.042-.02.088-0.03,0.131-0.05a17.231,17.231,0,0,1,2.262-.72,0.263,0.263,0,0,1,.085-0.02,19.719,19.719,0,0,1,2.083-.4c0.029-.01.057-0.01,0.086-0.02,0.75-.1,1.516-0.16,2.3-0.19l0.764-.03C232.537,1047.92,238.866,1051.64,238.866,1056.05Zm-0.106,39.99a3.729,3.729,0,0,1-.109.41c-0.037.13-.073,0.26-0.12,0.38s-0.116.26-.179,0.4c-0.058.12-.113,0.24-0.182,0.36s-0.158.26-.242,0.38-0.154.24-.241,0.35c-0.095.13-.2,0.25-0.306,0.37s-0.187.22-.292,0.33-0.242.23-.367,0.35c-0.111.1-.218,0.21-0.337,0.31s-0.28.22-.423,0.33c-0.127.1-.249,0.19-0.383,0.29-0.151.1-.313,0.2-0.474,0.3-0.141.09-.277,0.18-0.424,0.27-0.168.1-.345,0.19-0.52,0.28-0.155.08-.305,0.16-0.464,0.24-0.184.09-.378,0.17-0.57,0.25-0.162.07-.322,0.15-0.491,0.21-0.2.08-.415,0.15-0.625,0.23-0.169.06-.334,0.12-0.508,0.18-0.216.07-.444,0.13-0.666,0.19l-0.531.15c-0.233.06-.474,0.11-0.712,0.16-0.18.04-.356,0.08-0.539,0.11-0.259.05-.524,0.08-0.788,0.12-0.171.03-.341,0.06-0.514,0.08-0.294.04-.6,0.06-0.895,0.08-0.15.02-.3,0.04-0.448,0.05-0.452.02-.911,0.04-1.375,0.04-0.636,0-1.263-.04-1.884-0.09-0.17-.01-0.337-0.03-0.505-0.05-0.522-.05-1.039-0.13-1.551-0.22a1.865,1.865,0,0,1-.227-0.04,7.893,7.893,0,0,0,.1-1.23v-1.95c0.114,0.02.229,0.02,0.343,0.04,0.44,0.07.882,0.12,1.326,0.16,0.184,0.02.367,0.04,0.551,0.05,0.613,0.05,1.228.08,1.848,0.08,0.666,0,1.319-.03,1.963-0.08l0.615-.06q0.653-.06,1.286-0.15l0.682-.12c0.391-.07.775-0.15,1.153-0.23,0.221-.05.439-0.1,0.655-0.16,0.391-.1.768-0.22,1.145-0.34,0.181-.05.367-0.11,0.545-0.17,0.52-.18,1.028-0.38,1.512-0.59a0.143,0.143,0,0,1,.059-0.02c0.5-.23.981-0.47,1.444-0.73,0.148-.09.284-0.18,0.428-0.26,0.307-.19.608-0.38,0.9-0.57,0.152-.11.3-0.22,0.447-0.33,0.262-.2.511-0.4,0.752-0.61,0.072-.06.156-0.12,0.226-0.18q-0.008.135-.024,0.27C238.8,1095.78,238.786,1095.91,238.76,1096.04Zm-21.153,0a3.967,3.967,0,0,1-.109.41c-0.038.13-.073,0.26-0.121,0.38s-0.115.26-.179,0.4c-0.058.12-.113,0.24-0.181,0.36s-0.159.26-.243,0.38-0.153.24-.241,0.35c-0.094.13-.2,0.25-0.306,0.37s-0.187.22-.291,0.33-0.243.23-.368,0.35c-0.11.1-.218,0.21-0.337,0.31s-0.279.22-.422,0.33c-0.128.1-.25,0.19-0.383,0.29-0.151.1-.314,0.2-0.476,0.3-0.139.09-.276,0.18-0.422,0.27-0.168.1-.346,0.19-0.521,0.28-0.155.08-.305,0.16-0.464,0.24-0.184.09-.377,0.17-0.569,0.25-0.163.07-.322,0.15-0.492,0.21-0.2.08-.414,0.15-0.624,0.23-0.17.06-.334,0.12-0.508,0.18-0.216.07-.445,0.13-0.667,0.19-0.178.05-.35,0.1-0.531,0.15-0.232.06-.473,0.11-0.711,0.16-0.181.04-.356,0.08-0.54,0.11-0.259.05-.524,0.08-0.788,0.12-0.171.03-.34,0.06-0.514,0.08-0.294.04-.6,0.06-0.895,0.08-0.149.02-.3,0.04-0.448,0.05-0.451.02-.911,0.04-1.375,0.04s-0.922-.02-1.376-0.04c-0.152-.01-0.3-0.03-0.447-0.04-0.3-.03-0.6-0.05-0.895-0.09-0.174-.02-0.342-0.05-0.515-0.07-0.263-.04-0.528-0.08-0.787-0.13-0.183-.03-0.358-0.07-0.539-0.11-0.239-.05-0.48-0.1-0.715-0.16-0.18-.05-0.35-0.1-0.526-0.15-0.225-.06-0.453-0.12-0.67-0.19-0.175-.06-0.339-0.12-0.508-0.18-0.21-.08-0.422-0.15-0.625-0.23-0.17-.06-0.327-0.14-0.492-0.21-0.19-.08-0.386-0.16-0.569-0.25-0.16-.08-0.31-0.16-0.464-0.24-0.176-.09-0.353-0.18-0.521-0.28-0.146-.09-0.283-0.18-0.423-0.27-0.159-.1-0.323-0.2-0.475-0.3-0.134-.1-0.255-0.19-0.382-0.29-0.143-.11-0.291-0.22-0.424-0.33s-0.225-.21-0.336-0.31c-0.126-.12-0.252-0.23-0.368-0.35s-0.2-.22-0.29-0.33-0.211-.24-0.3-0.37c-0.087-.11-0.162-0.23-0.24-0.35s-0.17-.25-0.244-0.38-0.123-.24-0.182-0.36c-0.063-.14-0.127-0.27-0.179-0.4s-0.083-.25-0.121-0.38a4.237,4.237,0,0,1-.109-0.41c-0.026-.13-0.04-0.26-0.056-0.39-0.012-.09-0.018-0.18-0.025-0.27,0.07,0.07.153,0.12,0.225,0.19,0.24,0.21.491,0.41,0.753,0.61,0.147,0.11.294,0.22,0.446,0.32,0.287,0.2.587,0.39,0.9,0.58,0.143,0.08.279,0.17,0.427,0.26,0.462,0.25.941,0.5,1.444,0.72l0.053,0.03c0.488,0.21,1,.41,1.519.59,0.177,0.06.363,0.11,0.545,0.17,0.374,0.12.753,0.24,1.144,0.34l0.656,0.15q0.566,0.135,1.152.24c0.225,0.04.452,0.08,0.683,0.11,0.422,0.07.852,0.11,1.285,0.15,0.205,0.02.407,0.05,0.613,0.07,0.649,0.05,1.3.08,1.966,0.08s1.319-.03,1.963-0.08l0.615-.06q0.653-.06,1.286-0.15l0.683-.12c0.39-.07.774-0.15,1.152-0.23,0.221-.05.439-0.1,0.656-0.16,0.39-.1.768-0.22,1.144-0.34,0.182-.05.368-0.11,0.545-0.17,0.52-.18,1.028-0.38,1.513-0.59a0.138,0.138,0,0,1,.059-0.02c0.5-.23.98-0.47,1.443-0.73,0.148-.09.285-0.18,0.428-0.26,0.307-.19.608-0.38,0.9-0.57,0.153-.11.3-0.22,0.448-0.33,0.261-.2.51-0.4,0.751-0.61,0.072-.06.156-0.12,0.226-0.18q-0.006.135-.024,0.27C217.648,1095.78,217.633,1095.91,217.607,1096.04Zm-50.337-47.78v-10.14a10.6,10.6,0,0,0,9.732-9.73H190.08a10.6,10.6,0,0,0,9.732,9.73v10.14a0.48,0.48,0,0,1-.075-0.07c-0.273-.28-0.566-0.53-0.854-0.79s-0.548-.52-0.836-0.76c-0.107-.09-0.22-0.17-0.328-0.25a22.514,22.514,0,0,0-11.7-4.84l-0.158-.03c-0.765-.07-1.54-0.11-2.323-0.11s-1.557.04-2.323,0.11l-0.157.03a22.52,22.52,0,0,0-11.7,4.84c-0.107.08-.221,0.16-0.327,0.25-0.29.24-.56,0.5-0.836,0.76s-0.581.51-.855,0.79A0.476,0.476,0,0,1,167.27,1048.26Zm39.249,19.34a0.189,0.189,0,0,1,.074.01,21.243,21.243,0,0,1,2.531.46,19.933,19.933,0,0,1,2.039.64c0.318,0.12.627,0.25,0.928,0.38,0.166,0.07.339,0.14,0.5,0.22a14.33,14.33,0,0,1,1.275.71c0.091,0.06.178,0.11,0.265,0.17a10,10,0,0,1,2.214,1.94l0.05,0.06a6.3,6.3,0,0,1,.521.74,0.793,0.793,0,0,0,.053.08,6.136,6.136,0,0,1,.354.72c0.019,0.05.044,0.09,0.062,0.14a5,5,0,0,1,.2.67c0.013,0.06.036,0.12,0.047,0.18a4.477,4.477,0,0,1,.085.86c0,4.41-6.335,8.13-13.832,8.13s-13.83-3.72-13.83-8.13a4.884,4.884,0,0,1,.485-2.06,7.751,7.751,0,0,1,2.223-2.7l0.2-.15a10.787,10.787,0,0,1,.913-0.63,19.239,19.239,0,0,1,10.008-2.6A23.064,23.064,0,0,1,206.519,1067.6Zm5.689-3.97c0.146,0.11.293,0.22,0.446,0.33,0.287,0.2.587,0.39,0.9,0.57,0.144,0.09.28,0.18,0.428,0.26,0.463,0.26.941,0.51,1.444,0.73,0.018,0.01.036,0.01,0.054,0.02,0.488,0.22,1,.42,1.517.6,0.178,0.06.364,0.11,0.546,0.17,0.374,0.12.753,0.23,1.144,0.33,0.216,0.06.434,0.11,0.655,0.16,0.378,0.09.762,0.16,1.153,0.23l0.682,0.12c0.422,0.06.852,0.11,1.286,0.15,0.2,0.02.407,0.05,0.614,0.06,0.644,0.05,1.3.08,1.962,0.08s1.319-.03,1.963-0.08c0.208-.01.408-0.04,0.615-0.06q0.653-.06,1.286-0.15c0.23-.03.456-0.07,0.682-0.11q0.587-.105,1.153-0.24l0.655-.15c0.391-.11.768-0.22,1.145-0.34,0.181-.06.367-0.11,0.545-0.17,0.52-.18,1.028-0.38,1.512-0.59l0.059-.03c0.5-.22.981-0.47,1.444-0.73,0.148-.08.284-0.17,0.428-0.26,0.307-.18.608-0.37,0.9-0.57,0.152-.11.3-0.22,0.447-0.33,0.262-.19.511-0.4,0.752-0.61,0.072-.06.156-0.11,0.226-0.18q-0.008.135-.024,0.27c-0.016.13-.03,0.26-0.058,0.39s-0.068.27-.109,0.41-0.073.26-.12,0.38-0.116.26-.179,0.4c-0.058.12-.113,0.24-0.182,0.36s-0.158.26-.242,0.38-0.154.24-.241,0.35c-0.095.13-.2,0.25-0.306,0.37s-0.187.22-.292,0.33-0.242.23-.367,0.35c-0.111.1-.218,0.21-0.337,0.31s-0.28.22-.423,0.33c-0.127.09-.249,0.19-0.383,0.29-0.151.1-.313,0.2-0.474,0.3-0.141.09-.277,0.18-0.424,0.27-0.168.1-.345,0.18-0.52,0.28-0.155.08-.305,0.16-0.464,0.24-0.184.09-.378,0.17-0.57,0.25-0.162.07-.322,0.15-0.491,0.21-0.2.08-.415,0.15-0.625,0.23-0.169.06-.334,0.12-0.508,0.18-0.216.07-.444,0.13-0.666,0.19l-0.531.15c-0.233.06-.474,0.1-0.712,0.16-0.18.03-.356,0.08-0.539,0.11-0.259.05-.524,0.08-0.788,0.12-0.171.03-.341,0.06-0.514,0.08-0.294.04-.6,0.06-0.895,0.08-0.15.02-.3,0.03-0.448,0.04-0.452.03-.911,0.04-1.375,0.04q-0.876,0-1.741-.06c-0.183-.02-0.363-0.05-0.545-0.06-0.39-.04-0.78-0.08-1.162-0.14-0.213-.03-0.419-0.08-0.631-0.12-0.344-.06-0.689-0.13-1.024-0.21-0.215-.05-0.423-0.11-0.632-0.17q-0.366-.105-0.717-0.21a15.545,15.545,0,0,0-6.313-4.11,5.271,5.271,0,0,1-1.058-2.78c0.075,0.06.164,0.12,0.243,0.19C211.7,1063.23,211.946,1063.43,212.208,1063.63Zm25.209,6.84c0.152-.11.3-0.22,0.447-0.33,0.262-.2.511-0.4,0.752-0.61,0.072-.06.156-0.12,0.226-0.18q-0.008.135-.024,0.27c-0.016.13-.03,0.26-0.058,0.39s-0.068.27-.109,0.41-0.073.25-.12,0.38-0.116.26-.179,0.39a3.97,3.97,0,0,1-.182.37c-0.073.13-.158,0.25-0.242,0.38s-0.154.23-.241,0.35-0.2.24-.306,0.36a3.24,3.24,0,0,1-.292.33c-0.115.13-.242,0.24-0.367,0.36-0.111.1-.218,0.2-0.337,0.31s-0.28.22-.423,0.33c-0.127.09-.249,0.19-0.383,0.28-0.151.11-.313,0.21-0.474,0.31-0.141.09-.277,0.18-0.424,0.26-0.168.1-.345,0.19-0.52,0.28-0.155.09-.305,0.17-0.464,0.25-0.184.08-.378,0.16-0.57,0.25-0.162.07-.322,0.14-0.491,0.21-0.2.08-.415,0.15-0.625,0.23-0.169.06-.334,0.12-0.508,0.17-0.216.07-.444,0.13-0.666,0.2l-0.531.15-0.712.15c-0.18.04-.356,0.09-0.539,0.12-0.259.05-.524,0.08-0.788,0.12-0.171.03-.341,0.06-0.514,0.08-0.294.03-.6,0.06-0.895,0.08-0.15.01-.3,0.03-0.448,0.04-0.452.03-.911,0.04-1.375,0.04a21.777,21.777,0,0,1-2.431-.14c-0.239-.03-0.477-0.07-0.714-0.1-0.311-.05-0.616-0.11-0.923-0.17v-1.21a7.745,7.745,0,0,0-.078-1.07c-0.029-.22-0.081-0.44-0.13-0.66-0.02-.09-0.029-0.18-0.052-0.27,0.037,0.01.075,0.01,0.112,0.02,0.46,0.07.931,0.12,1.4,0.18,0.232,0.02.458,0.06,0.691,0.08,0.7,0.06,1.414.09,2.126,0.09,0.666,0,1.319-.03,1.963-0.08,0.208-.01.408-0.04,0.615-0.06q0.653-.06,1.286-0.15c0.23-.03.456-0.07,0.682-0.11q0.587-.1,1.153-0.24c0.221-.05.439-0.1,0.655-0.16,0.391-.1.768-0.21,1.145-0.33,0.181-.06.367-0.11,0.545-0.17,0.52-.19,1.028-0.38,1.512-0.6a0.134,0.134,0,0,0,.059-0.02c0.5-.22.981-0.47,1.444-0.73,0.148-.08.284-0.17,0.428-0.26C236.829,1070.86,237.13,1070.67,237.417,1070.47Zm0,6.51c0.152-.11.3-0.22,0.447-0.33,0.262-.2.511-0.4,0.752-0.61,0.072-.06.156-0.12,0.226-0.18q-0.008.135-.024,0.27c-0.016.13-.03,0.26-0.058,0.39s-0.068.27-.109,0.41c-0.037.12-.073,0.25-0.12,0.38s-0.116.26-.179,0.39-0.113.25-.182,0.37-0.158.25-.242,0.38c-0.079.11-.154,0.23-0.241,0.35s-0.2.24-.306,0.36-0.187.23-.292,0.33c-0.115.12-.242,0.24-0.367,0.35s-0.218.21-.337,0.31a4.381,4.381,0,0,1-.423.33c-0.127.1-.249,0.2-0.383,0.29-0.151.11-.313,0.21-0.474,0.31-0.141.09-.277,0.18-0.424,0.26-0.168.1-.345,0.19-0.52,0.28-0.155.08-.305,0.17-0.464,0.24-0.184.09-.378,0.17-0.57,0.26-0.162.07-.322,0.14-0.491,0.21-0.2.08-.415,0.15-0.625,0.22-0.169.06-.334,0.13-0.508,0.18-0.216.07-.444,0.13-0.666,0.2l-0.531.15-0.712.15-0.539.12-0.788.12c-0.171.02-.341,0.06-0.514,0.08-0.294.03-.6,0.06-0.895,0.08-0.15.01-.3,0.03-0.448,0.04-0.452.03-.911,0.04-1.375,0.04-0.819,0-1.629-.06-2.431-0.14-0.239-.03-0.477-0.07-0.714-0.1-0.311-.05-0.616-0.12-0.923-0.17v-3.17c0.114,0.02.229,0.03,0.343,0.04,0.44,0.07.882,0.12,1.326,0.16,0.184,0.02.367,0.04,0.551,0.05,0.613,0.05,1.228.08,1.848,0.08,0.666,0,1.319-.03,1.963-0.08,0.208-.01.408-0.04,0.615-0.06q0.653-.06,1.286-0.15l0.682-.12c0.391-.07.775-0.14,1.153-0.23,0.221-.05.439-0.1,0.655-0.16,0.391-.1.768-0.21,1.145-0.33,0.181-.06.367-0.11,0.545-0.17,0.52-.19,1.028-0.38,1.512-0.6,0.02-.01.04-0.01,0.059-0.02,0.5-.22.981-0.47,1.444-0.73,0.148-.08.284-0.17,0.428-0.26C236.829,1077.37,237.13,1077.18,237.417,1076.98Zm0,6.51c0.152-.11.3-0.22,0.447-0.33,0.262-.2.511-0.4,0.752-0.61,0.072-.06.156-0.12,0.226-0.18q-0.008.135-.024,0.27c-0.016.13-.03,0.26-0.058,0.39s-0.068.27-.109,0.41c-0.037.12-.073,0.25-0.12,0.37-0.052.14-.116,0.27-0.179,0.4s-0.113.24-.182,0.37-0.158.25-.242,0.38c-0.079.11-.154,0.23-0.241,0.35s-0.2.24-.306,0.36-0.187.22-.292,0.33-0.242.24-.367,0.35-0.218.21-.337,0.31c-0.133.12-.28,0.22-0.423,0.33-0.127.1-.249,0.2-0.383,0.29-0.151.11-.313,0.21-0.474,0.31-0.141.09-.277,0.18-0.424,0.26-0.168.1-.345,0.19-0.52,0.28-0.155.08-.305,0.17-0.464,0.24-0.184.09-.378,0.17-0.57,0.26-0.162.07-.322,0.14-0.491,0.21-0.2.08-.415,0.15-0.625,0.22-0.169.06-.334,0.13-0.508,0.18-0.216.07-.444,0.13-0.666,0.19-0.178.05-.351,0.11-0.531,0.15-0.233.06-.474,0.11-0.712,0.16l-0.539.12-0.788.12c-0.171.02-.341,0.05-0.514,0.08-0.294.03-.6,0.05-0.895,0.08-0.15.01-.3,0.03-0.448,0.04-0.452.03-.911,0.04-1.375,0.04a21.776,21.776,0,0,1-2.431-.15c-0.239-.02-0.477-0.06-0.714-0.09-0.311-.05-0.616-0.12-0.923-0.18v-3.16c0.114,0.02.229,0.03,0.343,0.04,0.44,0.07.882,0.12,1.326,0.16,0.184,0.02.367,0.04,0.551,0.05,0.613,0.05,1.228.08,1.848,0.08,0.666,0,1.319-.03,1.963-0.08,0.208-.01.408-0.04,0.615-0.06q0.653-.06,1.286-0.15l0.682-.12c0.391-.07.775-0.14,1.153-0.23,0.221-.05.439-0.1,0.655-0.16,0.391-.1.768-0.21,1.145-0.33,0.181-.06.367-0.11,0.545-0.18,0.52-.18,1.028-0.37,1.512-0.59,0.02-.01.04-0.01,0.059-0.02,0.5-.23.981-0.47,1.444-0.73,0.148-.08.284-0.17,0.428-0.26C236.829,1083.88,237.13,1083.69,237.417,1083.49Zm0,6.51c0.152-.11.3-0.22,0.447-0.33,0.262-.2.511-0.4,0.752-0.61,0.072-.07.156-0.12,0.226-0.18q-0.008.135-.024,0.27c-0.016.13-.03,0.26-0.058,0.39s-0.068.27-.109,0.41c-0.037.12-.073,0.25-0.12,0.37-0.052.14-.116,0.27-0.179,0.4s-0.113.24-.182,0.36-0.158.26-.242,0.38-0.154.24-.241,0.35c-0.095.13-.2,0.25-0.306,0.37s-0.187.22-.292,0.33-0.242.24-.367,0.35-0.218.21-.337,0.31c-0.133.12-.28,0.22-0.423,0.33-0.127.1-.249,0.2-0.383,0.29-0.151.11-.313,0.2-0.474,0.31-0.141.09-.277,0.17-0.424,0.26-0.168.1-.345,0.19-0.52,0.28-0.155.08-.305,0.17-0.464,0.24-0.184.09-.378,0.17-0.57,0.25-0.162.08-.322,0.15-0.491,0.22-0.2.08-.415,0.15-0.625,0.22-0.169.06-.334,0.13-0.508,0.18-0.216.07-.444,0.13-0.666,0.19-0.178.05-.351,0.11-0.531,0.15-0.233.06-.474,0.11-0.712,0.16-0.18.04-.356,0.08-0.539,0.11-0.259.05-.524,0.09-0.788,0.13-0.171.02-.341,0.05-0.514,0.07-0.294.04-.6,0.06-0.895,0.09-0.15.01-.3,0.03-0.448,0.04-0.452.03-.911,0.04-1.375,0.04a21.776,21.776,0,0,1-2.431-.15c-0.239-.02-0.477-0.06-0.714-0.1-0.311-.04-0.616-0.11-0.923-0.17v-3.16c0.114,0.02.229,0.02,0.343,0.04,0.44,0.07.882,0.12,1.326,0.16,0.184,0.02.367,0.04,0.551,0.05,0.613,0.05,1.228.08,1.848,0.08,0.666,0,1.319-.03,1.963-0.08,0.208-.01.408-0.04,0.615-0.06q0.653-.06,1.286-0.15l0.682-.12c0.391-.07.775-0.14,1.153-0.23,0.221-.05.439-0.1,0.655-0.16,0.391-.1.768-0.21,1.145-0.33,0.181-.06.367-0.12,0.545-0.18,0.52-.18,1.028-0.38,1.512-0.59,0.02-.01.04-0.01,0.059-0.02,0.5-.23.981-0.47,1.444-0.73,0.148-.08.284-0.17,0.428-0.26C236.829,1090.38,237.13,1090.19,237.417,1090Zm-19.81-.47a3.967,3.967,0,0,1-.109.41c-0.038.13-.073,0.26-0.121,0.38s-0.115.27-.179,0.4-0.113.24-.181,0.36-0.159.26-.243,0.38-0.153.24-.241,0.35c-0.094.13-.2,0.25-0.306,0.37s-0.187.22-.291,0.33-0.243.24-.368,0.35-0.218.21-.337,0.31-0.279.22-.422,0.33c-0.128.1-.25,0.19-0.383,0.29-0.151.1-.314,0.2-0.476,0.3-0.139.09-.276,0.18-0.422,0.27-0.168.1-.346,0.19-0.521,0.28-0.155.08-.305,0.16-0.464,0.24-0.184.09-.377,0.17-0.569,0.25-0.163.07-.322,0.15-0.492,0.21-0.2.08-.414,0.16-0.624,0.23-0.17.06-.334,0.12-0.508,0.18-0.216.07-.445,0.13-0.667,0.19-0.178.05-.35,0.11-0.531,0.15-0.232.06-.473,0.11-0.711,0.16-0.181.04-.356,0.08-0.54,0.11-0.259.05-.524,0.09-0.788,0.12-0.171.03-.34,0.06-0.514,0.08-0.294.04-.6,0.06-0.895,0.09-0.149.01-.3,0.03-0.448,0.04-0.451.03-.911,0.04-1.375,0.04s-0.922-.01-1.376-0.04c-0.152-.01-0.3-0.03-0.447-0.04-0.3-.03-0.6-0.05-0.895-0.09-0.174-.02-0.342-0.05-0.515-0.07-0.263-.04-0.528-0.08-0.787-0.13-0.183-.03-0.358-0.07-0.539-0.11-0.239-.05-0.48-0.1-0.715-0.16-0.18-.04-0.35-0.1-0.526-0.15-0.225-.06-0.453-0.12-0.67-0.19-0.175-.06-0.339-0.12-0.508-0.18-0.21-.07-0.422-0.14-0.625-0.23-0.17-.06-0.327-0.14-0.492-0.21-0.19-.08-0.386-0.16-0.569-0.25-0.16-.08-0.31-0.16-0.464-0.24-0.176-.09-0.353-0.18-0.521-0.28-0.146-.09-0.283-0.18-0.423-0.27-0.159-.1-0.323-0.2-0.475-0.3-0.134-.09-0.255-0.19-0.382-0.29-0.143-.11-0.291-0.22-0.424-0.33s-0.225-.2-0.336-0.31c-0.126-.11-0.252-0.23-0.368-0.35s-0.2-.22-0.29-0.33-0.211-.24-0.3-0.37c-0.087-.11-0.162-0.23-0.24-0.35s-0.17-.25-0.244-0.38-0.123-.24-0.182-0.36-0.127-.27-0.179-0.4-0.083-.25-0.121-0.38a4.237,4.237,0,0,1-.109-0.41c-0.026-.12-0.04-0.26-0.056-0.39-0.012-.09-0.018-0.17-0.025-0.27,0.07,0.07.153,0.12,0.225,0.19,0.24,0.21.491,0.41,0.753,0.61,0.147,0.11.294,0.22,0.446,0.32,0.287,0.2.587,0.39,0.9,0.58,0.143,0.08.279,0.17,0.427,0.26,0.462,0.26.941,0.5,1.444,0.73a0.112,0.112,0,0,1,.053.02c0.488,0.21,1,.41,1.519.59,0.177,0.06.363,0.11,0.545,0.17,0.374,0.12.753,0.24,1.144,0.34l0.656,0.15q0.566,0.135,1.152.24c0.225,0.04.452,0.08,0.683,0.11,0.422,0.07.852,0.11,1.285,0.16l0.613,0.06c0.649,0.05,1.3.08,1.966,0.08s1.319-.03,1.963-0.08c0.208-.01.408-0.04,0.615-0.06q0.653-.06,1.286-0.15l0.683-.12c0.39-.07.774-0.14,1.152-0.23,0.221-.05.439-0.1,0.656-0.16,0.39-.1.768-0.21,1.144-0.33,0.182-.06.368-0.12,0.545-0.18,0.52-.18,1.028-0.38,1.513-0.59,0.02-.01.039-0.01,0.059-0.02,0.5-.23.98-0.47,1.443-0.73,0.148-.08.285-0.17,0.428-0.26,0.307-.19.608-0.37,0.9-0.57,0.153-.11.3-0.22,0.448-0.33,0.261-.2.51-0.4,0.751-0.61,0.072-.06.156-0.12,0.226-0.18q-0.006.135-.024,0.27C217.648,1089.27,217.633,1089.41,217.607,1089.53Zm-32.122-5.93c-0.65.06-1.3,0.11-1.944,0.11a19.09,19.09,0,0,1-2.276-.14c-0.24-.03-0.478-0.08-0.716-0.11-0.508-.08-1.009-0.17-1.5-0.29q-0.405-.09-0.805-0.21c-0.473-.13-0.936-0.29-1.4-0.46-0.244-.09-0.493-0.17-0.734-0.26a19.009,19.009,0,0,1-1.9-.91c-0.188-.1-0.366-0.22-0.551-0.33-0.451-.27-0.9-0.55-1.326-0.85-0.217-.15-0.425-0.31-0.635-0.47-0.418-.33-0.825-0.66-1.219-1.02-0.15-.13-0.3-0.27-0.447-0.41-0.331-.32-0.635-0.67-0.945-1.01l5.029-5.52a2.752,2.752,0,0,1,2.405-.99c0.075,0.02.149,0.03,0.224,0.05,0.246,0.2.775,0.68,1.136,1.01a19.487,19.487,0,0,0,1.935,1.66,5.12,5.12,0,0,0,3.139,2.74,6.163,6.163,0,0,0,3.839-.28v7.49c-0.177.03-.35,0.07-0.526,0.09C186.008,1083.53,185.745,1083.57,185.485,1083.6Zm-21.379-21.2c0.013-.15.031-0.3,0.048-0.45,0.058-.51.134-1.02,0.233-1.52,0.014-.08.024-0.16,0.039-0.23,0.121-.58.269-1.14,0.439-1.7,0.035-.12.077-0.23,0.115-0.35,0.141-.43.3-0.86,0.469-1.28,0.063-.15.125-0.31,0.192-0.46,0.193-.45.4-0.88,0.626-1.3,0.117-.22.243-0.44,0.368-0.65,0.137-.24.278-0.47,0.425-0.7,0-.01.008-0.01,0.011-0.02l4.695,5.16a6.049,6.049,0,0,0,4.393,2.03,5.551,5.551,0,0,0,1.72-.3,3.892,3.892,0,0,0,1.606-1.33c0.807-.95,1.451-1.62,2.429-1.62a6.479,6.479,0,0,1,4.376,1.7l1.741,1.79,0.817-2.31a7.084,7.084,0,0,1,3.349-1.25,12.48,12.48,0,0,1-.238,9.75c-0.112.07-.226,0.14-0.335,0.22-0.2.13-.386,0.28-0.576,0.42-0.167.12-.336,0.25-0.493,0.38-0.18.15-.347,0.3-0.516,0.46-0.147.13-.3,0.26-0.434,0.4-0.161.17-.3,0.34-0.453,0.51-0.125.14-.257,0.28-0.373,0.42-0.139.18-.26,0.36-0.385,0.55-0.1.14-.213,0.29-0.306,0.44-0.119.19-.217,0.39-0.319,0.59-0.006.01-.013,0.03-0.019,0.04-1.619,1.06-3.032,1.53-3.888,1.27a2.042,2.042,0,0,1-1.308-1.44l-0.373-.88-0.654-.07c-0.343-.26-1.016-0.88-1.44-1.27a7.41,7.41,0,0,0-2.156-1.66,6.363,6.363,0,0,0-.848-0.21,5.907,5.907,0,0,0-5.371,2l-4.641,5.1c0-.01-0.008-0.01-0.011-0.02-0.135-.21-0.267-0.43-0.4-0.65-0.143-.24-0.283-0.49-0.415-0.73-0.216-.41-0.419-0.83-0.6-1.26-0.07-.16-0.132-0.32-0.2-0.48-0.167-.41-0.324-0.83-0.464-1.26-0.038-.12-0.081-0.24-0.118-0.36-0.17-.56-0.318-1.12-0.439-1.7-0.015-.07-0.025-0.15-0.039-0.23-0.1-.5-0.175-1.01-0.233-1.52-0.017-.15-0.035-0.3-0.048-0.45-0.053-.58-0.091-1.18-0.091-1.78S164.053,1062.99,164.106,1062.4Zm26.948,20.76c0.147,0.11.293,0.22,0.447,0.32,0.286,0.21.586,0.39,0.9,0.58,0.143,0.09.28,0.18,0.428,0.26,0.462,0.26.941,0.5,1.443,0.73a0.119,0.119,0,0,1,.054.02c0.488,0.22,1,.41,1.518.59,0.177,0.06.363,0.12,0.545,0.17,0.374,0.12.754,0.24,1.144,0.34,0.217,0.06.434,0.11,0.656,0.16,0.377,0.08.761,0.16,1.152,0.23,0.226,0.04.453,0.08,0.683,0.11,0.422,0.07.851,0.12,1.286,0.16l0.613,0.06c0.645,0.05,1.3.08,1.962,0.08s1.319-.03,1.963-0.08c0.208-.01.408-0.04,0.615-0.06q0.653-.06,1.286-0.15l0.683-.12c0.39-.07.774-0.14,1.152-0.23,0.221-.05.439-0.1,0.656-0.16,0.39-.1.768-0.21,1.144-0.33,0.182-.06.368-0.11,0.545-0.18,0.52-.18,1.028-0.37,1.513-0.59,0.02-.01.039-0.01,0.059-0.02,0.5-.23.98-0.47,1.443-0.73,0.148-.08.285-0.17,0.428-0.26,0.307-.18.608-0.37,0.9-0.57,0.153-.11.3-0.22,0.448-0.33,0.261-.2.51-0.4,0.751-0.61,0.072-.06.156-0.12,0.226-0.18q-0.006.135-.024,0.27c-0.016.13-.029,0.26-0.057,0.39s-0.068.27-.109,0.41c-0.038.12-.073,0.25-0.121,0.38s-0.115.26-.179,0.39-0.113.25-.181,0.37-0.159.25-.243,0.38c-0.078.11-.153,0.23-0.241,0.35s-0.2.24-.306,0.36-0.187.23-.291,0.33c-0.116.12-.243,0.24-0.368,0.36-0.11.1-.218,0.2-0.337,0.3a4.369,4.369,0,0,1-.422.33c-0.128.1-.25,0.2-0.383,0.29-0.151.11-.314,0.21-0.476,0.31-0.139.09-.276,0.18-0.422,0.26-0.168.1-.346,0.19-0.521,0.28a4.644,4.644,0,0,1-.464.24c-0.184.09-.377,0.17-0.569,0.26-0.163.07-.322,0.14-0.492,0.21-0.2.08-.414,0.15-0.624,0.22-0.17.06-.334,0.13-0.508,0.18-0.216.07-.445,0.13-0.667,0.2-0.178.05-.35,0.1-0.531,0.15-0.232.05-.473,0.1-0.711,0.15l-0.54.12-0.788.12c-0.171.03-.34,0.06-0.514,0.08-0.294.03-.6,0.06-0.895,0.08-0.149.01-.3,0.03-0.448,0.04-0.451.03-.911,0.04-1.375,0.04s-0.922-.01-1.376-0.04c-0.152-.01-0.3-0.03-0.447-0.04-0.3-.03-0.6-0.05-0.895-0.08-0.174-.03-0.342-0.06-0.515-0.08l-0.787-.12-0.539-.12c-0.239-.05-0.48-0.1-0.715-0.16-0.18-.04-0.35-0.1-0.526-0.15-0.225-.06-0.453-0.12-0.67-0.19-0.175-.05-0.339-0.12-0.508-0.18-0.21-.07-0.422-0.14-0.625-0.22-0.17-.07-0.327-0.15-0.492-0.22-0.19-.08-0.386-0.16-0.569-0.25-0.16-.07-0.31-0.16-0.464-0.24-0.176-.09-0.353-0.18-0.521-0.28-0.146-.08-0.283-0.18-0.423-0.26-0.159-.11-0.323-0.2-0.475-0.31-0.134-.09-0.255-0.19-0.382-0.29-0.143-.11-0.291-0.22-0.424-0.33s-0.225-.2-0.336-0.31c-0.126-.11-0.252-0.23-0.368-0.35s-0.2-.22-0.29-0.33-0.211-.24-0.3-0.37c-0.087-.11-0.162-0.23-0.24-0.34-0.085-.13-0.17-0.26-0.244-0.39s-0.123-.24-0.182-0.36-0.127-.26-0.179-0.4c-0.047-.12-0.083-0.25-0.121-0.38s-0.081-.27-0.109-0.4-0.04-.26-0.056-0.39c-0.012-.09-0.018-0.18-0.025-0.27,0.07,0.06.153,0.12,0.225,0.18C190.542,1082.76,190.793,1082.96,191.054,1083.16Zm10.7-18.88c-0.3.02-.6,0.05-0.891,0.09-0.264.03-.528,0.06-0.788,0.1-0.289.04-.575,0.09-0.858,0.14-0.253.05-.508,0.09-0.756,0.15-0.278.06-.55,0.12-0.82,0.19-0.243.07-.485,0.13-0.721,0.2-0.266.07-.524,0.16-0.782,0.24l-0.085.03a16.653,16.653,0,0,0-1.3-10.11l-0.319-.62-0.67-.2c-1.4-.41-4.615.19-6.527,1.52a9.714,9.714,0,0,0-5.32-1.59c-2.559,0-4.09,1.81-4.911,2.78-0.133.15-.245,0.3-0.354,0.41a3.136,3.136,0,0,1-.542.07,2.75,2.75,0,0,1-1.935-.98l-5.08-5.57c0.309-.34.612-0.69,0.942-1.01,0.145-.14.3-0.27,0.448-0.41,0.392-.35.8-0.69,1.218-1.01,0.21-.16.419-0.33,0.635-0.48,0.429-.3.874-0.58,1.327-0.85,0.185-.1.362-0.23,0.551-0.33a18.932,18.932,0,0,1,1.9-.9c0.239-.1.488-0.18,0.734-0.27,0.458-.17.922-0.32,1.394-0.46l0.806-.21c0.5-.11,1-0.21,1.5-0.29,0.239-.03.475-0.08,0.716-0.11a18.562,18.562,0,0,1,4.551,0c0.241,0.03.478,0.08,0.716,0.11,0.508,0.08,1.009.18,1.5,0.29l0.805,0.21c0.472,0.14.937,0.29,1.4,0.46,0.244,0.09.494,0.17,0.734,0.27a16.965,16.965,0,0,1,1.9.9c0.189,0.1.366,0.23,0.552,0.33,0.45,0.27.9,0.55,1.326,0.85,0.216,0.15.424,0.32,0.635,0.48,0.418,0.32.824,0.66,1.218,1.01,0.15,0.14.3,0.27,0.448,0.41a19.94,19.94,0,0,1,2.974,3.64,19.4,19.4,0,0,1,3.043,10.43v0.01c-0.169,0-.332.02-0.5,0.03C202.293,1064.24,202.023,1064.26,201.753,1064.28Zm-34.483,15.83c0.02,0.02.046,0.04,0.068,0.06a21.533,21.533,0,0,0,1.793,1.64c0.221,0.18.458,0.34,0.685,0.51,0.415,0.32.831,0.63,1.268,0.92,0.3,0.19.613,0.38,0.926,0.56,0.39,0.23.786,0.45,1.192,0.66,0.33,0.17.66,0.33,1,.48,0.42,0.19.848,0.36,1.281,0.53,0.333,0.12.665,0.25,1,.36,0.481,0.16.974,0.29,1.468,0.41,0.306,0.08.6,0.17,0.914,0.24a23.364,23.364,0,0,0,2.381.37c0.267,0.03.539,0.02,0.808,0.04,0.493,0.03.984,0.08,1.486,0.08,0.079,0,.16-0.02.24-0.02,0.451,0,.905-0.05,1.359-0.08,0.423-.03.844-0.05,1.272-0.11,0.128-.02.257-0.01,0.386-0.03v13.26H177a10.6,10.6,0,0,0-9.732-9.74v-10.14h0Zm55.325-59.86v24.53q-0.828.075-1.628,0.21v-24.74H222.6Zm-4.882,0v25.49c-0.562.17-1.1,0.36-1.628,0.57v-26.06h1.628Zm-4.882,0v27.76a14.557,14.557,0,0,0-1.627,1.29v-29.05h1.627Zm-53.7,87.87v-87.87h48.815v44.26h0c-0.534-.08-1.076-0.15-1.629-0.2,0-.04.006-0.08,0.006-0.12a22.633,22.633,0,0,0-3.254-11.68V1034.7l-1.777.16c-0.219.02-.439,0.04-0.664,0.04a7.336,7.336,0,0,1-7.322-7.33c0-.22.016-0.44,0.033-0.67l0.159-1.77h-19.91l0.157,1.77c0.018,0.23.034,0.45,0.034,0.67a7.336,7.336,0,0,1-7.322,7.33c-0.225,0-.444-0.02-0.664-0.04l-1.777-.16v17.81a0.8,0.8,0,0,1-.067.11c-0.216.37-.428,0.73-0.625,1.11-0.252.48-.491,0.97-0.705,1.46-0.081.19-.145,0.38-0.22,0.56-0.191.47-.368,0.95-0.524,1.43-0.065.2-.124,0.41-0.184,0.61-0.14.48-.265,0.96-0.373,1.45-0.048.22-.1,0.44-0.136,0.65-0.1.51-.172,1.02-0.233,1.53-0.024.2-.057,0.4-0.077,0.61-0.068.71-.111,1.43-0.111,2.16s0.043,1.44.11,2.15c0.019,0.21.052,0.41,0.077,0.61,0.061,0.52.136,1.02,0.232,1.53,0.042,0.22.09,0.43,0.137,0.65,0.107,0.49.233,0.97,0.372,1.45,0.06,0.2.119,0.41,0.184,0.61,0.156,0.49.335,0.96,0.524,1.43,0.075,0.19.14,0.38,0.22,0.56,0.214,0.49.455,0.98,0.706,1.46,0.195,0.38.409,0.75,0.625,1.11,0.024,0.04.047,0.07,0.068,0.11v17.81l1.777-.16c0.22-.02.439-0.03,0.664-0.03a7.327,7.327,0,0,1,7.322,7.32c0,0.22-.016.45-0.034,0.67l-0.157,1.77h13.385c0.029,0.14.065,0.27,0.1,0.41,0.042,0.16.086,0.32,0.14,0.48,0.044,0.14.095,0.26,0.146,0.39a10.006,10.006,0,0,0,2.426,3.6H159.134Zm36.408-.08c-0.162-.07-0.322-0.15-0.478-0.22-0.223-.11-0.444-0.23-0.656-0.34-0.142-.09-0.274-0.17-0.408-0.25a12.676,12.676,0,0,1-1.07-.73c-0.112-.09-0.234-0.17-0.339-0.26-0.15-.13-0.284-0.26-0.422-0.39s-0.26-.24-0.379-0.37-0.223-.24-0.329-0.37c-0.124-.15-0.239-0.3-0.347-0.45-0.079-.11-0.16-0.23-0.233-0.34a5.6,5.6,0,0,1-.326-0.61c-0.036-.07-0.08-0.15-0.111-0.22a5.511,5.511,0,0,1-.277-0.87c-0.016-.07-0.019-0.15-0.032-0.23a4.525,4.525,0,0,1-.052-0.49c0.068,0.06.15,0.11,0.22,0.17,0.24,0.21.491,0.42,0.753,0.61a5.226,5.226,0,0,0,.446.33c0.286,0.2.587,0.39,0.9,0.58,0.143,0.08.279,0.17,0.428,0.25a16.092,16.092,0,0,0,1.443.73,0.12,0.12,0,0,0,.053.02c0.488,0.22,1,.42,1.519.6,0.177,0.06.363,0.11,0.545,0.17,0.374,0.12.753,0.23,1.143,0.34l0.656,0.15q0.567,0.135,1.152.24c0.226,0.04.453,0.08,0.684,0.11,0.421,0.06.851,0.11,1.286,0.15,0.2,0.02.406,0.05,0.613,0.06,0.643,0.05,1.3.08,1.96,0.08s1.319-.03,1.963-0.07l0.615-.06c0.435-.05.864-0.09,1.286-0.16,0.231-.03.457-0.07,0.683-0.11,0.39-.07.774-0.15,1.152-0.23,0.221-.05.439-0.1,0.656-0.16,0.39-.1.768-0.22,1.144-0.34,0.182-.06.368-0.11,0.545-0.17,0.52-.18,1.028-0.38,1.513-0.59a0.138,0.138,0,0,1,.059-0.02c0.5-.23.98-0.47,1.443-0.73,0.148-.09.285-0.18,0.428-0.26,0.307-.19.608-0.38,0.9-0.57,0.153-.11.3-0.22,0.448-0.33,0.261-.2.51-0.4,0.751-0.61,0.07-.06.151-0.12,0.22-0.18a4.644,4.644,0,0,1-.054.51c-0.006.04-.01,0.08-0.018,0.12a5.26,5.26,0,0,1-.279.89l0,0.01a7.562,7.562,0,0,1-2.4,3c-0.032.03-.065,0.05-0.1,0.08a12.564,12.564,0,0,1-1.114.75c-0.08.05-.153,0.1-0.236,0.15l-0.034.02a19.649,19.649,0,0,1-9.564,2.32A20.445,20.445,0,0,1,195.542,1108.04Zm29.493,1.71a20.819,20.819,0,0,1-7.413-1.31,10.929,10.929,0,0,0,2.1-2.5c0.029,0,.058.01,0.088,0.01,0.751,0.16,1.518.28,2.292,0.37,0.172,0.02.342,0.03,0.513,0.05,0.8,0.07,1.6.12,2.416,0.12,0.666,0,1.319-.03,1.963-0.07l0.615-.06c0.435-.05.864-0.09,1.286-0.16,0.23-.03.456-0.07,0.682-0.11,0.391-.07.775-0.15,1.153-0.23,0.221-.05.439-0.1,0.655-0.16,0.391-.1.768-0.22,1.145-0.34,0.181-.06.367-0.11,0.545-0.17,0.52-.18,1.028-0.38,1.512-0.59a0.143,0.143,0,0,1,.059-0.02c0.5-.23.981-0.47,1.444-0.73,0.148-.09.284-0.18,0.428-0.26,0.307-.19.608-0.38,0.9-0.57,0.152-.11.3-0.22,0.447-0.33,0.262-.2.511-0.4,0.752-0.61,0.078-.07.167-0.13,0.242-0.2C238.611,1106.17,232.382,1109.75,225.035,1109.75Z" transform="translate(-155.875 -1017)"/>
</svg>
