<svg xmlns="http://www.w3.org/2000/svg" width="95.969" height="95.24" viewBox="0 0 95.969 95.24">
  <metadata><?xpacket begin="﻿" id="W5M0MpCehiHzreSzNTczkc9d"?>
<x:xmpmeta xmlns:x="adobe:ns:meta/" x:xmptk="Adobe XMP Core 5.6-c138 79.159824, 2016/09/14-01:09:01        ">
   <rdf:RDF xmlns:rdf="http://www.w3.org/1999/02/22-rdf-syntax-ns#">
      <rdf:Description rdf:about=""/>
   </rdf:RDF>
</x:xmpmeta>
                                                                                                    
                                                                                                    
                                                                                                    
                                                                                                    
                                                                                                    
                                                                                                    
                                                                                                    
                                                                                                    
                                                                                                    
                                                                                                    
                                                                                                    
                                                                                                    
                                                                                                    
                                                                                                    
                                                                                                    
                                                                                                    
                                                                                                    
                                                                                                    
                                                                                                    
                                                                                                    
                           
<?xpacket end="w"?></metadata>
<defs>
    <style>
      .cls-1 {
        fill: #fff;
        fill-rule: evenodd;
      }
    </style>
  </defs>
  <path id="discover_big_icon" class="cls-1" d="M582.273,1046.99l-17.91-13.02a1.483,1.483,0,0,0-1.742,2.4l17.91,13.02a1.427,1.427,0,0,0,.87.29A1.486,1.486,0,0,0,582.273,1046.99Zm-44.115-7.12a1.478,1.478,0,0,0-1.7-1.23l-21.86,3.47a1.484,1.484,0,0,0,.23,2.95,0.93,0.93,0,0,0,.234-0.02l21.86-3.47A1.485,1.485,0,0,0,538.158,1039.87Zm59.222,2.46-33.262-24.18a1.5,1.5,0,0,0-1.1-.27,1.478,1.478,0,0,0-.967.6l-14.506,20-2-12.6a1.48,1.48,0,0,0-.593-0.97,1.5,1.5,0,0,0-1.1-.27l-40.6,6.45a1.485,1.485,0,0,0-1.231,1.7l7.928,50.03a1.475,1.475,0,0,0,1.464,1.25,1.816,1.816,0,0,0,.232-0.02l9.329-1.48v15.92a1.48,1.48,0,0,0,1.482,1.48h41.105a1.48,1.48,0,0,0,1.483-1.48v-4.18a18.871,18.871,0,0,0,2.868-2.03l3.694,3.7-1.188,1.19a1.488,1.488,0,0,0,0,2.1l13.415,13.43a1.492,1.492,0,0,0,2.1,0l4.472-4.48a1.478,1.478,0,0,0,.434-1.05,1.5,1.5,0,0,0-.434-1.05l-13.415-13.43a1.493,1.493,0,0,0-2.1,0l-1.188,1.19-3.692-3.7a18.752,18.752,0,0,0,4.52-12.27c0-.48-0.02-0.98-0.059-1.47l23.238-32.04A1.481,1.481,0,0,0,597.38,1042.33Zm-21.443,53.51,11.319,11.33-2.375,2.38-11.319-11.33Zm-54.963-48v6.08l-4.389.7a1.484,1.484,0,0,0,.231,2.95,1.879,1.879,0,0,0,.234-0.02l3.924-.62v9.81l-2.407.38a1.484,1.484,0,0,0,.23,2.95,0.926,0.926,0,0,0,.234-0.02l1.943-.3v9.81l-8.33,1.33-7.464-47.1,37.67-5.98,2.229,14.06-3.25,4.48H522.456A1.488,1.488,0,0,0,520.974,1047.84Zm41.1,49.17H523.938v-47.69h38.141v10.82a18.818,18.818,0,0,0-6.423-1.12c-0.414,0-.826.01-1.236,0.04a1.314,1.314,0,0,0-.345-0.04H531.941a1.485,1.485,0,0,0,0,2.97H545.5a18.9,18.9,0,0,0-7.661,9.69h-5.9a1.485,1.485,0,0,0,0,2.97h5.126a18.919,18.919,0,0,0-.284,3.26,18.71,18.71,0,0,0,1.122,6.43h-5.963a1.485,1.485,0,0,0,0,2.97h7.341a18.887,18.887,0,0,0,22.8,8.38v1.32h0Zm4.827-7.83h0a15.906,15.906,0,0,1-25.423-4.03h0a15.77,15.77,0,0,1-1.733-7.24,15.919,15.919,0,0,1,15.909-15.92,15.883,15.883,0,0,1,15.814,14.19h0a16.316,16.316,0,0,1,.094,1.73A15.846,15.846,0,0,1,566.906,1089.18Zm6.814-16.76a18.839,18.839,0,0,0-8.676-10.9v-7.74l8.057,5.86a1.482,1.482,0,0,0,1.741-2.4l-9.8-7.12v-2.28a1.488,1.488,0,0,0-1.483-1.49h-3.693l-2.936-2.13a1.481,1.481,0,0,0-2.022,2.13h-9.418l2.346-3.23h0l15.737-21.7,30.864,22.44Zm-18.063-7.07a12.565,12.565,0,1,0,12.548,12.56A12.573,12.573,0,0,0,555.657,1065.35Zm0,22.16a9.6,9.6,0,1,1,9.584-9.6A9.606,9.606,0,0,1,555.657,1087.51Zm4.209-9.85a1.48,1.48,0,0,0-2.1,0l-3.952,3.95a1.484,1.484,0,1,0,2.1,2.1l3.952-3.96A1.474,1.474,0,0,0,559.866,1077.66Zm-1.581-6.34a1.48,1.48,0,0,0-2.1,0l-4.347,4.36a1.487,1.487,0,0,0,0,2.1,1.513,1.513,0,0,0,1.047.43,1.471,1.471,0,0,0,1.049-.43l4.347-4.36A1.487,1.487,0,0,0,558.285,1071.32Z" transform="translate(-502.031 -1017.88)"/>
</svg>
