<svg xmlns="http://www.w3.org/2000/svg" width="96" height="96" viewBox="0 0 96 96">
  <metadata><?xpacket begin="﻿" id="W5M0MpCehiHzreSzNTczkc9d"?>
<x:xmpmeta xmlns:x="adobe:ns:meta/" x:xmptk="Adobe XMP Core 5.6-c138 79.159824, 2016/09/14-01:09:01        ">
   <rdf:RDF xmlns:rdf="http://www.w3.org/1999/02/22-rdf-syntax-ns#">
      <rdf:Description rdf:about=""/>
   </rdf:RDF>
</x:xmpmeta>
                                                                                                    
                                                                                                    
                                                                                                    
                                                                                                    
                                                                                                    
                                                                                                    
                                                                                                    
                                                                                                    
                                                                                                    
                                                                                                    
                                                                                                    
                                                                                                    
                                                                                                    
                                                                                                    
                                                                                                    
                                                                                                    
                                                                                                    
                                                                                                    
                                                                                                    
                                                                                                    
                           
<?xpacket end="w"?></metadata>
<defs>
    <style>
      .cls-1 {
        fill: #fff;
        fill-rule: evenodd;
      }
    </style>
  </defs>
  <path id="event_big_icon" class="cls-1" d="M592.276,632.783l-9.1,13.083-6.427-5.274a1.626,1.626,0,1,0-2.063,2.515l7.788,6.393a1.625,1.625,0,0,0,1.032.371,1.517,1.517,0,0,0,.222-0.016,1.627,1.627,0,0,0,1.113-.682l10.112-14.529A1.628,1.628,0,0,0,592.276,632.783Zm1.336-9.681V575.134a1.627,1.627,0,0,0-1.627-1.628h-8.137v-4.881A1.626,1.626,0,0,0,582.222,567h-11.39a1.627,1.627,0,0,0-1.628,1.627v4.881h-35.8v-4.881A1.626,1.626,0,0,0,531.779,567H520.388a1.626,1.626,0,0,0-1.627,1.627v4.881h-8.136A1.627,1.627,0,0,0,509,575.134V658.12a1.626,1.626,0,0,0,1.627,1.628h62A21.132,21.132,0,1,0,593.612,623.1Zm-21.154-52.85h8.136v9.763h-8.136v-9.763Zm-50.442,0h8.135v9.763h-8.135v-9.763Zm-9.764,6.509h6.509v4.881a1.627,1.627,0,0,0,1.627,1.628h11.391a1.626,1.626,0,0,0,1.626-1.628v-4.881h35.8v4.881a1.628,1.628,0,0,0,1.628,1.628h11.39a1.626,1.626,0,0,0,1.626-1.628v-4.881h6.51v13.017H512.252V576.761Zm0,79.732v-63.46h78.106v28.7c-0.32-.1-0.645-0.185-0.97-0.275-0.3-.083-0.6-0.164-0.907-0.234-0.275-.062-0.553-0.116-0.831-0.166q-0.6-.109-1.2-0.184c-0.223-.028-0.444-0.059-0.669-0.079-0.641-.058-1.287-0.1-1.937-0.1-0.549,0-1.087.041-1.626,0.083V601.169H520.388v47.189H563.73c0.047,0.143.106,0.281,0.155,0.422,0.136,0.4.272,0.793,0.433,1.179,0.089,0.216.194,0.423,0.292,0.635,0.188,0.413.378,0.825,0.591,1.225,0.094,0.174.2,0.341,0.3,0.514,0.241,0.421.485,0.838,0.756,1.242,0.1,0.147.208,0.288,0.31,0.434,0.287,0.407.58,0.81,0.9,1.2,0.118,0.142.245,0.276,0.366,0.416,0.251,0.293.493,0.593,0.761,0.872H512.252v0ZM574.6,622.856c-0.176.085-.355,0.164-0.528,0.254-0.305.16-.6,0.335-0.9,0.509-0.259.152-.518,0.306-0.77,0.468s-0.5.334-.752,0.51c-0.281.2-.555,0.407-0.826,0.619-0.219.17-.437,0.34-0.646,0.521-0.285.24-.557,0.5-0.829,0.751-0.187.177-.381,0.348-0.561,0.531-0.295.3-.573,0.616-0.85,0.934-0.117.134-.245,0.258-0.361,0.4v-9.282h11.39v2.216c-0.027.007-.053,0.017-0.079,0.023A21,21,0,0,0,574.6,622.856Zm-10.972,12.808c-0.057.187-.1,0.379-0.147,0.567-0.13.473-.264,0.945-0.361,1.431-0.076.376-.119,0.76-0.174,1.141-0.044.307-.105,0.61-0.138,0.922-0.07.7-.108,1.411-0.108,2.124,0,0.587.033,1.181,0.086,1.777,0.01,0.109.01,0.219,0.022,0.328,0.026,0.264.078,0.519,0.114,0.78h0c0.017,0.124.024,0.246,0.044,0.368H552.932v-11.39h11.391v0.012c-0.017.038-.027,0.079-0.043,0.118C564.036,634.437,563.813,635.044,563.623,635.664Zm-39.981-1.951h11.391V645.1H523.642v-11.39Zm0-14.645h11.391v11.39H523.642v-11.39Zm55.325-3.254h-11.39V604.423h11.39v11.391Zm-14.644,0H552.932V604.423h11.391v11.391Zm0,14.644H552.932v-11.39h11.391v11.39Zm-26.036-11.39h11.391v11.39H538.287v-11.39Zm11.391-3.254H538.287V604.423h11.391v11.391Zm-14.645,0H523.642V604.423h11.391v11.391Zm3.254,17.9h11.391V645.1H538.287v-11.39Zm45.561,26.035a17.785,17.785,0,0,1-9.936-3.023,18.048,18.048,0,0,1-1.583-1.2c-0.175-.15-0.341-0.309-0.51-0.465q-0.481-.437-0.928-0.9c-0.19-.2-0.374-0.4-0.554-0.61-0.267-.308-0.518-0.625-0.762-0.949-0.156-.206-0.317-0.406-0.466-0.62a18.242,18.242,0,0,1-1-1.616c-0.07-.13-0.126-0.267-0.192-0.4-0.237-.466-0.459-0.937-0.656-1.422-0.084-.212-0.158-0.428-0.236-0.643-0.153-.427-0.293-0.859-0.415-1.3-0.028-.1-0.051-0.2-0.078-0.3a18.58,18.58,0,0,1-.415-2.134c-0.006-.051-0.016-0.1-0.023-0.153a17,17,0,0,1-.144-2.166,17.787,17.787,0,0,1,.094-1.836c0-.05.018-0.1,0.023-0.15,0.062-.554.142-1.107,0.257-1.653,0.011-.052.029-0.1,0.04-0.154,0.117-.54.256-1.078,0.424-1.608,0.019-.061.047-0.122,0.066-0.184,0.168-.507.354-1.012,0.569-1.507,0.2-.465.419-0.922,0.659-1.366l0.16-.279c0.066-.117.142-0.228,0.21-0.343q0.426-.716.906-1.385c0.08-.111.163-0.219,0.247-0.329q0.438-.58.924-1.119c0.112-.125.224-0.252,0.34-0.374,0.319-.338.654-0.659,1-0.97,0.122-.111.241-0.224,0.366-0.332,0.4-.345.822-0.669,1.253-0.976,0.069-.049.133-0.1,0.2-0.152a17.788,17.788,0,0,1,7.179-2.912l0.034,0a17.785,17.785,0,0,1,2.948-.265,17.438,17.438,0,0,1,1.888.1c0.1,0.01.192,0.032,0.29,0.044,0.533,0.067,1.065.147,1.591,0.261,0.065,0.014.128,0.034,0.191,0.048,0.559,0.128,1.115.278,1.662,0.462l0.111,0.041c0.562,0.192,1.115.412,1.663,0.661A17.887,17.887,0,0,1,583.848,659.748Z" transform="translate(-509 -567)"/>
</svg>
