<svg xmlns="http://www.w3.org/2000/svg" width="96" height="74.969" viewBox="0 0 96 74.969">
  <metadata><?xpacket begin="﻿" id="W5M0MpCehiHzreSzNTczkc9d"?>
<x:xmpmeta xmlns:x="adobe:ns:meta/" x:xmptk="Adobe XMP Core 5.6-c138 79.159824, 2016/09/14-01:09:01        ">
   <rdf:RDF xmlns:rdf="http://www.w3.org/1999/02/22-rdf-syntax-ns#">
      <rdf:Description rdf:about=""/>
   </rdf:RDF>
</x:xmpmeta>
                                                                                                    
                                                                                                    
                                                                                                    
                                                                                                    
                                                                                                    
                                                                                                    
                                                                                                    
                                                                                                    
                                                                                                    
                                                                                                    
                                                                                                    
                                                                                                    
                                                                                                    
                                                                                                    
                                                                                                    
                                                                                                    
                                                                                                    
                                                                                                    
                                                                                                    
                                                                                                    
                           
<?xpacket end="w"?></metadata>
<defs>
    <style>
      .cls-1 {
        fill: #fff;
        fill-rule: evenodd;
      }
    </style>
  </defs>
  <path id="news_big_icon" class="cls-1" d="M245.125,623.445a4.028,4.028,0,0,0-4.128.394l-26.569,16.7a1.58,1.58,0,1,0,1.686,2.673l26.568-16.7a0.656,0.656,0,1,1,1.145.631,6.952,6.952,0,0,1-2.83,5.12l-25.757,16.19c-1.37.861-2.622,1.1-3.436,0.65s-1.279-1.632-1.279-3.248a15.463,15.463,0,0,1,6.4-11.575l29.327-18.435a1.579,1.579,0,0,0,0-2.674L189.9,577.748a1.585,1.585,0,0,0-1.687,0l-29.683,18.66a17.622,17.622,0,0,0-7.523,13.6v0.842a17.622,17.622,0,0,0,7.523,13.6l44.15,27.754a1.58,1.58,0,1,0,1.686-2.673l-44.15-27.754a14.6,14.6,0,0,1-6.044-10.929v-0.842a14.6,14.6,0,0,1,6.044-10.931l28.841-18.129,53.382,33.557-27.2,17.1a18.46,18.46,0,0,0-7.88,14.248c0,2.842,1.035,4.978,2.915,6.014a5.062,5.062,0,0,0,2.47.622,7.963,7.963,0,0,0,4.181-1.364l25.756-16.191a10.1,10.1,0,0,0,4.31-7.793A4.013,4.013,0,0,0,245.125,623.445Zm-19.511-7.357a1.58,1.58,0,0,0,.845-2.917L189.9,590.191a1.58,1.58,0,1,0-1.687,2.673l36.558,22.981A1.582,1.582,0,0,0,225.614,616.088Zm-6.325,4.191a1.579,1.579,0,0,0,.842-2.918l-15.445-9.667a1.58,1.58,0,1,0-1.68,2.677l15.444,9.667A1.578,1.578,0,0,0,219.289,620.279Zm-21.048-8.428a1.58,1.58,0,1,0-1.676,2.68l15.562,9.7a1.58,1.58,0,1,0,1.676-2.68Zm-16.6-17.526-13.148,8.266a1.579,1.579,0,0,0,.007,2.678L184.181,615a1.583,1.583,0,0,0,1.693-.015l3.493-2.253a1.58,1.58,0,1,0-1.717-2.653L185,611.79l-12.682-7.871,10.167-6.393,12.5,7.823-1.457.94a1.58,1.58,0,1,0,1.717,2.653l3.544-2.287a1.576,1.576,0,0,0-.019-2.664l-15.445-9.668A1.581,1.581,0,0,0,181.64,594.325Zm26.343,33.591a1.576,1.576,0,0,0-.508-2.175l-15.681-9.733a1.58,1.58,0,1,0-1.671,2.682l15.682,9.733A1.581,1.581,0,0,0,207.983,627.916ZM162.3,607.7a1.577,1.577,0,0,0,.507,2.175l38.7,24.024a1.581,1.581,0,1,0,1.672-2.683l-38.7-24.024A1.583,1.583,0,0,0,162.3,607.7Z" transform="translate(-151 -577.531)"/>
</svg>
