<?xml version="1.0" encoding="utf-8"?>
<!-- Generator: Adobe Illustrator 21.0.2, SVG Export Plug-In . SVG Version: 6.00 Build 0)  -->
<svg version="1.1" id="logo" xmlns="http://www.w3.org/2000/svg" xmlns:xlink="http://www.w3.org/1999/xlink" x="0px" y="0px"
	 viewBox="0 0 99.7 99.7" style="enable-background:new 0 0 99.7 99.7;" xml:space="preserve">
<style type="text/css">
	.st0{fill:#CF2A39;}
	.st1{fill:url(#Rounded_Rectangle_1_copy_1_);}
	.st2{fill:url(#Rounded_Rectangle_1_copy_2-2_1_);}
	.st3{fill:url(#Rounded_Rectangle_1_copy_3-2_1_);}
	.st4{fill:url(#Rounded_Rectangle_1_copy_3-4_1_);}
</style>
<path id="Rounded_Rectangle_1" class="st0" d="M37.7,53.6L21.6,69.7c-2.1,2.1-5.4,2.1-7.5,0c-2.1-2.1-2.1-5.4,0-7.5l12.4-12.4
	L1.5,24.9c-2.1-2.1-2.1-5.4,0-7.5c2.1-2.1,5.4-2.1,7.5,0l28.7,28.7C39.8,48.2,39.8,51.5,37.7,53.6z"/>
<linearGradient id="Rounded_Rectangle_1_copy_1_" gradientUnits="userSpaceOnUse" x1="32.2669" y1="47.5969" x2="12.9552" y2="28.2852" gradientTransform="matrix(1 0 0 -1 -0.156 99.304)">
	<stop  offset="0" style="stop-color:#6A1119"/>
	<stop  offset="0.245" style="stop-color:#932029"/>
	<stop  offset="1" style="stop-color:#DB2F3D;stop-opacity:0"/>
</linearGradient>
<path id="Rounded_Rectangle_1_copy" class="st1" d="M27.4,63.9l-5.8,5.8c-2.1,2.1-5.4,2.1-7.5,0c-2.1-2.1-2.1-5.4,0-7.5l12.4-12.4
	l1,1C32.5,55.9,30.7,60.6,27.4,63.9z"/>
<path id="Rounded_Rectangle_1_copy_2" class="st0" d="M82.3,9.1L53.6,37.7c-2.1,2.1-5.4,2.1-7.5,0L29.9,21.6c-2.1-2.1-2.1-5.4,0-7.5
	s5.4-2.1,7.5,0l12.4,12.4L74.8,1.5c2.1-2.1,5.5-2,7.5,0.1C84.3,3.7,84.3,7,82.3,9.1z"/>
<linearGradient id="Rounded_Rectangle_1_copy_2-2_1_" gradientUnits="userSpaceOnUse" x1="36.9018" y1="68.667" x2="41.7498" y2="86.76" gradientTransform="matrix(1 0 0 -1 -0.156 99.304)">
	<stop  offset="0" style="stop-color:#6A1119"/>
	<stop  offset="0.245" style="stop-color:#932029"/>
	<stop  offset="1" style="stop-color:#DB2F3D;stop-opacity:0"/>
</linearGradient>
<path id="Rounded_Rectangle_1_copy_2-2" class="st2" d="M35.8,27.4l-5.8-5.8c-2.1-2.1-2.1-5.4,0-7.5s5.4-2.1,7.5,0l12.4,12.4l-1,1
	C43.8,32.5,39,30.7,35.8,27.4z"/>
<path id="Rounded_Rectangle_1_copy_3" class="st0" d="M98.1,82.3c-2.1,2.1-5.4,2.1-7.5,0L62,53.6c-2.1-2.1-2.1-5.4,0-7.5l16.1-16.1
	c2.1-2.1,5.4-2.1,7.5,0c2.1,2.1,2.1,5.4,0,7.5l0,0L73.2,49.8l24.9,24.9C100.2,76.8,100.2,80.2,98.1,82.3z"/>
<linearGradient id="Rounded_Rectangle_1_copy_3-2_1_" gradientUnits="userSpaceOnUse" x1="67.7057" y1="51.2952" x2="87.0555" y2="70.645" gradientTransform="matrix(1 0 0 -1 -0.156 99.304)">
	<stop  offset="0" style="stop-color:#6A1119"/>
	<stop  offset="0.245" style="stop-color:#932029"/>
	<stop  offset="1" style="stop-color:#DB2F3D;stop-opacity:0"/>
</linearGradient>
<path id="Rounded_Rectangle_1_copy_3-2" class="st3" d="M72.3,35.8l5.8-5.8c2.1-2.1,5.4-2.1,7.5,0c2.1,2.1,2.1,5.4,0,7.5l0,0
	L73.2,49.8l-1-1C67.2,43.8,69,39,72.3,35.8z"/>
<path id="Rounded_Rectangle_1_copy_3-3" class="st0" d="M69.7,85.6c-2.1,2.1-5.4,2.1-7.5,0L49.8,73.2L24.9,98.1
	c-2.1,2.1-5.4,2.1-7.5,0c-2.1-2.1-2.1-5.4,0-7.5L46.1,62c2.1-2.1,5.4-2.1,7.5,0l16.1,16.1C71.8,80.2,71.8,83.5,69.7,85.6
	C69.7,85.6,69.7,85.6,69.7,85.6z"/>
<linearGradient id="Rounded_Rectangle_1_copy_3-4_1_" gradientUnits="userSpaceOnUse" x1="63.092" y1="30.26" x2="58.235" y2="12.135" gradientTransform="matrix(1 0 0 -1 -0.156 99.304)">
	<stop  offset="0" style="stop-color:#6A1119"/>
	<stop  offset="0.245" style="stop-color:#932029"/>
	<stop  offset="1" style="stop-color:#DB2F3D;stop-opacity:0"/>
</linearGradient>
<path id="Rounded_Rectangle_1_copy_3-4" class="st4" d="M63.9,72.3l5.8,5.8c2.1,2.1,2.1,5.4,0,7.5c-2.1,2.1-5.4,2.1-7.5,0L49.8,73.2
	l1-1C55.9,67.2,60.6,69,63.9,72.3z"/>
</svg>
