<svg xmlns="http://www.w3.org/2000/svg" width="40" height="40" viewBox="0 0 40 40">
  <metadata><?xpacket begin="﻿" id="W5M0MpCehiHzreSzNTczkc9d"?>
<x:xmpmeta xmlns:x="adobe:ns:meta/" x:xmptk="Adobe XMP Core 5.6-c138 79.159824, 2016/09/14-01:09:01        ">
   <rdf:RDF xmlns:rdf="http://www.w3.org/1999/02/22-rdf-syntax-ns#">
      <rdf:Description rdf:about=""/>
   </rdf:RDF>
</x:xmpmeta>
                                                                                                    
                                                                                                    
                                                                                                    
                                                                                                    
                                                                                                    
                                                                                                    
                                                                                                    
                                                                                                    
                                                                                                    
                                                                                                    
                                                                                                    
                                                                                                    
                                                                                                    
                                                                                                    
                                                                                                    
                                                                                                    
                                                                                                    
                                                                                                    
                                                                                                    
                                                                                                    
                           
<?xpacket end="w"?></metadata>
<defs>
    <style>
      .cls-1 {
        fill: #d22734;
        fill-rule: evenodd;
      }
    </style>
  </defs>
  <path id="add_to_tour_icon" class="cls-1" d="M3850,662a20,20,0,1,1-20,20A20,20,0,0,1,3850,662Zm0,2a18,18,0,1,1-18,18A18,18,0,0,1,3850,664Zm-9,17h18a1,1,0,0,1,0,2h-18A1,1,0,0,1,3841,681Zm9-9a1,1,0,0,1,1,1v18a1,1,0,0,1-2,0V673A1,1,0,0,1,3850,672Z" transform="translate(-3830 -662)"/>
</svg>
