<svg xmlns="http://www.w3.org/2000/svg" width="40" height="40" viewBox="0 0 40 40">
  <metadata><?xpacket begin="﻿" id="W5M0MpCehiHzreSzNTczkc9d"?>
<x:xmpmeta xmlns:x="adobe:ns:meta/" x:xmptk="Adobe XMP Core 5.6-c138 79.159824, 2016/09/14-01:09:01        ">
   <rdf:RDF xmlns:rdf="http://www.w3.org/1999/02/22-rdf-syntax-ns#">
      <rdf:Description rdf:about=""/>
   </rdf:RDF>
</x:xmpmeta>
                                                                                                    
                                                                                                    
                                                                                                    
                                                                                                    
                                                                                                    
                                                                                                    
                                                                                                    
                                                                                                    
                                                                                                    
                                                                                                    
                                                                                                    
                                                                                                    
                                                                                                    
                                                                                                    
                                                                                                    
                                                                                                    
                                                                                                    
                                                                                                    
                                                                                                    
                                                                                                    
                           
<?xpacket end="w"?></metadata>
<defs>
    <style>
      .cls-1 {
        fill: #47a12c;
        fill-rule: evenodd;
      }
    </style>
  </defs>
  <path id="add_more_place_icon" class="cls-1" d="M7800,1340a20,20,0,1,1,20-20A19.994,19.994,0,0,1,7800,1340Zm0-38a18,18,0,1,0,18,18A18,18,0,0,0,7800,1302Zm9,19h-8v8a1,1,0,0,1-2,0v-8h-8a1,1,0,0,1,0-2h8v-8a1,1,0,0,1,2,0v8h8A1,1,0,0,1,7809,1321Z" transform="translate(-7780 -1300)"/>
</svg>
