<svg xmlns="http://www.w3.org/2000/svg" width="46.5" height="48" viewBox="0 0 46.5 48">
  <metadata><?xpacket begin="﻿" id="W5M0MpCehiHzreSzNTczkc9d"?>
<x:xmpmeta xmlns:x="adobe:ns:meta/" x:xmptk="Adobe XMP Core 5.6-c138 79.159824, 2016/09/14-01:09:01        ">
   <rdf:RDF xmlns:rdf="http://www.w3.org/1999/02/22-rdf-syntax-ns#">
      <rdf:Description rdf:about=""/>
   </rdf:RDF>
</x:xmpmeta>
                                                                                                    
                                                                                                    
                                                                                                    
                                                                                                    
                                                                                                    
                                                                                                    
                                                                                                    
                                                                                                    
                                                                                                    
                                                                                                    
                                                                                                    
                                                                                                    
                                                                                                    
                                                                                                    
                                                                                                    
                                                                                                    
                                                                                                    
                                                                                                    
                                                                                                    
                                                                                                    
                           
<?xpacket end="w"?></metadata>
<defs>
    <style>
      .cls-1 {
        fill: #46475a;
        fill-rule: evenodd;
      }
    </style>
  </defs>
  <path id="description_form_icon" class="cls-1" d="M7191.19,1083.04a22.727,22.727,0,0,0-32.89,0,24.58,24.58,0,0,0-1.53,32.18,8.961,8.961,0,0,1-3.67,4.37,2.278,2.278,0,0,0-1.19,2.34,2.208,2.208,0,0,0,1.82,1.88,10.687,10.687,0,0,0,1.64.13h0a14.772,14.772,0,0,0,8.36-2.79,22.749,22.749,0,0,0,27.46-4.17A24.549,24.549,0,0,0,7191.19,1083.04Zm-8.57,8.96h-16.25a1.506,1.506,0,0,0,0,3h16.25A1.506,1.506,0,0,0,7182.62,1092Zm0,7h-16.25a1.506,1.506,0,0,0,0,3h16.25A1.506,1.506,0,0,0,7182.62,1099Zm0,7h-16.25a1.506,1.506,0,0,0,0,3h16.25A1.506,1.506,0,0,0,7182.62,1106Z" transform="translate(-7151.5 -1076)"/>
</svg>
