<?xml version="1.0" encoding="iso-8859-1"?>
<!-- Generator: Adobe Illustrator 16.0.0, SVG Export Plug-In . SVG Version: 6.00 Build 0)  -->
<!DOCTYPE svg PUBLIC "-//W3C//DTD SVG 1.1//EN" "http://www.w3.org/Graphics/SVG/1.1/DTD/svg11.dtd">
<svg xmlns="http://www.w3.org/2000/svg" xmlns:xlink="http://www.w3.org/1999/xlink" version="1.1" id="Capa_1" x="0px" y="0px" width="512px" height="512px" viewBox="0 0 537.891 537.891" style="enable-background:new 0 0 537.891 537.891;" xml:space="preserve">
<g>
	<g>
		<path d="M346.043,179.417l-151.087,70.762c-21.516,10.041-19.723,18.288,4.064,18.288h48.53c11.833,0,21.515,9.683,21.515,21.516    v46.737c0,23.786,8.009,25.579,18.05,3.944l69.447-150.849C361.463,179.058,356.801,174.396,346.043,179.417z" fill="#FFFFFF"/>
		<path d="M268.945,0C120.368,0,0,120.368,0,268.945s120.368,268.945,268.945,268.945s268.945-120.368,268.945-268.945    S417.522,0,268.945,0z M269.185,461.032c-105.905,0-191.848-85.943-191.848-191.848c0-105.905,85.943-191.848,191.848-191.848    c105.904,0,191.848,85.943,191.848,191.848C461.032,375.089,375.209,461.032,269.185,461.032z" fill="#FFFFFF"/>
	</g>
</g>
<g>
</g>
<g>
</g>
<g>
</g>
<g>
</g>
<g>
</g>
<g>
</g>
<g>
</g>
<g>
</g>
<g>
</g>
<g>
</g>
<g>
</g>
<g>
</g>
<g>
</g>
<g>
</g>
<g>
</g>
</svg>
