<svg xmlns="http://www.w3.org/2000/svg" width="48" height="48" viewBox="0 0 48 48">
  <metadata><?xpacket begin="﻿" id="W5M0MpCehiHzreSzNTczkc9d"?>
<x:xmpmeta xmlns:x="adobe:ns:meta/" x:xmptk="Adobe XMP Core 5.6-c138 79.159824, 2016/09/14-01:09:01        ">
   <rdf:RDF xmlns:rdf="http://www.w3.org/1999/02/22-rdf-syntax-ns#">
      <rdf:Description rdf:about=""/>
   </rdf:RDF>
</x:xmpmeta>
                                                                                                    
                                                                                                    
                                                                                                    
                                                                                                    
                                                                                                    
                                                                                                    
                                                                                                    
                                                                                                    
                                                                                                    
                                                                                                    
                                                                                                    
                                                                                                    
                                                                                                    
                                                                                                    
                                                                                                    
                                                                                                    
                                                                                                    
                                                                                                    
                                                                                                    
                                                                                                    
                           
<?xpacket end="w"?></metadata>
<defs>
    <style>
      .cls-1 {
        fill: #d12734;
        fill-rule: evenodd;
      }
    </style>
  </defs>
  <path id="do_small_icon" class="cls-1" d="M1836.57,1020.41a1.007,1.007,0,0,1,2,.23c-0.05.39,0.41,1.65,2.41,3.83a46.7,46.7,0,0,0,7.23,6.16,52.429,52.429,0,0,0,5.77,3.53,1.006,1.006,0,0,1,.43,1.35,0.993,0.993,0,0,1-.89.54,0.92,0.92,0,0,1-.46-0.11,54.13,54.13,0,0,1-6-3.67C1841.61,1028.45,1836.25,1023.3,1836.57,1020.41Zm-9.68-.21a1.008,1.008,0,0,0-1.23.71,11.019,11.019,0,0,0,.5,7.21,11.159,11.159,0,0,0,1.08,1.94l2.85,4.08a10.893,10.893,0,0,0,5.34,4.04,0.96,0.96,0,0,0,.33.06,1.008,1.008,0,0,0,.33-1.96,8.882,8.882,0,0,1-4.36-3.3l-2.84-4.07a8.857,8.857,0,0,1-.89-1.59,9.057,9.057,0,0,1-.41-5.88A1.009,1.009,0,0,0,1826.89,1020.2Zm28.31,11.92a1.008,1.008,0,0,0,.5-1.88c-1.28-.74-2.59-1.58-3.89-2.48a47.318,47.318,0,0,1-6.27-5.21,1.008,1.008,0,0,0-1.42-.01,1.02,1.02,0,0,0-.01,1.43,49.324,49.324,0,0,0,6.55,5.43q2.025,1.425,4.04,2.58A0.993,0.993,0,0,0,1855.2,1032.12Zm-14.19-10.41a1,1,0,0,0,1.4-.25l3.09-4.42a11.844,11.844,0,0,1,16.47-2.91,11.952,11.952,0,0,1,3.85,14.89,1.009,1.009,0,0,0,.46,1.34,0.976,0.976,0,0,0,.44.1,1.031,1.031,0,0,0,.91-0.56,13.929,13.929,0,0,0-4.51-17.42,13.857,13.857,0,0,0-19.27,3.41l-3.09,4.42A1,1,0,0,0,1841.01,1021.71Zm18.98,30.77a1.629,1.629,0,0,1-.4,2.27l-4.23,2.96a1.617,1.617,0,0,1-2.27-.4l-2.65-3.79h-0.01v-0.01l-2.98-4.26-0.01-.01a0.035,0.035,0,0,0-.01-0.02l-1.18-1.69a1,1,0,1,1,1.64-1.15l0.62,0.88,4.43-3.11a1,1,0,0,1,1.4.25l2.98,4.26c0,0.01.01,0.01,0.01,0.02l0.02,0.02Zm-8.49-.94,3.61-2.53-1.84-2.64-3.61,2.54Zm6.63,1.78-1.87-2.67-3.61,2.54,1.87,2.66Zm10.23-16.55a5.925,5.925,0,1,1-5.93-5.93A5.936,5.936,0,0,1,1868.36,1036.77Zm-2.01,0a3.916,3.916,0,1,0-3.92,3.92A3.926,3.926,0,0,0,1866.35,1036.77Zm-32.1,5.44a1,1,0,0,0,.33-1.95,11.729,11.729,0,0,1-5.77-4.37l-3.68-5.26a11.836,11.836,0,0,1,16.41-16.54,1,1,0,1,0,1.14-1.65,13.846,13.846,0,0,0-19.19,19.34l3.68,5.26a13.625,13.625,0,0,0,6.75,5.11A0.96,0.96,0,0,0,1834.25,1042.21Zm13.15,0.11-1.84,2.63h0l-8.64,12.36a1.616,1.616,0,0,1-1.34.7,1.672,1.672,0,0,1-.93-0.29l-4.23-2.97a1.616,1.616,0,0,1-.67-1.05,1.6,1.6,0,0,1,.27-1.22l2.64-3.79a0.01,0.01,0,0,0,.01-0.01,0.02,0.02,0,0,0,.01-0.02l2.98-4.25a0.01,0.01,0,0,1,.01-0.01,0.02,0.02,0,0,1,.01-0.02l2.97-4.25,0.01-.01a0.035,0.035,0,0,1,.01-0.02l1.83-2.62a13.855,13.855,0,0,1-2.79-9.16,1,1,0,0,1,2,.11,11.906,11.906,0,0,0,2.81,8.36,1.007,1.007,0,0,1,.06,1.23l-1.7,2.43,3.61,2.53,1.7-2.43a1,1,0,0,1,1.17-.36,12.014,12.014,0,0,0,7.36.29,1,1,0,1,1,.54,1.93A13.92,13.92,0,0,1,1847.4,1042.32Zm-10.05,10.87-3.61-2.54-1.86,2.67,3.61,2.53Zm3-4.28-3.61-2.54-1.85,2.64,3.61,2.53Zm2.99-4.29-3.61-2.53-1.84,2.64,3.61,2.53Z" transform="translate(-1821 -1010)"/>
</svg>
