<svg xmlns="http://www.w3.org/2000/svg" width="43.5" height="48" viewBox="0 0 43.5 48">
  <metadata><?xpacket begin="﻿" id="W5M0MpCehiHzreSzNTczkc9d"?>
<x:xmpmeta xmlns:x="adobe:ns:meta/" x:xmptk="Adobe XMP Core 5.6-c138 79.159824, 2016/09/14-01:09:01        ">
   <rdf:RDF xmlns:rdf="http://www.w3.org/1999/02/22-rdf-syntax-ns#">
      <rdf:Description rdf:about=""/>
   </rdf:RDF>
</x:xmpmeta>
                                                                                                    
                                                                                                    
                                                                                                    
                                                                                                    
                                                                                                    
                                                                                                    
                                                                                                    
                                                                                                    
                                                                                                    
                                                                                                    
                                                                                                    
                                                                                                    
                                                                                                    
                                                                                                    
                                                                                                    
                                                                                                    
                                                                                                    
                                                                                                    
                                                                                                    
                                                                                                    
                           
<?xpacket end="w"?></metadata>
<defs>
    <style>
      .cls-1 {
        fill: #ec4450;
        fill-rule: evenodd;
      }
    </style>
  </defs>
  <path id="drink_go_out_small_icon" class="cls-1" d="M2525.67,478.522a0.814,0.814,0,0,0-1.07-.441l-8.51,3.584a0.856,0.856,0,0,0-.34.275l-4.57,6.363h-14.04a7.45,7.45,0,0,0-13.65-3.326c-0.01.008-.01,0.015-0.02,0.023-0.02.034-.04,0.071-0.06,0.108a7.524,7.524,0,0,0,6.31,11.538,7.176,7.176,0,0,0,3.83-1.053l1.17,1.365a0.8,0.8,0,0,0,1.14.086,0.82,0.82,0,0,0,.09-1.157l-2.15-2.519a6.749,6.749,0,0,1,3.91-.793,7.2,7.2,0,0,1,3.41,1.56,13.083,13.083,0,0,0,2.67,1.553,9.213,9.213,0,0,0,3.52.677,11.391,11.391,0,0,0,1.98-.181l-6.54,7.648-4.6-5.374a0.816,0.816,0,1,0-1.23,1.072l4.9,5.73a0.668,0.668,0,0,0,.11.109v15.1l-7.93,3.975a0.822,0.822,0,0,0,.37,1.556h16.76a0.805,0.805,0,0,0,.79-0.633,0.817,0.817,0,0,0-.43-0.923l-7.93-3.975v-15.1c0.04-.033.08-0.069,0.12-0.109l13.35-15.6a0.848,0.848,0,0,0,.12-0.878,0.81,0.81,0,0,0-.74-0.478h-3.22l3.74-5.213,8.3-3.494A0.823,0.823,0,0,0,2525.67,478.522Zm-18.01,45.836h-9.83l4.92-2.463ZM2495.5,488.3h-4.94l2.48-4.012A5.882,5.882,0,0,1,2495.5,488.3Zm-5.78-5.06a5.813,5.813,0,0,1,1.86.307l-2.72,4.39-3.58-2.629A5.8,5.8,0,0,1,2489.72,483.243Zm-5.84,5.88a5.94,5.94,0,0,1,.52-2.424l3.59,2.635-2.44,3.9A5.9,5.9,0,0,1,2483.88,489.123Zm5.84,5.88a5.8,5.8,0,0,1-2.87-.76l2.34-3.743,3.27,3.828A5.585,5.585,0,0,1,2489.72,495Zm24.91-5.059-3.45,4.027a9.261,9.261,0,0,1-6.78.2,12.309,12.309,0,0,1-2.36-1.382,8.668,8.668,0,0,0-4.13-1.841,8.56,8.56,0,0,0-5.21,1.148l-1.83-2.148h23.76Z" transform="translate(-2482.25 -478)"/>
</svg>
