<svg xmlns="http://www.w3.org/2000/svg" width="48.03" height="45.75" viewBox="0 0 48.03 45.75">
  <metadata><?xpacket begin="﻿" id="W5M0MpCehiHzreSzNTczkc9d"?>
<x:xmpmeta xmlns:x="adobe:ns:meta/" x:xmptk="Adobe XMP Core 5.6-c138 79.159824, 2016/09/14-01:09:01        ">
   <rdf:RDF xmlns:rdf="http://www.w3.org/1999/02/22-rdf-syntax-ns#">
      <rdf:Description rdf:about=""/>
   </rdf:RDF>
</x:xmpmeta>
                                                                                                    
                                                                                                    
                                                                                                    
                                                                                                    
                                                                                                    
                                                                                                    
                                                                                                    
                                                                                                    
                                                                                                    
                                                                                                    
                                                                                                    
                                                                                                    
                                                                                                    
                                                                                                    
                                                                                                    
                                                                                                    
                                                                                                    
                                                                                                    
                                                                                                    
                                                                                                    
                           
<?xpacket end="w"?></metadata>
<defs>
    <style>
      .cls-1 {
        fill: #d12734;
        fill-rule: evenodd;
      }
    </style>
  </defs>
  <path id="eat_small_icon" class="cls-1" d="M1849.48,623.623a0.859,0.859,0,0,0,1.22,0l8.93-9a0.865,0.865,0,0,0-1.22-1.227l-8.93,9A0.885,0.885,0,0,0,1849.48,623.623Zm2.43,2.409a0.859,0.859,0,0,0,1.22,0l8.93-9a0.865,0.865,0,0,0-1.22-1.227l-8.93,9A0.867,0.867,0,0,0,1851.91,626.032Zm1.72,4.97,11.09-11.172a0.867,0.867,0,0,0,0-1.228,0.848,0.848,0,0,0-1.21,0l-11.09,11.173a4.556,4.556,0,0,1-5.2.9,0.863,0.863,0,0,0-1.02.207l-3.76,4.277c-0.01,0-.01,0-0.01,0v0l-16.29,18.485s-0.01.01-.01,0.015a1.182,1.182,0,0,1-.16.171,2.765,2.765,0,0,1-3.89-3.93,1.674,1.674,0,0,1,.17-0.155,0.012,0.012,0,0,1,.01-0.013l10.18-9.105a0.864,0.864,0,0,0,.07-1.225,0.849,0.849,0,0,0-1.21-.073l-10.18,9.1a3.279,3.279,0,0,0-.26.246,4.519,4.519,0,0,0,0,6.384,4.454,4.454,0,0,0,6.33,0c0.08-.083.16-0.17,0.25-0.268l12.41-14.086,12.41,14.086c0.08,0.1.16,0.185,0.24,0.268a4.466,4.466,0,0,0,6.34,0,4.556,4.556,0,0,0,0-6.384c-0.09-.083-0.17-0.164-0.27-0.246l-14.28-12.77,2.8-3.172A6.252,6.252,0,0,0,1853.63,631Zm3.8,18.738a0.226,0.226,0,0,1,.02.013c0.06,0.053.12,0.1,0.17,0.156a2.806,2.806,0,0,1,0,3.929,2.747,2.747,0,0,1-3.9,0c-0.05-.052-0.1-0.108-0.16-0.171a0.014,0.014,0,0,0-.01-0.015L1841,639.4l2.15-2.44Zm-24.7-17.112s3.2,3.64,3.24,3.687a0.864,0.864,0,0,0,.65.291,0.852,0.852,0,0,0,.57-0.218l7.67-6.86a0.879,0.879,0,0,0,.21-1.024,4.615,4.615,0,0,1,.89-5.237l11.09-11.172a0.884,0.884,0,0,0,0-1.227,0.859,0.859,0,0,0-1.22,0l-11.09,11.172a6.4,6.4,0,0,0-1.48,6.6l-3.41,3.051-3.28-2.932a8.793,8.793,0,0,0-1.62-10.156,19.555,19.555,0,0,0-8.71-5.335c-3.08-.78-5.72-0.259-7.43,1.468s-2.23,4.386-1.46,7.486a19.711,19.711,0,0,0,5.3,8.781A8.617,8.617,0,0,0,1832.73,632.628Zm-12.7-16.665c1.26-1.279,3.32-1.637,5.79-1.012a17.892,17.892,0,0,1,7.92,4.879,7.041,7.041,0,0,1,1,8.657,0.876,0.876,0,0,0,.16,1.105l3.65,3.259-1.86,1.662-3.14-3.559a0.846,0.846,0,0,0-1.09-.163,6.923,6.923,0,0,1-8.6-1.016,18.113,18.113,0,0,1-4.84-7.978C1818.4,619.313,1818.76,617.24,1820.03,615.963Z" transform="translate(-1816.97 -610.625)"/>
</svg>
