<svg xmlns="http://www.w3.org/2000/svg" width="44" height="48" viewBox="0 0 44 48">
  <metadata><?xpacket begin="﻿" id="W5M0MpCehiHzreSzNTczkc9d"?>
<x:xmpmeta xmlns:x="adobe:ns:meta/" x:xmptk="Adobe XMP Core 5.6-c138 79.159824, 2016/09/14-01:09:01        ">
   <rdf:RDF xmlns:rdf="http://www.w3.org/1999/02/22-rdf-syntax-ns#">
      <rdf:Description rdf:about=""/>
   </rdf:RDF>
</x:xmpmeta>
                                                                                                    
                                                                                                    
                                                                                                    
                                                                                                    
                                                                                                    
                                                                                                    
                                                                                                    
                                                                                                    
                                                                                                    
                                                                                                    
                                                                                                    
                                                                                                    
                                                                                                    
                                                                                                    
                                                                                                    
                                                                                                    
                                                                                                    
                                                                                                    
                                                                                                    
                                                                                                    
                           
<?xpacket end="w"?></metadata>
<defs>
    <style>
      .cls-1 {
        fill: #d22734;
        fill-rule: evenodd;
      }
    </style>
  </defs>
  <path id="listen_small_icon" class="cls-1" d="M2196.1,479.621a2.574,2.574,0,0,0-2.09-.591l-27.78,4.482a3.417,3.417,0,0,0-2.87,3.394v6.33a0.85,0.85,0,1,0,1.7,0v-6.33a1.713,1.713,0,0,1,1.44-1.7l27.78-4.482a0.859,0.859,0,0,1,.71.2,0.875,0.875,0,0,1,.31.675v31.518a6.381,6.381,0,0,1-6.34,6.362,6.273,6.273,0,0,1-4.59-1.977,6.374,6.374,0,0,1-1.76-4.715,6.45,6.45,0,0,1,.18-1.24,0.851,0.851,0,1,0-1.65-.415,7.627,7.627,0,0,0-.23,1.578,8.1,8.1,0,0,0,2.22,5.979,7.983,7.983,0,0,0,5.83,2.508,8.1,8.1,0,0,0,8.05-8.026V481.6A2.6,2.6,0,0,0,2196.1,479.621Zm-4.04,10.958a2.58,2.58,0,0,0-2.09-.59l-19.7,3.177a3.418,3.418,0,0,0-2.87,3.395v22.176a0.583,0.583,0,0,0-.01.132V518.9a6.375,6.375,0,0,1-6.35,6.385,6.3,6.3,0,0,1-4.52-1.9,6.408,6.408,0,0,1,4.21-10.882,6.306,6.306,0,0,1,3.1.643,0.853,0.853,0,0,0,1.23-.771V498.617a0.85,0.85,0,1,0-1.7,0v12.5a8.112,8.112,0,0,0-8.05,13.471,7.969,7.969,0,0,0,5.73,2.416,8.1,8.1,0,0,0,8.06-8.013c0-.041.01-0.083,0.01-0.126v-22.3a1.706,1.706,0,0,1,1.43-1.7l19.7-3.177a0.858,0.858,0,0,1,.71.2,0.879,0.879,0,0,1,.31.677v12.748a8.026,8.026,0,0,0-2.71-.329,7.863,7.863,0,0,0-2.51.543,0.857,0.857,0,1,0,.62,1.6,6.21,6.21,0,0,1,1.97-.427,6.353,6.353,0,0,1,3.11.639,0.838,0.838,0,0,0,.82-0.043,0.869,0.869,0,0,0,.41-0.729v-14A2.64,2.64,0,0,0,2192.06,490.579Z" transform="translate(-2153 -479)"/>
</svg>
