<svg xmlns="http://www.w3.org/2000/svg" width="48" height="48" viewBox="0 0 48 48">
  <metadata><?xpacket begin="﻿" id="W5M0MpCehiHzreSzNTczkc9d"?>
<x:xmpmeta xmlns:x="adobe:ns:meta/" x:xmptk="Adobe XMP Core 5.6-c138 79.159824, 2016/09/14-01:09:01        ">
   <rdf:RDF xmlns:rdf="http://www.w3.org/1999/02/22-rdf-syntax-ns#">
      <rdf:Description rdf:about=""/>
   </rdf:RDF>
</x:xmpmeta>
                                                                                                    
                                                                                                    
                                                                                                    
                                                                                                    
                                                                                                    
                                                                                                    
                                                                                                    
                                                                                                    
                                                                                                    
                                                                                                    
                                                                                                    
                                                                                                    
                                                                                                    
                                                                                                    
                                                                                                    
                                                                                                    
                                                                                                    
                                                                                                    
                                                                                                    
                                                                                                    
                           
<?xpacket end="w"?></metadata>
<defs>
    <style>
      .cls-1 {
        fill: #d12734;
        fill-rule: evenodd;
      }
    </style>
  </defs>
  <path id="spec_events_small_icon" class="cls-1" d="M2082.95,1015.71a3,3,0,0,0-1.9-2.36l-8.24-3.2a2.162,2.162,0,0,0-2.77,1.22,166.835,166.835,0,0,0-5.65,17.19c-2.9,10.71-3.76,28.31-3.77,28.49a0.9,0.9,0,0,0,.72.92,1.114,1.114,0,0,0,.17.02,0.9,0.9,0,0,0,.84-0.6,62.986,62.986,0,0,1,17.93-26.66,3.06,3.06,0,0,0-.9-5.14l-4.09-1.58,6.6-5.46A3.01,3.01,0,0,0,2082.95,1015.71Zm-2.19,1.46-7.77,6.43a0.895,0.895,0,0,0,.24,1.53l5.51,2.13a1.256,1.256,0,0,1,.78.96,1.207,1.207,0,0,1-.41,1.16,65.036,65.036,0,0,0-16.33,22.13c0.48-6.05,1.49-15.69,3.33-22.47a165.358,165.358,0,0,1,5.58-17,0.376,0.376,0,0,1,.35-0.24,0.308,0.308,0,0,1,.13.03l8.24,3.19A1.264,1.264,0,0,1,2080.76,1017.17Zm-23.41,39.88c-0.01-.18-0.87-17.78-3.76-28.49a169.444,169.444,0,0,0-5.65-17.19,2.166,2.166,0,0,0-2.77-1.22l-8.25,3.2a3.056,3.056,0,0,0-.83,5.2l6.59,5.46-4.08,1.58a3.06,3.06,0,0,0-.9,5.14c0.95,0.84,1.9,1.73,2.8,2.62a0.879,0.879,0,0,0,1.26-.01,0.9,0.9,0,0,0-.01-1.26c-0.93-.93-1.9-1.83-2.89-2.7a1.224,1.224,0,0,1-.4-1.16,1.237,1.237,0,0,1,.78-0.96l5.5-2.13a0.882,0.882,0,0,0,.56-0.69,0.911,0.911,0,0,0-.31-0.84l-7.77-6.43a1.252,1.252,0,0,1-.44-1.17,1.236,1.236,0,0,1,.78-0.98l8.25-3.19a0.358,0.358,0,0,1,.47.21,164.554,164.554,0,0,1,5.59,17c1.83,6.75,2.84,16.36,3.32,22.41a56.2,56.2,0,0,0-9.54-15.13,0.876,0.876,0,0,0-1.25-.04,0.9,0.9,0,0,0-.05,1.26c6.32,6.86,9.99,16.17,11.28,19.85A0.885,0.885,0,0,0,2057.35,1057.05Zm7.53-46.8a1.573,1.573,0,0,0-1.57-.04l-4.47,2.4-4.48-2.4a1.549,1.549,0,0,0-1.57.04,1.565,1.565,0,0,0-.77,1.37v4.13a1.586,1.586,0,0,0,1.59,1.61,1.575,1.575,0,0,0,.78-0.21l4.44-2.5,4.45,2.51a1.548,1.548,0,0,0,.78.21,1.624,1.624,0,0,0,1.59-1.61v-4.13A1.6,1.6,0,0,0,2064.88,1010.25Zm-11.09,5.19v-3.51l3.19,1.71Zm10.08,0-3.18-1.79,3.18-1.71v3.5Z" transform="translate(-2035 -1010)"/>
</svg>
