<svg xmlns="http://www.w3.org/2000/svg" width="48" height="44" viewBox="0 0 48 44">
  <metadata><?xpacket begin="﻿" id="W5M0MpCehiHzreSzNTczkc9d"?>
<x:xmpmeta xmlns:x="adobe:ns:meta/" x:xmptk="Adobe XMP Core 5.6-c138 79.159824, 2016/09/14-01:09:01        ">
   <rdf:RDF xmlns:rdf="http://www.w3.org/1999/02/22-rdf-syntax-ns#">
      <rdf:Description rdf:about=""/>
   </rdf:RDF>
</x:xmpmeta>
                                                                                                    
                                                                                                    
                                                                                                    
                                                                                                    
                                                                                                    
                                                                                                    
                                                                                                    
                                                                                                    
                                                                                                    
                                                                                                    
                                                                                                    
                                                                                                    
                                                                                                    
                                                                                                    
                                                                                                    
                                                                                                    
                                                                                                    
                                                                                                    
                                                                                                    
                                                                                                    
                           
<?xpacket end="w"?></metadata>
<defs>
    <style>
      .cls-1 {
        fill: #d12734;
        fill-rule: evenodd;
      }
    </style>
  </defs>
  <path id="watch_small_icon" class="cls-1" d="M1754.15,1012h-46.3a0.851,0.851,0,0,0-.85.86V1042a0.858,0.858,0,0,0,.85.86h46.3a0.858,0.858,0,0,0,.85-0.86v-29.14A0.851,0.851,0,0,0,1754.15,1012Zm-0.85,29.14h-44.6v-27.43h44.6v27.43h0Zm-17.86-14.45-6.08-3.54a0.859,0.859,0,0,0-.85,0,0.849,0.849,0,0,0-.43.74v7.07a0.865,0.865,0,0,0,.43.75,0.877,0.877,0,0,0,.42.11,0.916,0.916,0,0,0,.43-0.11l6.08-3.54a0.86,0.86,0,0,0,.42-0.74A0.848,0.848,0,0,0,1735.44,1026.69Zm-5.66,2.79v-4.1l3.53,2.05Zm24.37,24.81h-1.62v-4.91a2.626,2.626,0,0,0-1.13-2.17,3.568,3.568,0,0,0-7.1,0,2.652,2.652,0,0,0-1.13,2.17v4.91h-1.87v-4.91a2.652,2.652,0,0,0-1.13-2.17,3.574,3.574,0,0,0-7.11,0,2.643,2.643,0,0,0-1.12,2.17v4.91h-1.88v-4.91a2.643,2.643,0,0,0-1.12-2.17,3.574,3.574,0,0,0-7.11,0,2.652,2.652,0,0,0-1.13,2.17v4.91h-1.87v-4.91a2.652,2.652,0,0,0-1.13-2.17,3.568,3.568,0,0,0-7.1,0,2.652,2.652,0,0,0-1.13,2.17v4.91h-1.62a0.855,0.855,0,0,0,0,1.71h46.3A0.855,0.855,0,0,0,1754.15,1054.29Zm-40-8.58a1.87,1.87,0,0,1,1.66,1.03h-3.33A1.873,1.873,0,0,1,1714.15,1045.71Zm2.98,8.58h-5.96v-4.91a0.915,0.915,0,0,1,.91-0.92h4.13a0.918,0.918,0,0,1,.92.92v4.91Zm8.25-8.58a1.873,1.873,0,0,1,1.67,1.03h-3.33A1.87,1.87,0,0,1,1725.38,1045.71Zm2.98,8.58h-5.96v-4.91a0.918,0.918,0,0,1,.92-0.92h4.13a0.915,0.915,0,0,1,.91.92v4.91h0Zm8.26-8.58a1.87,1.87,0,0,1,1.66,1.03h-3.33A1.873,1.873,0,0,1,1736.62,1045.71Zm2.98,8.58h-5.96v-4.91a0.915,0.915,0,0,1,.91-0.92h4.13a0.918,0.918,0,0,1,.92.92v4.91h0Zm8.25-8.58a1.873,1.873,0,0,1,1.67,1.03h-3.33A1.87,1.87,0,0,1,1747.85,1045.71Zm2.98,8.58h-5.96v-4.91a0.918,0.918,0,0,1,.92-0.92h4.13a0.915,0.915,0,0,1,.91.92v4.91h0ZM1731,1018.17a9.26,9.26,0,1,0,9.19,9.26A9.231,9.231,0,0,0,1731,1018.17Zm0,16.8a7.54,7.54,0,1,1,7.49-7.54A7.522,7.522,0,0,1,1731,1034.97Zm0,2.54a0.858,0.858,0,0,0-.85.86v1.06a0.85,0.85,0,1,0,1.7,0v-1.06A0.858,0.858,0,0,0,1731,1037.51Zm0-22.94a0.858,0.858,0,0,0-.85.86v1.06a0.85,0.85,0,1,0,1.7,0v-1.06A0.858,0.858,0,0,0,1731,1014.57Zm-10.86,12h-8.2a0.86,0.86,0,0,0,0,1.72h8.2A0.86,0.86,0,0,0,1720.14,1026.57Zm29.92,0h-8.2a0.86,0.86,0,0,0,0,1.72h8.2A0.86,0.86,0,0,0,1750.06,1026.57Z" transform="translate(-1707 -1012)"/>
</svg>
