<svg xmlns="http://www.w3.org/2000/svg" width="32" height="26" viewBox="0 0 32 26">
  <metadata><?xpacket begin="﻿" id="W5M0MpCehiHzreSzNTczkc9d"?>
<x:xmpmeta xmlns:x="adobe:ns:meta/" x:xmptk="Adobe XMP Core 5.6-c138 79.159824, 2016/09/14-01:09:01        ">
   <rdf:RDF xmlns:rdf="http://www.w3.org/1999/02/22-rdf-syntax-ns#">
      <rdf:Description rdf:about=""/>
   </rdf:RDF>
</x:xmpmeta>
                                                                                                    
                                                                                                    
                                                                                                    
                                                                                                    
                                                                                                    
                                                                                                    
                                                                                                    
                                                                                                    
                                                                                                    
                                                                                                    
                                                                                                    
                                                                                                    
                                                                                                    
                                                                                                    
                                                                                                    
                                                                                                    
                                                                                                    
                                                                                                    
                                                                                                    
                                                                                                    
                           
<?xpacket end="w"?></metadata>
<defs>
    <style>
      .cls-1 {
        fill: #fff;
        fill-rule: evenodd;
      }
    </style>
  </defs>
  <path id="camera_icon" class="cls-1" d="M4537.24,642.295a4.24,4.24,0,1,1-4.24-4.3A4.266,4.266,0,0,1,4537.24,642.295Zm8.69-10.786a3.088,3.088,0,0,1,3.07,3.111v15.07a3.3,3.3,0,0,1-3.27,3.318h-25.46a3.292,3.292,0,0,1-3.27-3.318V634.62h0a3.088,3.088,0,0,1,3.07-3.111h6.14l0.28-1.239a4.2,4.2,0,0,1,4.08-3.278h4.87a4.194,4.194,0,0,1,4.07,3.278l0.28,1.239h6.14ZM4523.4,636a1.54,1.54,0,1,0-1.54,1.559A1.551,1.551,0,0,0,4523.4,636Zm17.17,6.295a7.571,7.571,0,1,0-7.57,7.675A7.625,7.625,0,0,0,4540.57,642.295Z" transform="translate(-4517 -627)"/>
</svg>
