<svg xmlns="http://www.w3.org/2000/svg" xmlns:xlink="http://www.w3.org/1999/xlink" width="225" height="185" viewBox="0 0 225 185">
  <metadata><?xpacket begin="﻿" id="W5M0MpCehiHzreSzNTczkc9d"?>
<x:xmpmeta xmlns:x="adobe:ns:meta/" x:xmptk="Adobe XMP Core 5.6-c138 79.159824, 2016/09/14-01:09:01        ">
   <rdf:RDF xmlns:rdf="http://www.w3.org/1999/02/22-rdf-syntax-ns#">
      <rdf:Description rdf:about=""/>
   </rdf:RDF>
</x:xmpmeta>
                                                                                                    
                                                                                                    
                                                                                                    
                                                                                                    
                                                                                                    
                                                                                                    
                                                                                                    
                                                                                                    
                                                                                                    
                                                                                                    
                                                                                                    
                                                                                                    
                                                                                                    
                                                                                                    
                                                                                                    
                                                                                                    
                                                                                                    
                                                                                                    
                                                                                                    
                                                                                                    
                           
<?xpacket end="w"?></metadata>
<defs>
    <style>
      .cls-1 {
        fill: #1d243e;
        stroke: #222a48;
        stroke-linejoin: round;
        stroke-width: 2px;
        fill-rule: evenodd;
        filter: url(#filter);
      }
    </style>
    <filter id="filter" x="8164" y="494" width="223" height="183" filterUnits="userSpaceOnUse">
      <feOffset result="offset" dy="3" in="SourceAlpha"/>
      <feGaussianBlur result="blur" stdDeviation="3.464"/>
      <feFlood result="flood" flood-color="#090d1d" flood-opacity="0.25"/>
      <feComposite result="composite" operator="in" in2="blur"/>
      <feBlend result="blend" in="SourceGraphic"/>
    </filter>
  </defs>
  <g transform="translate(-8163 -493)" style="fill: #1d243e; filter: url(#filter)">
    <path id="select_image_icon" class="cls-1" d="M8301.53,596.115A26.53,26.53,0,1,1,8275,569.646,26.488,26.488,0,0,1,8301.53,596.115Zm54.29-66.335A19.15,19.15,0,0,1,8375,548.914V641.6a20.431,20.431,0,0,1-20.45,20.4h-159.1A20.431,20.431,0,0,1,8175,641.6V548.914h0a19.15,19.15,0,0,1,19.18-19.134h38.36l1.8-7.621A26.129,26.129,0,0,1,8259.8,502h30.44a26.129,26.129,0,0,1,25.46,20.159l1.76,7.621h38.36ZM8215,557.4a9.63,9.63,0,1,0-9.65,9.587A9.61,9.61,0,0,0,8215,557.4Zm107.31,38.719a47.31,47.31,0,1,0-47.31,47.2A47.267,47.267,0,0,0,8322.31,596.115Z" style="stroke: inherit; filter: none; fill: inherit"/>
  </g>
  <use transform="translate(-8163 -493)" xlink:href="#select_image_icon" style="stroke: #222a48; filter: none; fill: none"/>
</svg>
