<svg xmlns="http://www.w3.org/2000/svg" width="48" height="40" viewBox="0 0 48 40">
  <metadata><?xpacket begin="﻿" id="W5M0MpCehiHzreSzNTczkc9d"?>
<x:xmpmeta xmlns:x="adobe:ns:meta/" x:xmptk="Adobe XMP Core 5.6-c138 79.159824, 2016/09/14-01:09:01        ">
   <rdf:RDF xmlns:rdf="http://www.w3.org/1999/02/22-rdf-syntax-ns#">
      <rdf:Description rdf:about=""/>
   </rdf:RDF>
</x:xmpmeta>
                                                                                                    
                                                                                                    
                                                                                                    
                                                                                                    
                                                                                                    
                                                                                                    
                                                                                                    
                                                                                                    
                                                                                                    
                                                                                                    
                                                                                                    
                                                                                                    
                                                                                                    
                                                                                                    
                                                                                                    
                                                                                                    
                                                                                                    
                                                                                                    
                                                                                                    
                                                                                                    
                           
<?xpacket end="w"?></metadata>
<defs>
    <style>
      .cls-1 {
        fill: #46475a;
        fill-rule: evenodd;
      }
    </style>
  </defs>
  <path id="website_form_icon" class="cls-1" d="M7944,1818h40a4,4,0,0,1,4,4v32a4,4,0,0,1-4,4h-40a4,4,0,0,1-4-4v-32A4,4,0,0,1,7944,1818Zm1.5,4a1.5,1.5,0,1,1-1.5,1.5A1.5,1.5,0,0,1,7945.5,1822Zm5,0a1.5,1.5,0,1,1-1.5,1.5A1.5,1.5,0,0,1,7950.5,1822Zm5,0a1.5,1.5,0,1,1-1.5,1.5A1.5,1.5,0,0,1,7955.5,1822Zm-15.5,5h48v2h-48v-2Zm18.57,11.9h-2.05l-0.82,4.47h-0.11l-0.99-4.47h-1.98l-0.98,4.47h-0.11l-0.82-4.47h-2.1l1.7,6.52h2.2l1.01-4.3h0.11l1.02,4.3h2.23Zm10.63,0h-2.05l-0.82,4.47h-0.11l-1-4.47h-1.97l-0.98,4.47h-0.12l-0.81-4.47h-2.1l1.7,6.52h2.2l1.01-4.3h0.11l1.02,4.3h2.23Zm10.63,0h-2.05l-0.82,4.47h-0.11l-1-4.47h-1.97l-0.99,4.47h-0.11l-0.81-4.47h-2.1l1.7,6.52h2.2l1-4.3h0.12l1.02,4.3h2.23Z" transform="translate(-7940 -1818)"/>
</svg>
