<svg xmlns="http://www.w3.org/2000/svg" width="46.5" height="48" viewBox="0 0 46.5 48">
  <metadata><?xpacket begin="﻿" id="W5M0MpCehiHzreSzNTczkc9d"?>
<x:xmpmeta xmlns:x="adobe:ns:meta/" x:xmptk="Adobe XMP Core 5.6-c138 79.159824, 2016/09/14-01:09:01        ">
   <rdf:RDF xmlns:rdf="http://www.w3.org/1999/02/22-rdf-syntax-ns#">
      <rdf:Description rdf:about=""/>
   </rdf:RDF>
</x:xmpmeta>
                                                                                                    
                                                                                                    
                                                                                                    
                                                                                                    
                                                                                                    
                                                                                                    
                                                                                                    
                                                                                                    
                                                                                                    
                                                                                                    
                                                                                                    
                                                                                                    
                                                                                                    
                                                                                                    
                                                                                                    
                                                                                                    
                                                                                                    
                                                                                                    
                                                                                                    
                                                                                                    
                           
<?xpacket end="w"?></metadata>
<defs>
    <style>
      .cls-1 {
        fill: #8f939f;
        fill-rule: evenodd;
      }
    </style>
  </defs>
  <path id="comment_icon" class="cls-1" d="M6233.19,1008.04a22.727,22.727,0,0,0-32.89,0,24.58,24.58,0,0,0-1.53,32.18,8.961,8.961,0,0,1-3.67,4.37,2.278,2.278,0,0,0-1.19,2.34,2.208,2.208,0,0,0,1.82,1.88,10.687,10.687,0,0,0,1.64.13h0a14.772,14.772,0,0,0,8.36-2.79,22.735,22.735,0,0,0,27.46-4.18A24.537,24.537,0,0,0,6233.19,1008.04Zm-1.86,32.01a20.146,20.146,0,0,1-25.03,3.3,1.3,1.3,0,0,0-.66-0.19,1.37,1.37,0,0,0-.81.28,12.3,12.3,0,0,1-7.29,2.77,13.665,13.665,0,0,0,3.98-5.68,1.394,1.394,0,0,0-.22-1.45,21.8,21.8,0,0,1,.87-29.15,20.176,20.176,0,0,1,29.16,0A21.8,21.8,0,0,1,6231.33,1040.05Zm-6.71-23.05h-16.25a1.506,1.506,0,0,0,0,3h16.25A1.506,1.506,0,0,0,6224.62,1017Zm0,7h-16.25a1.506,1.506,0,0,0,0,3h16.25A1.506,1.506,0,0,0,6224.62,1024Zm0,7h-16.25a1.506,1.506,0,0,0,0,3h16.25A1.506,1.506,0,0,0,6224.62,1031Z" transform="translate(-6193.5 -1001)"/>
</svg>
