<svg id="driving_icon" xmlns="http://www.w3.org/2000/svg" xmlns:xlink="http://www.w3.org/1999/xlink" width="155" height="155" viewBox="0 0 155 155">
  <metadata><?xpacket begin="﻿" id="W5M0MpCehiHzreSzNTczkc9d"?>
<x:xmpmeta xmlns:x="adobe:ns:meta/" x:xmptk="Adobe XMP Core 5.6-c138 79.159824, 2016/09/14-01:09:01        ">
   <rdf:RDF xmlns:rdf="http://www.w3.org/1999/02/22-rdf-syntax-ns#">
      <rdf:Description rdf:about=""/>
   </rdf:RDF>
</x:xmpmeta>
                                                                                                    
                                                                                                    
                                                                                                    
                                                                                                    
                                                                                                    
                                                                                                    
                                                                                                    
                                                                                                    
                                                                                                    
                                                                                                    
                                                                                                    
                                                                                                    
                                                                                                    
                                                                                                    
                                                                                                    
                                                                                                    
                                                                                                    
                                                                                                    
                                                                                                    
                                                                                                    
                           
<?xpacket end="w"?></metadata>
<defs>
    <style>
      .cls-1 {
        fill: #d22734;
        filter: url(#filter);
      }

      .cls-1, .cls-2 {
        fill-rule: evenodd;
      }

      .cls-2 {
        fill: #fff;
        filter: url(#filter-2);
      }
    </style>
    <filter id="filter" x="5938" y="7100" width="155" height="155" filterUnits="userSpaceOnUse">
      <feGaussianBlur result="blur" stdDeviation="2.667" in="SourceAlpha"/>
      <feComposite result="composite"/>
      <feComposite result="composite-2"/>
      <feComposite result="composite-3"/>
      <feFlood result="flood" flood-color="#d12734" flood-opacity="0.4"/>
      <feComposite result="composite-4" operator="in" in2="composite-3"/>
      <feBlend result="blend" in2="SourceGraphic"/>
      <feBlend result="blend-2" in="SourceGraphic"/>
    </filter>
    <filter id="filter-2" x="5976" y="7152" width="79" height="51" filterUnits="userSpaceOnUse">
      <feGaussianBlur result="blur" stdDeviation="2.667" in="SourceAlpha"/>
      <feComposite result="composite"/>
      <feComposite result="composite-2"/>
      <feComposite result="composite-3"/>
      <feFlood result="flood" flood-color="#fff" flood-opacity="0.4"/>
      <feComposite result="composite-4" operator="in" in2="composite-3"/>
      <feBlend result="blend" in2="SourceGraphic"/>
      <feBlend result="blend-2" in="SourceGraphic"/>
    </filter>
  </defs>
  <path id="Ellipse_2_copy_8" data-name="Ellipse 2 copy 8" class="cls-1" d="M6015,7247a70,70,0,1,1,70-70A70,70,0,0,1,6015,7247Zm0-137a67,67,0,1,0,67,67A67,67,0,0,0,6015,7110Z" transform="translate(-5938 -7100)"/>
  <path class="cls-2" d="M5995.82,7185.47a2.115,2.115,0,1,0,2.14,2.12A2.132,2.132,0,0,0,5995.82,7185.47Zm38.46,0a2.115,2.115,0,1,0,2.14,2.12A2.138,2.138,0,0,0,6034.28,7185.47Zm12.72-1.06v-9a2.634,2.634,0,0,0-2.68-2.64h-4.38a9.462,9.462,0,0,1-7.8-4.35l-3.63-5.92a7.459,7.459,0,0,0-6.3-3.5h-21.8a7.6,7.6,0,0,0-6.3,3.5l-5.34,8.57a3.591,3.591,0,0,1-3.1,1.69,3.036,3.036,0,0,0-1.92.75,3,3,0,0,0-.75,1.9v9.53a3.774,3.774,0,0,0,3.74,3.71h1.68a7.487,7.487,0,0,0,14.8,0h23.66a7.493,7.493,0,0,0,14.81,0h1.14A4.121,4.121,0,0,0,6047,7184.41Zm-46.91-14.82v-4.24h13.89v4.24h-13.89Zm16.03-4.24h11.47l2.67,4.24h-14.14v-4.24Zm-20.3,27.53a5.3,5.3,0,1,1,5.34-5.29A5.265,5.265,0,0,1,5995.82,7192.88Zm38.46,0a5.3,5.3,0,1,1,5.34-5.29A5.265,5.265,0,0,1,6034.28,7192.88Zm8.44-6.35h-1.04a7.4,7.4,0,0,0-7.4-6.35h-0.1a7.456,7.456,0,0,0-7.38,6.35h-23.58a7.384,7.384,0,0,0-6.7-6.32,0.249,0.249,0,0,1-.08-0.01,2.462,2.462,0,0,1-.26-0.02h-0.72a2.462,2.462,0,0,1-.26.02,0.249,0.249,0,0,1-.08.01,7.384,7.384,0,0,0-6.7,6.32h-1.68a1.629,1.629,0,0,1-1.6-1.59v-4.76h3.2a1.06,1.06,0,1,0,0-2.12h-3.2v-2.65a0.306,0.306,0,0,1,.21-0.32,0.575,0.575,0,0,1,.43-0.21,5.792,5.792,0,0,0,4.81-2.64l5.34-8.58a5.243,5.243,0,0,1,4.48-2.54h21.8a4.876,4.876,0,0,1,4.07,2.12h-26.4a1.9,1.9,0,0,0-1.92,1.9v4.66a1.906,1.906,0,0,0,1.92,1.91h32.05a11.347,11.347,0,0,0,8.01,3.28h4.38a0.507,0.507,0,0,1,.54.53v2.54h-3.1a1.06,1.06,0,1,0,0,2.12h3.1v4.23A2.132,2.132,0,0,1,6042.72,7186.53Zm-22.33-11.65h-5.34a1.06,1.06,0,1,0,0,2.12h4.27v1.06a1.07,1.07,0,0,0,2.14,0v-2.12A1.01,1.01,0,0,0,6020.39,7174.88Z" transform="translate(-5938 -7100)"/>
</svg>
