<svg xmlns="http://www.w3.org/2000/svg" width="48" height="43" viewBox="0 0 48 43">
  <metadata><?xpacket begin="﻿" id="W5M0MpCehiHzreSzNTczkc9d"?>
<x:xmpmeta xmlns:x="adobe:ns:meta/" x:xmptk="Adobe XMP Core 5.6-c138 79.159824, 2016/09/14-01:09:01        ">
   <rdf:RDF xmlns:rdf="http://www.w3.org/1999/02/22-rdf-syntax-ns#">
      <rdf:Description rdf:about=""/>
   </rdf:RDF>
</x:xmpmeta>
                                                                                                    
                                                                                                    
                                                                                                    
                                                                                                    
                                                                                                    
                                                                                                    
                                                                                                    
                                                                                                    
                                                                                                    
                                                                                                    
                                                                                                    
                                                                                                    
                                                                                                    
                                                                                                    
                                                                                                    
                                                                                                    
                                                                                                    
                                                                                                    
                                                                                                    
                                                                                                    
                           
<?xpacket end="w"?></metadata>
<defs>
    <style>
      .cls-1 {
        fill: #8f939f;
        fill-rule: evenodd;
      }
    </style>
  </defs>
  <path id="home_toolbar_icon" class="cls-1" d="M1716.51,1243.96l-22.77-16.75a1.261,1.261,0,0,0-1.48,0l-22.77,16.75a1.261,1.261,0,0,0-.27,1.76,1.236,1.236,0,0,0,1.74.27l22.04-16.21,22.04,16.21A1.253,1.253,0,0,0,1716.51,1243.96Zm-6.51,3a1.061,1.061,0,0,0-1,1.25v19.78h-10.01v-10.77a6.015,6.015,0,1,0-12.02,0v10.77h-9.98v-19.78a1.025,1.025,0,1,0-2,0v20.53a1.25,1.25,0,0,0,1.25,1.25h11.48a1.246,1.246,0,0,0,1.25-1.15v-12.12a4.018,4.018,0,0,1,8.02,0v12.02c0,0.04.01,0.07,0.01,0.1a1.251,1.251,0,0,0,1.24,1.15h11.51a1.25,1.25,0,0,0,1.25-1.25v-20.53A1.061,1.061,0,0,0,1710,1246.96Z" transform="translate(-1669 -1227)"/>
</svg>
