<svg xmlns="http://www.w3.org/2000/svg" width="48" height="38" viewBox="0 0 48 38">
  <metadata><?xpacket begin="﻿" id="W5M0MpCehiHzreSzNTczkc9d"?>
<x:xmpmeta xmlns:x="adobe:ns:meta/" x:xmptk="Adobe XMP Core 5.6-c138 79.159824, 2016/09/14-01:09:01        ">
   <rdf:RDF xmlns:rdf="http://www.w3.org/1999/02/22-rdf-syntax-ns#">
      <rdf:Description rdf:about=""/>
   </rdf:RDF>
</x:xmpmeta>
                                                                                                    
                                                                                                    
                                                                                                    
                                                                                                    
                                                                                                    
                                                                                                    
                                                                                                    
                                                                                                    
                                                                                                    
                                                                                                    
                                                                                                    
                                                                                                    
                                                                                                    
                                                                                                    
                                                                                                    
                                                                                                    
                                                                                                    
                                                                                                    
                                                                                                    
                                                                                                    
                           
<?xpacket end="w"?></metadata>
<defs>
    <style>
      .cls-1 {
        fill: #8f939f;
        fill-rule: evenodd;
      }
    </style>
  </defs>
  <path id="map_toolbar_icon" class="cls-1" d="M1850.78,1233.02a2.79,2.79,0,1,0,2.78,2.79A2.781,2.781,0,0,0,1850.78,1233.02Zm0,3.58a0.79,0.79,0,0,1-.78-0.79A0.78,0.78,0,1,1,1850.78,1236.6Zm39.22,4.96v-7.09a2.5,2.5,0,0,0-2.48-2.5l-31.13-.01a6.171,6.171,0,0,0-.84-1.01,6.7,6.7,0,0,0-4.86-1.96,6.837,6.837,0,0,0-5.96,9.93c0.01,0.02,1.25,2.34,1.25,2.34v23.24a2.5,2.5,0,0,0,2.48,2.49l39.18,0.02a2.4,2.4,0,0,0,2.36-2.49v-13.19s1.26-1.92,1.27-1.94a6.978,6.978,0,0,0,.74-3.11A6.883,6.883,0,0,0,1890,1241.56Zm-6.72-7.58-4.82,4.85-4.83-4.85h9.65Zm-6.09,6.13-8.41,8.45-3.08-3.09h0l-2.31-2.32,8.41-8.45Zm-16.75,11.92,4.63-4.65,5.94,5.97-4.63,4.65Zm1.13,3.69-5.19,5.21-4.16-4.17,5.19-5.22Zm-4.74-16.8a6.826,6.826,0,0,0,.75-3.11,7.042,7.042,0,0,0-.25-1.84h12.65l-7.86,7.9-2.81-2.83a0.9,0.9,0,0,0-1.27,0,0.911,0.911,0,0,0,0,1.28l5.75,5.78-4.62,4.65-3.75-3.76a0.9,0.9,0,0,0-1.27,0,0.911,0.911,0,0,0,0,1.28l1.99,1.99-8.16,8.04v-13.77l1.09,1.69a1.991,1.991,0,0,0,3.43,0S1856.82,1238.94,1856.83,1238.92Zm-10.33-.94a4.9,4.9,0,0,1-.51-2.2,4.815,4.815,0,0,1,4.73-4.78,4.74,4.74,0,0,1,3.43,1.38,5.033,5.033,0,0,1,.8,1.05,0.219,0.219,0,0,1,.03.05,4.847,4.847,0,0,1,.09,4.5l-4.29,7.21Zm1.96,27a0.48,0.48,0,0,1-.48-0.48v-3.64l2.97-2.83,6.92,6.96Zm11.95,0.01-2.76-2.78,5.19-5.21,7.96,7.99h-10.39Zm7.24-5.71,4.63-4.65,3.36,3.38-4.63,4.65Zm5.69,5.72-1.05-1.07,4.62-4.64,5.69,5.71h-9.26Zm14.3,0h-2.49l-6.97-6.99,2.1-2.11a0.911,0.911,0,0,0,0-1.28,0.9,0.9,0,0,0-1.27,0l-2.1,2.11-3.99-4.01h0l-2.87-2.89,3.41-3.42,1.77,1.77a0.97,0.97,0,0,0,.7.3,0.992,0.992,0,0,0,.71-0.3,1.008,1.008,0,0,0,0-1.42l-1.77-1.77,10.96-11.01h1.69a0.482,0.482,0,0,1,.48.49v5.63a6.265,6.265,0,0,0-2.88-.64,6.821,6.821,0,0,0-5.95,9.93c0.01,0.02,4.33,7.3,4.33,7.3a1.991,1.991,0,0,0,3.43,0l1.07-2v9.83h0A0.393,0.393,0,0,1,1887.64,1265Zm1.86-16.55-1.26,2.12h0l-3.02,5.09-4.29-7.21a4.933,4.933,0,0,1-.51-2.2,4.844,4.844,0,0,1,4.73-4.79A4.83,4.83,0,0,1,1889.5,1248.45Zm-4.28-4.96a2.79,2.79,0,1,0,2.78,2.79A2.789,2.789,0,0,0,1885.22,1243.49Zm0,3.57a0.78,0.78,0,1,1,.78-0.78A0.781,0.781,0,0,1,1885.22,1247.06Z" transform="translate(-1844 -1229)"/>
</svg>
