<svg xmlns="http://www.w3.org/2000/svg" width="40" height="40" viewBox="0 0 40 40">
  <metadata><?xpacket begin="﻿" id="W5M0MpCehiHzreSzNTczkc9d"?>
<x:xmpmeta xmlns:x="adobe:ns:meta/" x:xmptk="Adobe XMP Core 5.6-c138 79.159824, 2016/09/14-01:09:01        ">
   <rdf:RDF xmlns:rdf="http://www.w3.org/1999/02/22-rdf-syntax-ns#">
      <rdf:Description rdf:about=""/>
   </rdf:RDF>
</x:xmpmeta>
                                                                                                    
                                                                                                    
                                                                                                    
                                                                                                    
                                                                                                    
                                                                                                    
                                                                                                    
                                                                                                    
                                                                                                    
                                                                                                    
                                                                                                    
                                                                                                    
                                                                                                    
                                                                                                    
                                                                                                    
                                                                                                    
                                                                                                    
                                                                                                    
                                                                                                    
                                                                                                    
                           
<?xpacket end="w"?></metadata>
<defs>
    <style>
      .cls-1 {
        fill: #47a12c;
        fill-rule: evenodd;
      }
    </style>
  </defs>
  <path id="mark_visited_icon" class="cls-1" d="M6070,5787a20,20,0,1,1-20,20A19.994,19.994,0,0,1,6070,5787Zm0,2a18,18,0,1,1-18,18A18,18,0,0,1,6070,5789Zm-6.92,18.48,4.95,4.94a1,1,0,0,1-1.42,1.42l-4.95-4.95A1,1,0,1,1,6063.08,5807.48Zm16.26-6.37a1.008,1.008,0,0,1,0,1.42l-11.31,11.31a1,1,0,0,1-1.42-1.42l11.31-11.31A1.008,1.008,0,0,1,6079.34,5801.11Z" transform="translate(-6050 -5787)"/>
</svg>
