<svg id="public_tr_icon" xmlns="http://www.w3.org/2000/svg" xmlns:xlink="http://www.w3.org/1999/xlink" width="155" height="155" viewBox="0 0 155 155">
  <metadata><?xpacket begin="﻿" id="W5M0MpCehiHzreSzNTczkc9d"?>
<x:xmpmeta xmlns:x="adobe:ns:meta/" x:xmptk="Adobe XMP Core 5.6-c138 79.159824, 2016/09/14-01:09:01        ">
   <rdf:RDF xmlns:rdf="http://www.w3.org/1999/02/22-rdf-syntax-ns#">
      <rdf:Description rdf:about=""/>
   </rdf:RDF>
</x:xmpmeta>
                                                                                                    
                                                                                                    
                                                                                                    
                                                                                                    
                                                                                                    
                                                                                                    
                                                                                                    
                                                                                                    
                                                                                                    
                                                                                                    
                                                                                                    
                                                                                                    
                                                                                                    
                                                                                                    
                                                                                                    
                                                                                                    
                                                                                                    
                                                                                                    
                                                                                                    
                                                                                                    
                           
<?xpacket end="w"?></metadata>
<defs>
    <style>
      .cls-1 {
        fill: #d22734;
        filter: url(#filter);
      }

      .cls-1, .cls-2 {
        fill-rule: evenodd;
      }

      .cls-2 {
        fill: #fff;
        filter: url(#filter-2);
      }
    </style>
    <filter id="filter" x="6078" y="7300" width="155" height="155" filterUnits="userSpaceOnUse">
      <feGaussianBlur result="blur" stdDeviation="2.667" in="SourceAlpha"/>
      <feComposite result="composite"/>
      <feComposite result="composite-2"/>
      <feComposite result="composite-3"/>
      <feFlood result="flood" flood-color="#d12734" flood-opacity="0.4"/>
      <feComposite result="composite-4" operator="in" in2="composite-3"/>
      <feBlend result="blend" in2="SourceGraphic"/>
      <feBlend result="blend-2" in="SourceGraphic"/>
    </filter>
    <filter id="filter-2" x="6116" y="7349" width="79" height="57" filterUnits="userSpaceOnUse">
      <feGaussianBlur result="blur" stdDeviation="2.667" in="SourceAlpha"/>
      <feComposite result="composite"/>
      <feComposite result="composite-2"/>
      <feComposite result="composite-3"/>
      <feFlood result="flood" flood-color="#fff" flood-opacity="0.4"/>
      <feComposite result="composite-4" operator="in" in2="composite-3"/>
      <feBlend result="blend" in2="SourceGraphic"/>
      <feBlend result="blend-2" in="SourceGraphic"/>
    </filter>
  </defs>
  <path id="Ellipse_2_copy_8" data-name="Ellipse 2 copy 8" class="cls-1" d="M6155,7447a70,70,0,1,1,70-70A70,70,0,0,1,6155,7447Zm0-137a67,67,0,1,0,67,67A67,67,0,0,0,6155,7310Z" transform="translate(-6078 -7300)"/>
  <path id="Forma_1" data-name="Forma 1" class="cls-2" d="M6138.38,7387.85a3.19,3.19,0,1,0,3.21,3.19A3.2,3.2,0,0,0,6138.38,7387.85Zm0,4.06a0.87,0.87,0,1,1,.88-0.87A0.879,0.879,0,0,1,6138.38,7391.91Zm33.24-4.06a3.19,3.19,0,1,0,3.21,3.19A3.2,3.2,0,0,0,6171.62,7387.85Zm0,4.06a0.87,0.87,0,1,1,.88-0.87A0.879,0.879,0,0,1,6171.62,7391.91Zm13.89-6.47v-22.75a6.728,6.728,0,0,0-6.75-6.69h-43.79a10.448,10.448,0,0,0-10.48,10.4v19.04a3.669,3.669,0,0,0-1.49,2.94v0.15a3.694,3.694,0,0,0,3.71,3.67h4.76a7.022,7.022,0,0,0,13.83,0h19.4a7.022,7.022,0,0,0,13.83,0h4.76a3.694,3.694,0,0,0,3.71-3.67v-0.15A3.669,3.669,0,0,0,6185.51,7385.44Zm-2.34-12.05h-3.2a0.293,0.293,0,0,1-.3-0.29v-8.95a0.3,0.3,0,0,1,.3-0.3h3.2v9.54Zm-57.83,15.14v-0.15a1.362,1.362,0,0,1,1.37-1.35h5.94a6.8,6.8,0,0,0-1.18,2.85h-4.76A1.362,1.362,0,0,1,6125.34,7388.53Zm13.04,7.15a4.64,4.64,0,1,1,4.68-4.64A4.665,4.665,0,0,1,6138.38,7395.68Zm26.32-5.8h-19.4a7.03,7.03,0,0,0-9.83-5.17h-8.64V7366.4a8.115,8.115,0,0,1,8.14-8.08h43.79a4.421,4.421,0,0,1,4.26,3.21h-3.05a2.633,2.633,0,0,0-2.64,2.62v8.95a2.625,2.625,0,0,0,2.64,2.61h3.2v9h-8.64A7.03,7.03,0,0,0,6164.7,7389.88Zm6.92,5.8a4.64,4.64,0,1,1,4.68-4.64A4.665,4.665,0,0,1,6171.62,7395.68Zm13.04-7.15a1.362,1.362,0,0,1-1.37,1.35h-4.76a6.8,6.8,0,0,0-1.18-2.85h5.94a1.362,1.362,0,0,1,1.37,1.35v0.15Zm-10.78-15.43v-8.95a2.633,2.633,0,0,0-2.64-2.62h-35.99a5.631,5.631,0,0,0-5.64,5.6v5.97a2.623,2.623,0,0,0,2.63,2.61h39A2.625,2.625,0,0,0,6173.88,7373.1Zm-20.97-9.25h9.19v9.54h-9.19v-9.54Zm-2.34,9.54h-9.19v-9.54h9.19v9.54Zm-18.63-.29v-5.97a3.308,3.308,0,0,1,3.31-3.28h3.8v9.54h-6.81A0.3,0.3,0,0,1,6131.94,7373.1Zm39.6,0a0.293,0.293,0,0,1-.3.29h-6.8v-9.54h6.8a0.3,0.3,0,0,1,.3.3v8.95Zm9.07,9.8a1.169,1.169,0,0,0,1.17-1.16v-1.03a1.17,1.17,0,0,0-2.34,0v1.03A1.163,1.163,0,0,0,6180.61,7382.9Z" transform="translate(-6078 -7300)"/>
</svg>
