<svg xmlns="http://www.w3.org/2000/svg" width="40" height="40" viewBox="0 0 40 40">
  <metadata><?xpacket begin="﻿" id="W5M0MpCehiHzreSzNTczkc9d"?>
<x:xmpmeta xmlns:x="adobe:ns:meta/" x:xmptk="Adobe XMP Core 5.6-c138 79.159824, 2016/09/14-01:09:01        ">
   <rdf:RDF xmlns:rdf="http://www.w3.org/1999/02/22-rdf-syntax-ns#">
      <rdf:Description rdf:about=""/>
   </rdf:RDF>
</x:xmpmeta>
                                                                                                    
                                                                                                    
                                                                                                    
                                                                                                    
                                                                                                    
                                                                                                    
                                                                                                    
                                                                                                    
                                                                                                    
                                                                                                    
                                                                                                    
                                                                                                    
                                                                                                    
                                                                                                    
                                                                                                    
                                                                                                    
                                                                                                    
                                                                                                    
                                                                                                    
                                                                                                    
                           
<?xpacket end="w"?></metadata>
<defs>
    <style>
      .cls-1 {
        fill: #d12734;
        fill-rule: evenodd;
      }
    </style>
  </defs>
  <path id="remove_from_list_icon" class="cls-1" d="M6210,5787a20,20,0,1,1-20,20A19.994,19.994,0,0,1,6210,5787Zm0,2a18,18,0,1,1-18,18A18,18,0,0,1,6210,5789Zm-6.31,10.28,14.03,14.03a1,1,0,0,1-1.41,1.41l-14.03-14.03A1,1,0,0,1,6203.69,5799.28Zm14.03,0a1,1,0,0,1,0,1.41l-14.03,14.03a1,1,0,0,1-1.41-1.41l14.03-14.03A1,1,0,0,1,6217.72,5799.28Z" transform="translate(-6190 -5787)"/>
</svg>
