<svg xmlns="http://www.w3.org/2000/svg" width="28" height="32" viewBox="0 0 28 32">
  <metadata><?xpacket begin="﻿" id="W5M0MpCehiHzreSzNTczkc9d"?>
<x:xmpmeta xmlns:x="adobe:ns:meta/" x:xmptk="Adobe XMP Core 5.6-c138 79.159824, 2016/09/14-01:09:01        ">
   <rdf:RDF xmlns:rdf="http://www.w3.org/1999/02/22-rdf-syntax-ns#">
      <rdf:Description rdf:about=""/>
   </rdf:RDF>
</x:xmpmeta>
                                                                                                    
                                                                                                    
                                                                                                    
                                                                                                    
                                                                                                    
                                                                                                    
                                                                                                    
                                                                                                    
                                                                                                    
                                                                                                    
                                                                                                    
                                                                                                    
                                                                                                    
                                                                                                    
                                                                                                    
                                                                                                    
                                                                                                    
                                                                                                    
                                                                                                    
                                                                                                    
                           
<?xpacket end="w"?></metadata>
<defs>
    <style>
      .cls-1 {
        fill: #fff;
        fill-rule: evenodd;
      }
    </style>
  </defs>
  <path id="save_icon" class="cls-1" d="M5592.89,1850.64a8.288,8.288,0,0,0-15.17-2.74,4.3,4.3,0,0,0-.62-0.04,4.731,4.731,0,0,0-4.73,4.72,5.807,5.807,0,0,0,.05.72,6.4,6.4,0,0,0-2.43,5.01,6.853,6.853,0,0,0,1.73,4.51,6.217,6.217,0,0,0,4.32,2.16h3.04a1.17,1.17,0,1,0,0-2.34h-2.94a4.337,4.337,0,0,1-3.81-4.34,4.04,4.04,0,0,1,2.02-3.49,1.188,1.188,0,0,0,.51-1.42,2.2,2.2,0,0,1-.15-0.81,2.39,2.39,0,0,1,2.39-2.39,2.146,2.146,0,0,1,.8.15,1.179,1.179,0,0,0,1.47-.6,5.992,5.992,0,0,1,5.39-3.4,5.917,5.917,0,0,1,5.92,5.36,1.178,1.178,0,0,0,.97,1.04,5.014,5.014,0,0,1-.46,9.9H5584a1.178,1.178,0,0,0-1.17,1.17v8.2l-1.8-1.8a1.174,1.174,0,0,0-1.66,1.66l3.8,3.79a1.177,1.177,0,0,0,.82.35,1.148,1.148,0,0,0,.83-0.35l3.8-3.79a1.189,1.189,0,0,0,0-1.66,1.171,1.171,0,0,0-1.66,0l-1.79,1.8v-7.03h6.15a7.128,7.128,0,0,0,4.76-2.34A7.379,7.379,0,0,0,5592.89,1850.64Z" transform="translate(-5570 -1844)"/>
</svg>
