<svg xmlns="http://www.w3.org/2000/svg" width="32" height="31.35" viewBox="0 0 32 31.35">
  <metadata><?xpacket begin="﻿" id="W5M0MpCehiHzreSzNTczkc9d"?>
<x:xmpmeta xmlns:x="adobe:ns:meta/" x:xmptk="Adobe XMP Core 5.6-c138 79.159824, 2016/09/14-01:09:01        ">
   <rdf:RDF xmlns:rdf="http://www.w3.org/1999/02/22-rdf-syntax-ns#">
      <rdf:Description rdf:about=""/>
   </rdf:RDF>
</x:xmpmeta>
                                                                                                    
                                                                                                    
                                                                                                    
                                                                                                    
                                                                                                    
                                                                                                    
                                                                                                    
                                                                                                    
                                                                                                    
                                                                                                    
                                                                                                    
                                                                                                    
                                                                                                    
                                                                                                    
                                                                                                    
                                                                                                    
                                                                                                    
                                                                                                    
                                                                                                    
                                                                                                    
                           
<?xpacket end="w"?></metadata>
<defs>
    <style>
      .cls-1 {
        fill: #fff;
        fill-rule: evenodd;
      }
    </style>
  </defs>
  <path id="share_icon" class="cls-1" d="M6236.6,1863.53a4.261,4.261,0,0,0,.06-0.5,0.277,0.277,0,0,0,.01-0.09c0.01-.08.01-0.16,0.02-0.23a0.528,0.528,0,0,0,.01-0.13c0-.07.01-0.14,0.01-0.21,0-.04.01-0.08,0.01-0.12v-0.23a0.41,0.41,0,0,1,.01-0.11c0-.1.01-0.21,0.01-0.32a13.617,13.617,0,0,0-5.23-10.75,1.172,1.172,0,0,0-1.63.2,1.149,1.149,0,0,0,.19,1.62,11.315,11.315,0,0,1,4.34,8.93v0.37c0,0.06-.01.12-0.01,0.19,0,0.03-.01.07-0.01,0.1a1.148,1.148,0,0,1-.01.18c0,0.03-.01.06-0.01,0.09,0,0.07-.01.13-0.01,0.2,0,0.02-.01.04-0.01,0.06-0.16-.01-0.3-0.02-0.47-0.02a5.121,5.121,0,0,0-5.12,5.11,1.16,1.16,0,0,0,2.32,0,2.8,2.8,0,1,1,2.8,2.79,1.155,1.155,0,1,0,0,2.31A5.1,5.1,0,0,0,6236.6,1863.53Zm-9.4-17.22a5.032,5.032,0,0,0-3.15-2.31,5.117,5.117,0,0,0-3.88.58,5.046,5.046,0,0,0-2.32,3.15,4.969,4.969,0,0,0-.15,1.15,13.4,13.4,0,0,0-1.73.88,13.608,13.608,0,0,0-6.53,10.01,1.172,1.172,0,0,0,1.02,1.29,0.66,0.66,0,0,0,.14.01,1.164,1.164,0,0,0,1.15-1.01,11.292,11.292,0,0,1,5.43-8.32,11.645,11.645,0,0,1,1.04-.56c0.07,0.13.14,0.27,0.22,0.4a5.137,5.137,0,0,0,7.03,1.74,1.158,1.158,0,1,0-1.2-1.98,2.8,2.8,0,1,1,.94-3.83,1.176,1.176,0,0,0,1.6.39A1.155,1.155,0,0,0,6227.2,1846.31Zm1.6,26.31a1.151,1.151,0,0,0-1.51-.63,11.444,11.444,0,0,1-9.95-.59h-0.01c-0.08-.05-0.15-0.09-0.22-0.13a0.218,0.218,0,0,1-.08-0.05c-0.05-.03-0.11-0.06-0.16-0.09l-0.09-.06c-0.05-.03-0.09-0.07-0.14-0.1l-0.09-.06a1.431,1.431,0,0,1-.15-0.11l-0.06-.03c0.09-.13.17-0.26,0.25-0.4a5.088,5.088,0,0,0-1.97-6.94,1.157,1.157,0,1,0-1.13,2.02,2.789,2.789,0,0,1-1.37,5.22,2.868,2.868,0,0,1-1.36-.35,2.8,2.8,0,0,1-1.08-3.8,1.157,1.157,0,0,0-2.02-1.13,5.091,5.091,0,0,0,1.95,6.96,5.009,5.009,0,0,0,2.49.65,5.136,5.136,0,0,0,2.48-.63,1.47,1.47,0,0,0,.13.1c0,0.01.01,0.01,0.02,0.01a2.269,2.269,0,0,0,.25.18c0.02,0.02.06,0.04,0.08,0.06,0.07,0.05.12,0.08,0.19,0.13a0.879,0.879,0,0,0,.1.06l0.18,0.12c0.03,0.02.07,0.04,0.1,0.06,0.07,0.04.13,0.08,0.2,0.12a0.405,0.405,0,0,0,.09.05c0.1,0.06.19,0.11,0.29,0.17a13.7,13.7,0,0,0,11.96.7A1.155,1.155,0,0,0,6228.8,1872.62Z" transform="translate(-6207 -1843.84)"/>
</svg>
