<?xml version="1.0" encoding="utf-8"?>
<!-- Generator: Adobe Illustrator 21.0.2, SVG Export Plug-In . SVG Version: 6.00 Build 0)  -->
<svg version="1.1" id="walking_icon" xmlns="http://www.w3.org/2000/svg" xmlns:xlink="http://www.w3.org/1999/xlink" x="0px"
	 y="0px" viewBox="0 0 155 155" style="enable-background:new 0 0 155 155;" xml:space="preserve">
<style type="text/css">
	.st0{fill:#D22734;}
	.st1{fill:#FFFFFF;}
</style>
<path class="st0" d="M77,7C38.3,7,7,38.3,7,77s31.3,70,70,70s70-31.3,70-70S115.7,7,77,7z M77,144c-37,0-67-30-67-67s30-67,67-67
	s67,30,67,67S114,144,77,144z"/>
<path class="st1" d="M81.1,63.3c-5.3,0.1-9.7-4.2-9.7-9.5s4.2-9.7,9.5-9.7s9.7,4.2,9.7,9.5c0,0,0,0.1,0,0.1
	C90.7,58.9,86.4,63.2,81.1,63.3z M81.1,46c-4.2,0-7.7,3.3-7.7,7.6c0,4.2,3.3,7.7,7.6,7.7c4.2,0,7.7-3.3,7.7-7.6c0,0,0,0,0-0.1
	C88.7,49.4,85.3,46,81.1,46z M90,110c-1.5,0-2.9-0.8-3.8-2.1l-9-14.1l-7.9,13.9c-0.8,1.4-2.3,2.3-3.9,2.3c-0.8,0-1.5-0.2-2.2-0.6
	c-2.1-1.3-2.9-4-1.7-6.2l7.8-13.8c-0.5-1-0.8-2.2-0.8-3.4v-9.5l-1.5,5.8c-0.5,1.8-2.1,3.1-4,3.1c-0.4,0-0.7-0.1-1.1-0.1
	c-2.2-0.6-3.5-2.9-2.9-5.2l2.3-8.6c0.2-0.8,0.7-1.6,1.4-2.2c6.7-5.5,8.1-6.7,8.5-6.9l0,0c3-2.5,7.4-2.3,10,0.5
	c0.7,0.7,6.1,7.4,7.1,8.6l4.7,3.2c1.9,1.3,2.4,3.9,1.1,5.8c-0.8,1.2-2.1,1.8-3.5,1.9c-0.8,0-1.6-0.3-2.3-0.7l-5.1-3.5v7.7
	c0,0.2,0,0.4,0,0.6L93.8,103c1.3,2.1,0.7,4.9-1.3,6.3C91.7,109.7,90.9,110,90,110L90,110z M77.9,91.2l10.1,15.7
	c0.7,1.2,2.3,1.5,3.5,0.8c1.2-0.7,1.5-2.3,0.8-3.5c0,0,0,0,0,0l-10.9-17l0-0.4c0-0.2,0-0.5,0-0.7v-13l2.5,3.1
	c0.1,0.2,0.3,0.3,0.5,0.4l5.2,3.5c1,0.7,2.4,0.4,3.1-0.6s0.4-2.4-0.6-3.1l-5-3.5c-2.4-3-6.5-8.1-7-8.6c-1.9-2.1-5.2-2.3-7.4-0.4
	l-0.1,0.1c-0.2,0.2-5.1,4.2-8.4,6.9c-0.4,0.3-0.6,0.7-0.7,1.1l-2.3,8.6c-0.3,1.2,0.4,2.4,1.5,2.7s2.4-0.4,2.7-1.5l2.1-7.9l3.3-2.7
	v14.8c0,1,0.3,2,0.8,2.8l0.3,0.5l-8.4,14.8c-0.7,1.2-0.3,2.7,0.9,3.4c1.2,0.7,2.7,0.3,3.4-0.9c0,0,0,0,0-0.1l8.6-15.2l0.5-0.1
	c0.1,0,0.3,0,0.4-0.1L77.9,91.2z"/>
</svg>
